<svg width="65" height="65" viewBox="0 0 65 65" fill="none" xmlns="http://www.w3.org/2000/svg">
<path d="M39.5576 33.5156H45.763C46.2709 38.0788 50.1475 41.6406 54.8438 41.6406C59.8833 41.6406 63.9844 37.5395 63.9844 32.5C63.9844 27.4605 59.8833 23.3594 54.8438 23.3594C50.1475 23.3594 46.2709 26.9212 45.763 31.4844H39.5576C39.3473 29.1657 38.4292 27.0502 37.0175 25.3561L43.6272 18.7464C44.5941 19.0968 45.632 19.2969 46.7188 19.2969C51.7583 19.2969 55.8594 15.1958 55.8594 10.1562C55.8594 5.11672 51.7583 1.01562 46.7188 1.01562C41.6792 1.01562 37.5781 5.11672 37.5781 10.1562C37.5781 13.3463 39.2245 16.1566 41.7087 17.7927L35.5814 23.92C33.6426 22.3041 31.1523 21.3281 28.4375 21.3281C26.9364 21.3281 25.5064 21.6298 24.1983 22.1691C22.8282 19.3101 20.3948 17.1285 17.4921 16.0286C19.7905 14.5915 21.3281 12.0453 21.3281 9.14062C21.3281 4.6607 17.683 1.01562 13.2031 1.01562C8.7232 1.01562 5.07812 4.6607 5.07812 9.14062C5.07812 12.0453 6.61578 14.5915 8.91414 16.0286C4.30727 17.7694 1.01562 22.2127 1.01562 27.4219V37.5781C1.01562 39.8186 2.83766 41.6406 5.07812 41.6406H6.09375V59.9219C6.09375 62.1623 7.91578 63.9844 10.1562 63.9844C11.375 63.9844 12.4577 63.4339 13.2031 62.5808C13.9486 63.4339 15.0312 63.9844 16.25 63.9844C18.4905 63.9844 20.3125 62.1623 20.3125 59.9219V40.1436C22.3519 42.3099 25.2352 43.6719 28.4375 43.6719C31.1523 43.6719 33.6426 42.6959 35.5814 41.08L41.7087 47.2073C39.2245 48.8434 37.5781 51.6537 37.5781 54.8438C37.5781 59.8833 41.6792 63.9844 46.7188 63.9844C51.7583 63.9844 55.8594 59.8833 55.8594 54.8438C55.8594 49.8042 51.7583 45.7031 46.7188 45.7031C45.632 45.7031 44.5941 45.9032 43.6272 46.2526L37.0175 39.6429C38.4302 37.9498 39.3473 35.8343 39.5576 33.5156ZM42.3302 15.7381C43.2291 14.1802 44.8825 13.2031 46.7188 13.2031C48.555 13.2031 50.2084 14.1802 51.1073 15.7381C49.8977 16.6918 48.3752 17.2656 46.7188 17.2656C45.0623 17.2656 43.5398 16.6918 42.3302 15.7381ZM44.6875 9.14062C44.6875 8.02039 45.5985 7.10938 46.7188 7.10938C47.839 7.10938 48.75 8.02039 48.75 9.14062C48.75 10.2609 47.839 11.1719 46.7188 11.1719C45.5985 11.1719 44.6875 10.2609 44.6875 9.14062ZM46.7188 3.04688C50.6391 3.04688 53.8281 6.23594 53.8281 10.1562C53.8281 11.6716 53.3477 13.0741 52.5373 14.2289C51.8182 13.192 50.8564 12.3663 49.7311 11.8412C50.376 11.1221 50.7812 10.1816 50.7812 9.14062C50.7812 6.90016 48.9592 5.07812 46.7188 5.07812C44.4783 5.07812 42.6562 6.90016 42.6562 9.14062C42.6562 10.1816 43.0615 11.1221 43.7064 11.8412C42.5811 12.3663 41.6193 13.192 40.9002 14.2289C40.0898 13.0741 39.6094 11.6716 39.6094 10.1562C39.6094 6.23594 42.7984 3.04688 46.7188 3.04688ZM42.3302 60.4256C43.2291 58.8677 44.8825 57.8906 46.7188 57.8906C48.555 57.8906 50.2084 58.8677 51.1073 60.4256C49.8977 61.3793 48.3752 61.9531 46.7188 61.9531C45.0623 61.9531 43.5398 61.3793 42.3302 60.4256ZM44.6875 53.8281C44.6875 52.7079 45.5985 51.7969 46.7188 51.7969C47.839 51.7969 48.75 52.7079 48.75 53.8281C48.75 54.9484 47.839 55.8594 46.7188 55.8594C45.5985 55.8594 44.6875 54.9484 44.6875 53.8281ZM53.8281 54.8438C53.8281 56.3591 53.3477 57.7616 52.5373 58.9164C51.8182 57.8795 50.8564 57.0537 49.7311 56.5287C50.376 55.8096 50.7812 54.8691 50.7812 53.8281C50.7812 51.5877 48.9592 49.7656 46.7188 49.7656C44.4783 49.7656 42.6562 51.5877 42.6562 53.8281C42.6562 54.8691 43.0615 55.8096 43.7064 56.5287C42.5811 57.0537 41.6193 57.8795 40.9002 58.9164C40.0898 57.7616 39.6094 56.3591 39.6094 54.8438C39.6094 50.9234 42.7984 47.7344 46.7188 47.7344C50.6391 47.7344 53.8281 50.9234 53.8281 54.8438ZM50.4552 38.0819C51.3541 36.5239 53.0075 35.5469 54.8438 35.5469C56.68 35.5469 58.3334 36.5239 59.2323 38.0819C58.0227 39.0355 56.5002 39.6094 54.8438 39.6094C53.1873 39.6094 51.6648 39.0355 50.4552 38.0819ZM52.8125 31.4844C52.8125 30.3641 53.7235 29.4531 54.8438 29.4531C55.964 29.4531 56.875 30.3641 56.875 31.4844C56.875 32.6046 55.964 33.5156 54.8438 33.5156C53.7235 33.5156 52.8125 32.6046 52.8125 31.4844ZM54.8438 25.3906C58.7641 25.3906 61.9531 28.5797 61.9531 32.5C61.9531 34.0153 61.4727 35.4179 60.6623 36.5727C59.9432 35.5357 58.9814 34.71 57.8561 34.1849C58.501 33.4659 58.9062 32.5254 58.9062 31.4844C58.9062 29.2439 57.0842 27.4219 54.8438 27.4219C52.6033 27.4219 50.7812 29.2439 50.7812 31.4844C50.7812 32.5254 51.1865 33.4659 51.8314 34.1849C50.7061 34.71 49.7443 35.5357 49.0252 36.5727C48.2148 35.4179 47.7344 34.0153 47.7344 32.5C47.7344 28.5797 50.9234 25.3906 54.8438 25.3906ZM9.7368 17.8882C10.1258 17.746 10.5239 17.6252 10.9332 17.5307L10.657 21.4002C10.2598 20.2536 9.95109 19.0785 9.7368 17.8882ZM12.9878 17.2768C13.0599 17.2748 13.13 17.2656 13.2031 17.2656C13.2752 17.2656 13.3463 17.2727 13.4184 17.2738L13.9923 25.3114C13.7414 25.7512 13.4814 26.1848 13.2021 26.6063C12.9238 26.1818 12.6638 25.7451 12.413 25.3033L12.9878 17.2768ZM15.7534 21.4449L15.473 17.5277C15.8905 17.6241 16.2977 17.7521 16.6969 17.8994C16.4765 19.1019 16.1596 20.2881 15.7534 21.4449ZM7.10938 9.14062C7.10938 5.77992 9.84242 3.04688 13.2031 3.04688C16.5638 3.04688 19.2969 5.77992 19.2969 9.14062C19.2969 12.5013 16.5638 15.2344 13.2031 15.2344C9.84242 15.2344 7.10938 12.5013 7.10938 9.14062ZM18.2812 59.9219C18.2812 61.0421 17.3702 61.9531 16.25 61.9531C15.1298 61.9531 14.2188 61.0421 14.2188 59.9219V41.6406V40.8718C14.2188 40.3295 14.43 39.8186 14.8139 39.4347L15.9524 38.2962L14.5163 36.8601L13.3778 37.9986C12.61 38.7654 12.1875 39.7861 12.1875 40.8718V41.6406V59.9219C12.1875 61.0421 11.2765 61.9531 10.1562 61.9531C9.03602 61.9531 8.125 61.0421 8.125 59.9219V22.3438H6.09375V39.6094H5.07812C3.95789 39.6094 3.04688 38.6984 3.04688 37.5781V27.4219C3.04688 23.792 4.96742 20.6101 7.83859 18.8134C8.49469 22.0309 9.78047 25.1347 11.5995 27.8637L13.2031 30.2687L14.8464 27.8048C16.6502 25.0981 17.9309 22.0208 18.592 18.8307C20.2211 19.8534 21.5617 21.3261 22.4016 23.1146C21.6348 23.6092 20.9361 24.1952 20.3135 24.8564V22.3438H18.2823V27.8728C17.6363 29.2845 17.2666 30.8486 17.2666 32.5C17.2666 34.1514 17.6363 35.7155 18.2823 37.1272V59.9219H18.2812ZM28.4375 41.6406C23.398 41.6406 19.2969 37.5395 19.2969 32.5C19.2969 27.4605 23.398 23.3594 28.4375 23.3594C33.477 23.3594 37.5781 27.4605 37.5781 32.5C37.5781 37.5395 33.477 41.6406 28.4375 41.6406Z" fill="#ADB5BD"/>
<path d="M29.4531 29.4531C30.0127 29.4531 30.4688 29.9091 30.4688 30.4688H32.5C32.5 28.7889 31.133 27.4219 29.4531 27.4219V25.3906H27.4219V27.4219H24.375V30.4688C24.375 32.1486 25.742 33.5156 27.4219 33.5156H29.4531C30.0127 33.5156 30.4688 33.9716 30.4688 34.5312V35.5469H27.4219C26.8623 35.5469 26.4062 35.0909 26.4062 34.5312H24.375C24.375 36.2111 25.742 37.5781 27.4219 37.5781V39.6094H29.4531V37.5781H32.5V34.5312C32.5 32.8514 31.133 31.4844 29.4531 31.4844H27.4219C26.8623 31.4844 26.4062 31.0284 26.4062 30.4688V29.4531H29.4531Z" fill="#ADB5BD"/>
</svg>
