<svg width="40" height="40" viewBox="0 0 40 40" fill="none" xmlns="http://www.w3.org/2000/svg">
<g clip-path="url(#clip0)">
<path d="M23.3857 33.1807L24.7282 33.1809C25.5734 33.1807 26.261 32.4931 26.2612 31.6479C26.261 31.2385 26.1017 30.8536 25.812 30.5639C25.5947 30.3466 25.3234 30.2024 25.0286 30.1443L25.3619 29.5281L26.8155 29.5279C27.6608 29.5279 28.3485 28.8402 28.3483 27.995C28.3485 27.2168 27.765 26.5736 27.0127 26.4762L29.0426 22.7241C29.7177 22.7368 30.3693 22.744 30.9902 22.744C32.7796 22.7438 34.4538 22.5243 35.705 22.1256C37.8195 21.4516 38.2633 20.4048 38.2633 19.6454C38.2635 18.8861 37.8195 17.8395 35.7049 17.1653C34.454 16.7666 32.7796 16.547 30.9902 16.5472C30.3693 16.5472 29.7177 16.554 29.0427 16.5668L27.0127 12.8146C27.7648 12.7174 28.3483 12.0742 28.3485 11.2959C28.3483 10.4507 27.6608 9.76292 26.8156 9.7631L25.3619 9.7631L25.0284 9.14671C25.3234 9.08834 25.5947 8.94423 25.812 8.72689C26.1015 8.4374 26.261 8.05231 26.261 7.64306C26.2612 6.79787 25.5734 6.11005 24.7282 6.11023L23.3858 6.11023L20.9838 1.67018C20.8981 1.51209 20.733 1.41363 20.5534 1.41381L18.7922 1.41381C18.4966 1.41363 18.2635 1.68575 18.3088 1.97774L20.6224 16.9274C16.4818 17.1755 12.41 17.4978 9.51678 17.7439L7.95441 14.2284C7.87581 14.0517 7.70073 13.9378 7.50738 13.9378L5.41992 13.9378C5.14977 13.938 4.93082 14.157 4.93082 14.4269L4.93082 24.8639C4.93064 25.1304 5.15335 25.3531 5.4201 25.3531H7.5072C7.70055 25.3531 7.87599 25.2393 7.95441 25.0624L9.51678 21.5472C12.41 21.7934 16.4816 22.1154 20.6225 22.3636L20.3712 23.9863C20.3266 24.2743 20.552 24.5427 20.8431 24.5502C21.0857 24.5565 21.3011 24.3755 21.3381 24.1361L21.6036 22.4209C23.7754 22.5442 25.942 22.6441 27.9439 22.6985L20.2618 36.899L19.3629 36.8988L21.0033 26.2995C21.0447 26.0325 20.8617 25.7826 20.5948 25.7413C20.3275 25.6999 20.0776 25.8829 20.0364 26.15L18.3088 37.3134C18.2635 37.6054 18.4966 37.8775 18.7922 37.8773H20.5534C20.733 37.8775 20.8982 37.7789 20.9838 37.621L23.3857 33.1807ZM26.8156 10.7417C27.1178 10.7417 27.3701 10.9939 27.3701 11.2961C27.3701 11.6019 27.1214 11.8506 26.8156 11.8506H26.4912L25.8913 10.7415L26.8156 10.7417ZM24.7282 7.08879C25.0338 7.08861 25.2826 7.33746 25.2826 7.64324C25.2826 7.94902 25.034 8.19768 24.7282 8.19768L24.515 8.1975L23.915 7.08879L24.7282 7.08879ZM19.3629 2.39201L20.2618 2.39219L27.944 16.5924C25.942 16.647 23.7754 16.7469 21.6034 16.8701L19.3629 2.39201ZM7.18942 14.9164L8.48558 17.8327C7.32817 17.9335 6.43626 18.0152 5.9092 18.0642L5.9092 14.9162L7.18942 14.9164ZM5.9092 19.0471C8.57008 18.7981 22.5911 17.5255 30.9904 17.5255C32.6569 17.5254 34.2671 17.7341 35.4077 18.0977C36.2641 18.3705 37.285 18.8607 37.285 19.6456C37.285 20.4304 36.264 20.9204 35.4077 21.1934C34.2671 21.557 32.6569 21.7654 30.9902 21.7654C22.5917 21.7654 8.57026 20.4929 5.9092 20.2441V19.0471ZM7.18942 24.3748L5.90938 24.3748L5.90938 21.2267C6.43608 21.2758 7.32817 21.3576 8.48558 21.4584L7.18942 24.3748ZM24.7282 31.0935C25.034 31.0935 25.2826 31.3421 25.2826 31.6479C25.2826 31.9537 25.034 32.2024 24.7282 32.2024L23.915 32.2024L24.5148 31.0935L24.7282 31.0935ZM26.8156 27.4406C27.1212 27.4404 27.3699 27.6894 27.3701 27.995C27.3701 28.2972 27.1178 28.5495 26.8156 28.5495L25.8911 28.5495L26.4911 27.4404L26.8156 27.4406Z" fill="#353846"/>
<path d="M16.4372 36.8682L10.5333 36.8682C10.2814 36.8684 10.0649 37.068 10.0454 37.3192C10.0237 37.5997 10.2518 37.8467 10.5333 37.8467L16.4372 37.8468C16.7075 37.8468 16.9265 37.6278 16.9265 37.3575C16.9265 37.0875 16.7073 36.8684 16.4372 36.8682Z" fill="#353846"/>
<path d="M16.4376 34.8949C16.7077 34.8951 16.9269 34.6759 16.9267 34.4058C16.9269 34.1356 16.7077 33.9165 16.4376 33.9167L12.7476 33.9165C12.4957 33.9167 12.2793 34.1163 12.2598 34.3675C12.2381 34.648 12.4662 34.8951 12.7476 34.8951L16.4376 34.8949Z" fill="#353846"/>
<path d="M17.175 31.9432C17.4453 31.9432 17.6645 31.7241 17.6643 31.4539C17.6643 31.1836 17.4453 30.9647 17.175 30.9647L14.592 30.9647C14.3403 30.9647 14.1237 31.1645 14.1043 31.4158C14.0825 31.6962 14.3106 31.9432 14.592 31.9432L17.175 31.9432Z" fill="#353846"/>
<path d="M16.7422 2.11848C16.742 1.84833 16.5229 1.6292 16.2529 1.6292L10.3488 1.62938C10.0786 1.6292 9.85948 1.84833 9.85966 2.11848C9.85966 2.38487 10.0824 2.60758 10.3489 2.60776L16.2529 2.60776C16.523 2.60759 16.742 2.38864 16.7422 2.11848Z" fill="#353846"/>
<path d="M16.7412 5.07186C16.7412 4.80153 16.5222 4.58258 16.2521 4.58275L12.562 4.58276C12.3101 4.58258 12.0938 4.78237 12.0743 5.03355C12.0526 5.31408 12.2805 5.56096 12.562 5.56096L16.2519 5.56114C16.5222 5.56114 16.7414 5.34201 16.7412 5.07186Z" fill="#353846"/>
<path d="M13.9184 8.02232C13.9186 8.28889 14.1411 8.51143 14.4077 8.5116L16.9907 8.51161C17.2609 8.51143 17.4798 8.29248 17.48 8.02233C17.4798 7.75217 17.2609 7.53322 16.9907 7.53304L14.4077 7.53304C14.1376 7.53322 13.9186 7.75217 13.9184 8.02232Z" fill="#353846"/>
<line x1="0.353553" y1="-0.353553" x2="40.3536" y2="39.6464" stroke="#353846"/>
<line x1="40.3536" y1="0.353553" x2="0.353554" y2="40.3536" stroke="#353846"/>
</g>
<defs>
<clipPath id="clip0">
<rect width="40" height="40" fill="white"/>
</clipPath>
</defs>
</svg>
