<svg width="50" height="50" viewBox="0 0 50 50" fill="none" xmlns="http://www.w3.org/2000/svg">
<path d="M39.0625 17.1875C40.0797 17.1875 40.9391 16.532 41.2625 15.625H49.2188V3.125H41.2625C40.9391 2.21797 40.0797 1.5625 39.0625 1.5625H35.9375C34.8602 1.5625 33.9594 2.29766 33.6867 3.28984L31.6953 1.9625C30.5367 1.18984 29.1883 0.78125 27.7953 0.78125H15.625C14.7633 0.78125 14.0625 1.48203 14.0625 2.34375C14.0625 2.91563 14.2281 3.44453 14.4969 3.90625H10.9375C9.64531 3.90625 8.59375 4.95781 8.59375 6.25C8.59375 6.525 8.65 6.78594 8.7375 7.03125H7.8125C6.52031 7.03125 5.46875 8.08281 5.46875 9.375C5.46875 10.6672 6.52031 11.7188 7.8125 11.7188H8.7375C8.65 11.9641 8.59375 12.225 8.59375 12.5C8.59375 13.5805 9.33203 14.4836 10.3281 14.7531C10.2195 15.0234 10.1562 15.3164 10.1562 15.625C10.1562 16.9172 11.2078 17.9688 12.5 17.9688H27.7953C29.1883 17.9688 30.5367 17.5602 31.6953 16.7875L33.6859 15.4602C33.9594 16.4523 34.8602 17.1875 35.9375 17.1875H36.7188V18.8289C34.9383 19.1922 33.5938 20.7695 33.5938 22.6562C33.5938 24.543 34.9383 26.1203 36.7188 26.4836V28.2039C34.9383 28.5672 33.5938 30.1445 33.5938 32.0312C33.5938 33.7586 34.7281 35.2102 36.2852 35.7242C35.8602 36.3242 35.1641 36.7188 34.375 36.7188H32.0312C32.0312 35.4266 30.9797 34.375 29.6875 34.375H28.7625C28.4391 33.468 27.5797 32.8125 26.5625 32.8125H23.2336C21.4211 28.6789 17.2953 25.7812 12.5 25.7812C6.03828 25.7812 0.78125 31.0383 0.78125 37.5C0.78125 43.9617 6.03828 49.2188 12.5 49.2188C17.2953 49.2188 21.4211 46.3211 23.2336 42.1875H26.5625C27.5797 42.1875 28.4391 41.532 28.7625 40.625H29.6875C30.9797 40.625 32.0312 39.5734 32.0312 38.2812H34.375C35.9922 38.2812 37.382 37.293 37.975 35.8891C39.9031 35.6516 41.4062 34.0227 41.4062 32.0312C41.4062 30.1453 40.0617 28.5672 38.2812 28.2039V26.4836C40.0617 26.1203 41.4062 24.543 41.4062 22.6562C41.4062 20.7695 40.0617 19.1922 38.2812 18.8289V17.1875H39.0625ZM12.5 47.6562C6.9 47.6562 2.34375 43.1 2.34375 37.5C2.34375 31.9 6.9 27.3438 12.5 27.3438C18.1 27.3438 22.6562 31.9 22.6562 37.5C22.6562 43.1 18.1 47.6562 12.5 47.6562ZM27.3438 39.8438C27.3438 40.275 26.9937 40.625 26.5625 40.625H23.7828C24.0594 39.6281 24.2188 38.5836 24.2188 37.5C24.2188 36.4164 24.0594 35.3719 23.7828 34.375H26.5625C26.9937 34.375 27.3438 34.725 27.3438 35.1562V39.8438ZM30.4688 38.2812C30.4688 38.7125 30.1187 39.0625 29.6875 39.0625H28.9062V35.9375H29.6875C30.1187 35.9375 30.4688 36.2875 30.4688 36.7188V38.2812ZM39.8438 32.0312C39.8438 33.0484 39.1883 33.9078 38.2812 34.2313V32.8125H36.7188V34.2313C35.8117 33.9078 35.1562 33.0484 35.1562 32.0312C35.1562 31.0141 35.8117 30.1547 36.7188 29.8312V31.25H38.2812V29.8312C39.1883 30.1547 39.8438 31.0141 39.8438 32.0312ZM39.8438 22.6562C39.8438 23.6734 39.1883 24.5328 38.2812 24.8563V23.4375H36.7188V24.8563C35.8117 24.5328 35.1562 23.6734 35.1562 22.6562C35.1562 21.6391 35.8117 20.7797 36.7188 20.4562V21.875H38.2812V20.4562C39.1883 20.7797 39.8438 21.6391 39.8438 22.6562ZM47.6562 14.0625H41.4062V4.6875H47.6562V14.0625ZM7.03125 9.375C7.03125 8.94453 7.38125 8.59375 7.8125 8.59375H10.9375H20.3125V10.1562H10.9375H7.8125C7.38125 10.1562 7.03125 9.80547 7.03125 9.375ZM10.9375 11.7188H20.3125V13.2812H12.5H10.9375C10.5063 13.2812 10.1562 12.9305 10.1562 12.5C10.1562 12.0695 10.5063 11.7188 10.9375 11.7188ZM30.8289 15.4875C29.9281 16.0883 28.8789 16.4062 27.7953 16.4062H12.5C12.0688 16.4062 11.7188 16.0555 11.7188 15.625C11.7188 15.1945 12.0688 14.8438 12.5 14.8438H20.5078C20.6758 15.3391 20.9422 15.7977 21.3227 16.1781L22.4273 15.0727C22.0711 14.7164 21.875 14.243 21.875 13.7391V8.13594C21.875 7.63203 22.0711 7.15859 22.4273 6.80234L21.3227 5.69687C20.9422 6.07734 20.6758 6.53594 20.5078 7.03125H10.9375C10.5063 7.03125 10.1562 6.68047 10.1562 6.25C10.1562 5.81953 10.5063 5.46875 10.9375 5.46875H17.1875H23.1141L23.8555 6.21094C24.8891 7.24375 26.2625 7.8125 27.7227 7.8125H28.9062V6.25H27.7227C26.6797 6.25 25.6984 5.84375 24.9602 5.10625L23.7609 3.90625H23.4375H17.1875C16.3258 3.90625 15.625 3.20547 15.625 2.34375H27.7953C28.8789 2.34375 29.9273 2.66172 30.8289 3.2625L33.5938 5.10547V13.6445L30.8289 15.4875ZM35.1562 14.8438V3.90625C35.1562 3.47578 35.5062 3.125 35.9375 3.125H39.0625C39.4938 3.125 39.8438 3.47578 39.8438 3.90625V14.8438C39.8438 15.2742 39.4938 15.625 39.0625 15.625H35.9375C35.5062 15.625 35.1562 15.2742 35.1562 14.8438Z" fill="white"/>
<path d="M13.025 38.797C14.7314 38.797 16.1 37.2386 16.1 35.3485C16.1 33.4583 14.7314 31.9 13.025 31.9C13.0181 31.9 13.011 31.9001 13.0038 31.9004H10.5757L10.575 31.9004C10.2191 31.9004 9.95003 32.2211 9.95003 32.5913V32.5913V38.1061V39.7788H9.525C9.16904 39.7788 8.9 40.0996 8.9 40.4697C8.9 40.8398 9.16904 41.1606 9.525 41.1606H9.95V44.4091C9.95 44.7792 10.219 45.1 10.575 45.1C10.931 45.1 11.2 44.7792 11.2 44.4091V41.1606H13.025C13.381 41.1606 13.65 40.8398 13.65 40.4697C13.65 40.0996 13.381 39.7788 13.025 39.7788H11.2V38.797H13.025ZM13.025 33.2822C13.0312 33.2822 13.0373 33.2821 13.0431 33.2819C14.0304 33.2928 14.85 34.2046 14.85 35.3485C14.85 36.4994 14.0204 37.4152 13.025 37.4152H11.2V33.2822H13.025Z" fill="white" stroke="white" stroke-width="0.2"/>
</svg>
