<svg width="40" height="40" viewBox="0 0 40 40" fill="none" xmlns="http://www.w3.org/2000/svg">
<path d="M37.5781 10.1094L35.8594 9.42188C35.6172 9.32812 35.3438 9.39062 35.1641 9.57812C34.9922 9.76562 34.9453 10.0469 35.0625 10.2812C35.2344 10.6328 35.2188 11.0234 35.0156 11.3516C34.8125 11.6875 34.4688 11.875 34.0781 11.875H21.875V10.625H22.5C22.8438 10.625 23.125 10.3438 23.125 10V7.5C23.125 7.15625 22.8438 6.875 22.5 6.875H21.7344L21.3281 5.23438C22.0312 4.78906 22.5 4.01562 22.5 3.125C22.5 1.75 21.375 0.625 20 0.625C18.625 0.625 17.5 1.75 17.5 3.125C17.5 4.01562 17.9688 4.78906 18.6719 5.23438L18.2656 6.875H17.5C17.1562 6.875 16.875 7.15625 16.875 7.5V10C16.875 10.3438 17.1562 10.625 17.5 10.625H18.125V11.875H5.92188C5.53125 11.875 5.1875 11.6875 4.98438 11.3516C4.78125 11.0234 4.75781 10.625 4.9375 10.2812C5.05469 10.0469 5.01562 9.76562 4.83594 9.57812C4.66406 9.39062 4.38281 9.32812 4.14062 9.42188L2.42188 10.1094C1.32812 10.5469 0.625 11.5859 0.625 12.7656C0.625 14.3438 1.90625 15.625 3.48438 15.625H5.34375C5.125 15.9922 4.99219 16.4141 4.99219 16.875C4.99219 17.6172 5.32031 18.2891 5.83594 18.7422C5.84375 18.7266 5.85156 18.7109 5.85938 18.6953C5.86719 18.6719 5.88281 18.6484 5.89844 18.6328C5.92188 18.6016 5.94531 18.5703 5.98438 18.5391C6 18.5078 6.02344 18.4766 6.04688 18.4531C6.0625 18.3984 6.09375 18.3516 6.13281 18.3125C6.15625 18.25 6.20312 18.1875 6.25781 18.1484C6.28125 18.1016 6.30469 18.0625 6.34375 18.0234C6.35938 17.9922 6.38281 17.9609 6.40625 17.9375C6.42188 17.8516 6.46875 17.7656 6.53906 17.7109C6.53906 17.7031 6.54688 17.6875 6.54688 17.6797C6.36719 17.4688 6.25 17.1875 6.25 16.875C6.25 16.1875 6.8125 15.625 7.5 15.625C8.1875 15.625 8.75 16.1875 8.75 16.875C8.75 17.1328 8.67188 17.375 8.53125 17.5781C8.5625 17.625 8.58594 17.6719 8.60156 17.7266C8.61719 17.75 8.63281 17.7734 8.64062 17.7969C8.70312 17.8594 8.74219 17.9375 8.75 18.0234C8.79688 18.0781 8.82812 18.1484 8.84375 18.2266C8.86719 18.2734 8.89062 18.3203 8.89844 18.3672C8.91406 18.3828 8.92969 18.3906 8.94531 18.4062C8.99219 18.4531 9.02344 18.5156 9.04688 18.5859C9.0625 18.6016 9.07812 18.625 9.08594 18.6484C9.11719 18.6719 9.14844 18.7031 9.17188 18.7344C9.67969 18.2734 10.0078 17.6172 10.0078 16.875C10.0078 16.4141 9.875 15.9922 9.66406 15.625H18.125V30.2422C17.7422 30.6797 17.5 31.25 17.5 31.875C17.5 32.5 17.7422 33.0703 18.125 33.5078C18.125 34.4297 17.4688 35.2031 16.5625 35.3516L12 36.1094C11.2031 36.25 10.625 36.9297 10.625 37.7344C10.625 38.6406 11.3594 39.375 12.2656 39.375H27.7344C28.6406 39.375 29.375 38.6406 29.375 37.7344C29.375 36.9297 28.7969 36.25 28.0078 36.1172L23.4453 35.3594C22.5391 35.2109 21.8828 34.4297 21.8828 33.5156C22.2656 33.0781 22.5078 32.5078 22.5078 31.8828C22.5078 31.2578 22.2656 30.6875 21.8828 30.25V15.625H30.3516C30.1328 15.9922 30.0078 16.4141 30.0078 16.875C30.0078 17.6172 30.3359 18.2812 30.8516 18.7422C30.8594 18.7266 30.875 18.7109 30.8906 18.7031C30.9141 18.6406 30.9531 18.5859 31 18.5469C31.0156 18.5078 31.0391 18.4688 31.0625 18.4375C31.0781 18.4141 31.0859 18.3828 31.1094 18.3594C31.125 18.3125 31.1562 18.2656 31.1875 18.2344C31.2031 18.2031 31.2187 18.1797 31.2344 18.1484C31.2578 18.0781 31.2891 18.0156 31.3438 17.9688C31.3516 17.9453 31.3672 17.9219 31.3828 17.9062C31.3984 17.8516 31.4297 17.8047 31.4609 17.7656C31.4766 17.7266 31.4922 17.6875 31.5234 17.6484C31.3516 17.4375 31.25 17.1641 31.25 16.875C31.25 16.1875 31.8125 15.625 32.5 15.625C33.1875 15.625 33.75 16.1875 33.75 16.875C33.75 17.1641 33.6484 17.4297 33.4844 17.6484C33.5312 17.7031 33.5625 17.7656 33.5703 17.8359C33.6406 17.8984 33.6719 17.9844 33.6875 18.0781C33.7109 18.1094 33.7266 18.1484 33.7344 18.1875C33.7656 18.2266 33.7891 18.2734 33.8047 18.3203C33.8516 18.3594 33.8828 18.4062 33.9062 18.4609C33.9297 18.4844 33.9531 18.5078 33.9688 18.5391C34.0391 18.5781 34.0938 18.6328 34.125 18.7031C34.1328 18.7188 34.1484 18.7344 34.1562 18.75C34.6719 18.2891 35 17.625 35 16.8828C35 16.4219 34.8672 16 34.6562 15.6328H36.5156C38.0938 15.6328 39.375 14.3516 39.375 12.7734C39.375 11.5859 38.6719 10.5469 37.5781 10.1094ZM20 1.875C20.6875 1.875 21.25 2.4375 21.25 3.125C21.25 3.8125 20.6875 4.375 20 4.375C19.3125 4.375 18.75 3.8125 18.75 3.125C18.75 2.4375 19.3125 1.875 20 1.875ZM20.4531 6.875H19.5547L19.8672 5.60938C19.9141 5.60938 19.9531 5.625 20 5.625C20.0469 5.625 20.0859 5.61719 20.1328 5.60938L20.4531 6.875ZM18.125 9.375V8.125H21.875V9.375H18.125ZM20.625 10.625V11.875H19.375V10.625H20.625ZM23.2344 36.5859L27.7969 37.3438C27.9844 37.375 28.125 37.5391 28.125 37.7266C28.125 37.9453 27.9531 38.1172 27.7344 38.1172H12.2656C12.0469 38.1172 11.875 37.9453 11.875 37.7266C11.875 37.5312 12.0156 37.375 12.2031 37.3438L16.7656 36.5859C18.0234 36.375 18.9844 35.4375 19.2734 34.25C19.5078 34.3203 19.7422 34.3672 20 34.3672C20.2578 34.3672 20.4922 34.3203 20.7266 34.25C21.0156 35.4453 21.9766 36.3828 23.2344 36.5859ZM20 30.625C20.6875 30.625 21.25 31.1875 21.25 31.875C21.25 32.5625 20.6875 33.125 20 33.125C19.3125 33.125 18.75 32.5625 18.75 31.875C18.75 31.1875 19.3125 30.625 20 30.625ZM19.375 29.4609V15.625H20.625V29.4609C20.4219 29.4062 20.2188 29.375 20 29.375C19.7812 29.375 19.5781 29.4141 19.375 29.4609ZM36.5156 14.375H3.48438C2.59375 14.375 1.875 13.6562 1.875 12.7656C1.875 12.1016 2.27344 11.5156 2.89062 11.2734L3.57812 11C3.60938 11.3516 3.72656 11.7031 3.92188 12.0156C4.35156 12.7109 5.10156 13.1328 5.92188 13.1328H34.0781C34.8984 13.1328 35.6484 12.7188 36.0781 12.0156C36.2734 11.7031 36.3906 11.3516 36.4219 11L37.1094 11.2734C37.7266 11.5234 38.125 12.1094 38.125 12.7656C38.125 13.6562 37.4062 14.375 36.5156 14.375Z" fill="#353846"/>
<path d="M39.2735 28.4219L39.2813 28.4141L33.5 19.1641C33.5 19.1641 33.5078 19.1641 33.5078 19.1562C33.5 19.1484 33.5 19.1406 33.4922 19.1328C33.4844 19.125 33.4766 19.1094 33.4688 19.1016C33.3984 19.0625 33.3438 19 33.3125 18.9219C33.2578 18.875 33.2266 18.8125 33.2031 18.75C33.1406 18.6953 33.0938 18.625 33.0781 18.5469C33.0313 18.4922 33.0078 18.4141 32.9922 18.3437C32.9688 18.3047 32.9453 18.2578 32.9375 18.2109C32.8984 18.1719 32.8672 18.125 32.8438 18.0703C32.7344 18.1016 32.6094 18.125 32.4922 18.125C32.375 18.125 32.2578 18.1094 32.1484 18.0781C32.1328 18.1172 32.1094 18.1484 32.0859 18.1797C32.0703 18.2266 32.0469 18.2656 32.0234 18.2969C32 18.3594 31.9688 18.4219 31.9141 18.4687C31.9063 18.4922 31.8906 18.5078 31.875 18.5312C31.8594 18.5937 31.8281 18.6406 31.7891 18.6875C31.7734 18.7187 31.7578 18.75 31.7344 18.7734C31.7188 18.8125 31.7031 18.8437 31.6719 18.875C31.6484 18.9766 31.5938 19.0703 31.5 19.125C31.4922 19.1406 31.4922 19.1484 31.4844 19.1641C31.4844 19.1641 31.4844 19.1641 31.4922 19.1641L25.7109 28.4141L25.7188 28.4219C25.6563 28.5156 25.6172 28.625 25.6172 28.75C25.6172 31.2031 28.6406 33.125 32.4922 33.125C36.3438 33.125 39.3672 31.2031 39.3672 28.75C39.375 28.625 39.3281 28.5234 39.2735 28.4219ZM32.5 19.9297L37.625 28.125H27.375L32.5 19.9297ZM32.5 31.875C29.8359 31.875 27.5313 30.7812 26.9922 29.375H38.0078C37.4688 30.7812 35.1641 31.875 32.5 31.875Z" fill="#353846"/>
<path d="M14.2734 28.4219L14.2812 28.4141L8.5 19.1641C8.50781 19.1641 8.50781 19.1562 8.51562 19.1562C8.46094 19.1172 8.42969 19.0547 8.40625 19C8.39844 19 8.39844 18.9922 8.39062 18.9922C8.35938 18.9609 8.33594 18.9297 8.32031 18.8906C8.23438 18.8203 8.19531 18.7187 8.1875 18.6172C8.17969 18.5859 8.17188 18.5625 8.16406 18.5312C8.14844 18.5078 8.13281 18.4844 8.125 18.4531C8.05469 18.3906 8.00781 18.3047 8 18.2109C7.96875 18.1719 7.95312 18.125 7.9375 18.0703C7.9375 18.0625 7.92969 18.0625 7.92969 18.0547C7.79688 18.1016 7.65625 18.1328 7.50781 18.1328C7.40625 18.1328 7.30469 18.1172 7.21094 18.0938C7.19531 18.125 7.17188 18.1484 7.14062 18.1641C7.125 18.2266 7.09375 18.2734 7.04688 18.3203C7.03125 18.3984 6.99219 18.4766 6.9375 18.5312C6.91406 18.5781 6.875 18.6172 6.83594 18.6484C6.82031 18.6875 6.79688 18.7187 6.77344 18.75C6.75781 18.7969 6.72656 18.8437 6.6875 18.8828C6.66406 18.9531 6.625 19.0156 6.5625 19.0625C6.55469 19.0781 6.54688 19.0859 6.53906 19.1016C6.52344 19.125 6.51562 19.1484 6.49219 19.1641C6.5 19.1641 6.50781 19.1719 6.50781 19.1719L0.726563 28.4219L0.734375 28.4297C0.671875 28.5234 0.625 28.625 0.625 28.75C0.625 31.2031 3.64844 33.125 7.5 33.125C11.3516 33.125 14.375 31.2031 14.375 28.75C14.375 28.625 14.3281 28.5234 14.2734 28.4219ZM7.5 19.9297L12.625 28.125H2.375L7.5 19.9297ZM7.5 31.875C4.83594 31.875 2.53125 30.7812 1.99219 29.375H13.0078C12.4688 30.7812 10.1641 31.875 7.5 31.875Z" fill="#353846"/>
</svg>
