<svg width="65" height="65" viewBox="0 0 65 65" fill="none" xmlns="http://www.w3.org/2000/svg">
<path d="M55.2373 37.8576L54.9361 38.0201C53.7197 36.5439 51.6121 35.9718 50.0064 36.7856C50.0007 36.7884 49.995 36.7914 49.9894 36.7943L49.2785 37.1771C48.4306 36.4592 47.3819 36.0203 46.2755 35.9203C45.169 35.8204 44.0587 36.0642 43.0959 36.6185L39.2676 38.7005H34.1735C33.0704 38.6991 31.9818 38.4496 30.9882 37.9707L30.2874 37.6317C28.2923 36.661 26.0675 36.2613 23.8592 36.477C21.651 36.6926 19.5455 37.5152 17.7759 38.8536C17.7593 38.8663 17.7431 38.879 17.7276 38.8934L16.0357 40.3995C15.3963 40.9674 14.6405 41.3887 13.8212 41.6339L12.8603 38.4796C12.8127 38.3235 12.7162 38.1868 12.585 38.0897C12.4539 37.9925 12.295 37.9401 12.1317 37.9401H3.94923C3.84142 37.9401 3.73483 37.963 3.63653 38.0072C3.53822 38.0515 3.45042 38.1161 3.37895 38.1968C3.30748 38.2775 3.25395 38.3725 3.22191 38.4754C3.18987 38.5784 3.18005 38.6869 3.1931 38.794L5.92056 61.158C5.94307 61.3427 6.03241 61.5128 6.1717 61.6361C6.311 61.7595 6.49063 61.8276 6.67669 61.8276H18.9498C19.0688 61.8276 19.1862 61.7997 19.2925 61.7461C19.3988 61.6926 19.4911 61.6148 19.5619 61.5192C19.6327 61.4235 19.6802 61.3126 19.7004 61.1953C19.7206 61.078 19.7131 60.9576 19.6783 60.8437L18.066 55.5531L23.0875 52.3792C23.7594 52.0075 24.5477 51.9055 25.2921 52.094C25.3078 52.0979 25.3237 52.1015 25.3397 52.1042L35.5542 53.9852C38.3301 54.4819 41.1921 54.0778 43.722 52.8319C43.7543 52.816 43.7855 52.7978 43.8152 52.7773L61.4825 40.6467C61.6425 40.5368 61.7546 40.37 61.7957 40.1802C61.8369 39.9905 61.804 39.7922 61.7039 39.6259C61.061 38.5552 60.0299 37.7738 58.8253 37.4444C57.6207 37.115 56.3355 37.263 55.2373 37.8576ZM50.7029 38.1404C51.6316 37.6754 52.8007 38.0566 53.5474 38.7692L46.8478 42.3836L46.4543 42.5909C46.2421 41.9885 45.9321 41.4253 45.5367 40.9239L50.7029 38.1404ZM43.8331 37.9519C43.839 37.9485 43.8458 37.9452 43.8511 37.9416C44.4511 37.5948 45.1333 37.4153 45.8263 37.4218C46.5193 37.4283 47.1979 37.6206 47.7914 37.9787L44.3851 39.8126C43.7357 39.3387 42.9947 39.0052 42.2094 38.8335L43.8331 37.9519ZM7.35056 60.3041L4.80959 39.4635H11.5672L17.9212 60.3041H7.35056ZM42.997 51.4897C40.7726 52.5724 38.262 52.9213 35.8268 52.486L25.6374 50.6096C24.5166 50.3329 23.3325 50.4934 22.3258 51.0584C22.314 51.0649 22.3022 51.072 22.2907 51.0793L17.6042 54.0421L14.2653 43.0922C15.2949 42.7819 16.2444 42.2509 17.0477 41.5362L18.7158 40.0508C20.2612 38.8889 22.0973 38.1762 24.0219 37.9911C25.9465 37.8059 27.8848 38.1556 29.6233 39.0015L30.324 39.3405C31.5246 39.9192 32.8398 40.2205 34.1726 40.2223H40.9677C41.9663 40.2237 42.9333 40.5729 43.7024 41.2097C44.4716 41.8466 44.9949 42.7314 45.1826 43.7123L40.2574 43.4895C38.467 43.409 36.6729 43.4919 34.8975 43.7371C34.6989 43.7666 34.52 43.8733 34.3997 44.0339C34.2793 44.1946 34.2273 44.3963 34.2548 44.5951C34.2823 44.7939 34.3872 44.9739 34.5467 45.0958C34.7062 45.2177 34.9074 45.2717 35.1064 45.2461C36.7898 45.0134 38.4909 44.9349 40.1885 45.0115L45.9847 45.2737C45.9962 45.2737 46.0078 45.2744 46.0192 45.2744C46.2212 45.2744 46.415 45.1942 46.5578 45.0513C46.7007 44.9085 46.7809 44.7147 46.7809 44.5127C46.7809 44.3894 46.7757 44.2673 46.7682 44.1458L47.5631 43.7269L55.9609 39.1977C56.6059 38.8484 57.3481 38.722 58.0723 38.8381C58.7965 38.9542 59.462 39.3062 59.9655 39.8396L42.997 51.4897Z" fill="#ADB5BD"/>
<path d="M9.77197 57.153C9.77197 57.6273 9.91262 58.091 10.1761 58.4854C10.4396 58.8797 10.8142 59.1871 11.2524 59.3686C11.6906 59.5501 12.1728 59.5976 12.638 59.5051C13.1032 59.4126 13.5305 59.1842 13.8659 58.8488C14.2012 58.5134 14.4296 58.0861 14.5222 57.6209C14.6147 57.1557 14.5672 56.6735 14.3857 56.2353C14.2042 55.7971 13.8968 55.4226 13.5025 55.159C13.1081 54.8955 12.6444 54.7549 12.1701 54.7549C11.5343 54.7556 10.9247 55.0085 10.4752 55.4581C10.0256 55.9076 9.77268 56.5172 9.77197 57.153ZM12.1701 56.2783C12.3431 56.2783 12.5122 56.3296 12.6561 56.4257C12.7999 56.5218 12.912 56.6585 12.9782 56.8183C13.0444 56.9781 13.0618 57.154 13.028 57.3237C12.9943 57.4933 12.911 57.6492 12.7886 57.7715C12.6663 57.8939 12.5104 57.9772 12.3408 58.0109C12.1711 58.0447 11.9952 58.0274 11.8354 57.9611C11.6755 57.8949 11.5389 57.7828 11.4428 57.639C11.3467 57.4951 11.2954 57.326 11.2954 57.153C11.2958 56.9212 11.3881 56.699 11.5521 56.5351C11.716 56.3711 11.9383 56.2789 12.1701 56.2786V56.2783Z" fill="#ADB5BD"/>
<path d="M38.292 11.4642V8.95408C38.2849 7.42532 37.6726 5.96162 36.589 4.88315C35.5055 3.80467 34.0389 3.19922 32.5102 3.19922C30.9814 3.19922 29.5148 3.80467 28.4313 4.88315C27.3478 5.96162 26.7354 7.42532 26.7283 8.95408V11.4642C26.7354 12.993 27.3478 14.4567 28.4313 15.5351C29.5148 16.6136 30.9814 17.2191 32.5102 17.2191C34.0389 17.2191 35.5055 16.6136 36.589 15.5351C37.6726 14.4567 38.2849 12.993 38.292 11.4642ZM28.2517 11.4642V8.95408C28.2579 7.82869 28.7092 6.7515 29.5072 5.9579C30.3051 5.16429 31.3848 4.71881 32.5102 4.71881C33.6356 4.71881 34.7152 5.16429 35.5132 5.9579C36.3111 6.7515 36.7625 7.82869 36.7686 8.95408V11.4642C36.7625 12.5896 36.3111 13.6668 35.5132 14.4604C34.7152 15.254 33.6356 15.6995 32.5102 15.6995C31.3848 15.6995 30.3051 15.254 29.5072 14.4604C28.7092 13.6668 28.2579 12.5896 28.2517 11.4642Z" fill="#ADB5BD"/>
<path d="M23.1903 32.9349H41.8298C42.0318 32.9349 42.2256 32.8547 42.3684 32.7118C42.5112 32.569 42.5915 32.3752 42.5915 32.1732V30.4248H55.3516C55.5536 30.4248 55.7473 30.3446 55.8902 30.2017C56.033 30.0589 56.1133 29.8651 56.1133 29.6631V24.719C56.1125 23.2683 55.5594 21.8723 54.5665 20.8146C53.5736 19.7569 52.2153 19.1168 50.7675 19.0244C50.3613 18.9946 50.1525 19.2518 49.9831 19.4584C49.6461 19.8701 49.2196 20.1995 48.736 20.4214C48.2524 20.6433 47.7245 20.7519 47.1926 20.7389C46.6607 20.7259 46.1388 20.5917 45.6666 20.3464C45.1944 20.1012 44.7845 19.7514 44.468 19.3237C44.3953 19.2252 44.2999 19.1458 44.19 19.092C44.08 19.0382 43.9588 19.0117 43.8364 19.0148C42.8469 19.037 41.8806 19.3189 41.0344 19.8322C40.4757 19.1826 39.7924 18.6517 39.0248 18.2709C38.2572 17.8902 37.4209 17.6674 36.5657 17.6158C36.1721 17.5998 35.9731 17.8387 35.7802 18.0728C35.3848 18.556 34.8843 18.9426 34.3168 19.203C33.7494 19.4635 33.1299 19.591 32.5057 19.5757C31.8815 19.5605 31.2691 19.4029 30.715 19.1151C30.1609 18.8272 29.6799 18.4167 29.3085 17.9147C29.2359 17.8162 29.1406 17.7366 29.0306 17.6829C28.9206 17.6291 28.7993 17.6027 28.6769 17.606C27.0065 17.6446 25.4179 18.3376 24.2533 19.5357C24.157 19.6341 24.0657 19.736 23.9767 19.8395C23.1902 19.3606 22.2988 19.0808 21.3797 19.0242C20.9748 18.9943 20.7645 19.2515 20.5952 19.4581C20.2582 19.8698 19.8317 20.1992 19.3481 20.4211C18.8646 20.6431 18.3367 20.7517 17.8048 20.7387C17.2729 20.7257 16.751 20.5914 16.2788 20.3462C15.8067 20.1009 15.3967 19.7511 15.0803 19.3234C15.0074 19.2251 14.912 19.1457 14.8021 19.092C14.6922 19.0382 14.571 19.0116 14.4487 19.0145C12.9608 19.0524 11.5466 19.67 10.5076 20.7357C9.46855 21.8013 8.88693 23.2307 8.88672 24.719V29.6631C8.88672 29.8651 8.96697 30.0589 9.10982 30.2017C9.25267 30.3446 9.44642 30.4248 9.64844 30.4248H22.4286V32.1732C22.4286 32.3752 22.5088 32.569 22.6517 32.7118C22.7945 32.8547 22.9883 32.9349 23.1903 32.9349ZM43.5112 20.5623C43.9808 21.0954 44.5582 21.5226 45.2052 21.8159C45.8522 22.1092 46.5541 22.2619 47.2645 22.2637C47.9749 22.2656 48.6776 22.1166 49.3262 21.8267C49.9747 21.5368 50.5544 21.1126 51.0268 20.582C52.0173 20.7315 52.9215 21.231 53.5752 21.99C54.2289 22.7491 54.5889 23.7173 54.5898 24.719V28.9014H42.5915V24.0148C42.5923 23.0005 42.351 22.0005 41.8876 21.0982C42.3853 20.808 42.9384 20.6254 43.5112 20.5623ZM28.3486 19.1525C28.8753 19.7622 29.5268 20.2517 30.259 20.5878C30.9912 20.924 31.7871 21.0989 32.5928 21.1008C33.3985 21.1027 34.1951 20.9316 34.929 20.5989C35.6628 20.2663 36.3166 19.7799 36.8461 19.1727C38.0157 19.3345 39.0874 19.9137 39.8634 20.8036C40.6394 21.6936 41.0675 22.8341 41.0686 24.0148V31.4115H23.952V24.0148C23.9596 22.8058 24.4119 21.6418 25.2229 20.745C26.0338 19.8482 27.1465 19.2814 28.3486 19.1525ZM10.4102 28.9014V24.719C10.4166 23.6927 10.7975 22.7041 11.4814 21.9388C12.1652 21.1735 13.1049 20.6842 14.124 20.5628C14.5937 21.0957 15.171 21.5228 15.818 21.816C16.4649 22.1092 17.1667 22.2617 17.877 22.2635C18.5872 22.2653 19.2898 22.1164 19.9382 21.8265C20.5867 21.5367 21.1662 21.1125 21.6385 20.582C22.163 20.6604 22.6676 20.8385 23.1251 21.1066C22.6659 22.0072 22.4271 23.0039 22.4286 24.0148V28.9014H10.4102Z" fill="#ADB5BD"/>
<path d="M52.3497 13.7339V11.5367C52.3497 10.1693 51.8065 8.85787 50.8396 7.89096C49.8727 6.92406 48.5613 6.38086 47.1939 6.38086C45.8265 6.38086 44.5151 6.92406 43.5482 7.89096C42.5813 8.85787 42.0381 10.1693 42.0381 11.5367V13.7339C42.0381 15.1013 42.5813 16.4127 43.5482 17.3796C44.5151 18.3465 45.8265 18.8897 47.1939 18.8897C48.5613 18.8897 49.8727 18.3465 50.8396 17.3796C51.8065 16.4127 52.3497 15.1013 52.3497 13.7339ZM43.5615 13.7339V11.5367C43.5615 10.5733 43.9442 9.6494 44.6254 8.9682C45.3066 8.28699 46.2305 7.9043 47.1939 7.9043C48.1573 7.9043 49.0812 8.28699 49.7624 8.9682C50.4436 9.6494 50.8263 10.5733 50.8263 11.5367V13.7339C50.8263 14.6972 50.4436 15.6211 49.7624 16.3023C49.0812 16.9835 48.1573 17.3662 47.1939 17.3662C46.2305 17.3662 45.3066 16.9835 44.6254 16.3023C43.9442 15.6211 43.5615 14.6972 43.5615 13.7339Z" fill="#ADB5BD"/>
<path d="M22.962 13.7339V11.5367C22.962 10.8596 22.8287 10.1892 22.5696 9.56363C22.3105 8.9381 21.9307 8.36973 21.4519 7.89096C20.9732 7.4122 20.4048 7.03243 19.7793 6.77332C19.1537 6.51422 18.4833 6.38086 17.8062 6.38086C17.1291 6.38086 16.4587 6.51422 15.8332 6.77332C15.2076 7.03243 14.6393 7.4122 14.1605 7.89096C13.6817 8.36973 13.302 8.9381 13.0429 9.56363C12.7837 10.1892 12.6504 10.8596 12.6504 11.5367V13.7339C12.6504 14.4109 12.7837 15.0814 13.0429 15.7069C13.302 16.3324 13.6817 16.9008 14.1605 17.3796C14.6393 17.8583 15.2076 18.2381 15.8332 18.4972C16.4587 18.7563 17.1291 18.8897 17.8062 18.8897C18.4833 18.8897 19.1537 18.7563 19.7793 18.4972C20.4048 18.2381 20.9732 17.8583 21.4519 17.3796C21.9307 16.9008 22.3105 16.3324 22.5696 15.7069C22.8287 15.0814 22.962 14.4109 22.962 13.7339ZM14.1738 13.7339V11.5367C14.1738 10.5733 14.5565 9.6494 15.2377 8.9682C15.9189 8.28699 16.8428 7.9043 17.8062 7.9043C18.7696 7.9043 19.6935 8.28699 20.3747 8.9682C21.0559 9.6494 21.4386 10.5733 21.4386 11.5367V13.7339C21.4386 14.2109 21.3446 14.6832 21.1621 15.1239C20.9795 15.5646 20.712 15.965 20.3747 16.3023C20.0374 16.6396 19.637 16.9072 19.1963 17.0897C18.7556 17.2723 18.2832 17.3662 17.8062 17.3662C17.3292 17.3662 16.8569 17.2723 16.4162 17.0897C15.9755 16.9072 15.575 16.6396 15.2377 16.3023C14.9004 15.965 14.6329 15.5646 14.4503 15.1239C14.2678 14.6832 14.1738 14.2109 14.1738 13.7339Z" fill="#ADB5BD"/>
</svg>
