<svg width="40" height="40" viewBox="0 0 40 40" fill="none" xmlns="http://www.w3.org/2000/svg">
<path d="M39.4141 14.7008C39.7377 14.7008 40 14.4384 40 14.1148V8.2875C40 8.28391 39.9991 8.28063 39.9988 8.27711C39.9962 8.12828 39.9379 7.98266 39.8284 7.87313L32.1269 0.171563C32.0173 0.0619531 31.8716 0.00375 31.7227 0.00109375C31.7192 0.000859375 31.7159 0 31.7125 0H12.4617C10.605 0 9.09453 1.51055 9.09453 3.36719V18.5477H3.66719C3.34352 18.5477 3.08125 18.81 3.08125 19.1336C3.08125 19.4572 3.34352 19.7195 3.66719 19.7195H5.42367C5.15641 21.9396 3.39188 23.7042 1.17188 23.9716V21.043C1.17188 20.6184 1.3775 20.217 1.7218 19.9695C1.98445 19.7805 2.04437 19.4144 1.85539 19.1516C1.66648 18.8888 1.30023 18.8291 1.03758 19.018C0.387891 19.4853 0 20.2423 0 21.043V34.4672C0 35.8431 1.11938 36.9625 2.49531 36.9625H9.11086C9.27711 38.665 10.7163 40 12.4616 40H36.6328C38.4895 40 40 38.4895 40 36.6328V16.4586C40 16.135 39.7377 15.8727 39.4141 15.8727C39.0904 15.8727 38.8281 16.135 38.8281 16.4586V36.6328C38.8281 37.8433 37.8434 38.8281 36.6328 38.8281H12.4617C11.3633 38.8281 10.4508 38.0172 10.2913 36.9625H27.0773C28.4533 36.9625 29.5727 35.8431 29.5727 34.4672V21.043C29.5727 19.667 28.4533 18.5477 27.0773 18.5477H10.2664V3.36719C10.2664 2.15672 11.2512 1.17188 12.4617 1.17188H31.1266V5.50625C31.1266 7.36289 32.637 8.87344 34.4937 8.87344H38.8281V14.1148C38.8281 14.4384 39.0904 14.7008 39.4141 14.7008ZM6.60312 19.7195H22.9691C23.2461 22.5867 25.5336 24.8741 28.4008 25.1511V30.3591C25.5335 30.6361 23.2461 32.9235 22.9691 35.7907H6.60312C6.32617 32.9237 4.03891 30.6362 1.17188 30.3591V25.1511C4.03891 24.874 6.32617 22.5866 6.60312 19.7195ZM1.17188 34.4672V31.5386C3.39188 31.8059 5.15648 33.5706 5.42367 35.7907H2.49531C1.76562 35.7906 1.17188 35.197 1.17188 34.4672ZM27.0773 35.7906H24.1486C24.4159 33.5705 26.1806 31.8057 28.4008 31.5385V34.4672C28.4008 35.197 27.8071 35.7906 27.0773 35.7906ZM28.4008 21.043V23.9716C26.1806 23.7045 24.4159 21.9397 24.1486 19.7195H27.0773C27.8071 19.7195 28.4008 20.3132 28.4008 21.043ZM34.4937 7.70156C33.2833 7.70156 32.2984 6.71672 32.2984 5.50625V2.00055L37.9995 7.70156H34.4937Z" fill="#353846"/>
<path d="M14.7868 34.3763C18.4375 34.3763 21.4076 31.4063 21.4076 27.7555C21.4076 24.1048 18.4375 21.1348 14.7868 21.1348C11.1361 21.1348 8.16602 24.1048 8.16602 27.7555C8.16602 31.4063 11.136 34.3763 14.7868 34.3763ZM14.7868 22.3066C17.7913 22.3066 20.2357 24.751 20.2357 27.7555C20.2357 30.7601 17.7913 33.2045 14.7868 33.2045C11.7823 33.2045 9.33789 30.7601 9.33789 27.7555C9.33789 24.751 11.7823 22.3066 14.7868 22.3066Z" fill="#353846"/>
<path d="M14.3008 5.68848H25.0044C25.3281 5.68848 25.5904 5.42614 25.5904 5.10254C25.5904 4.77895 25.3281 4.5166 25.0044 4.5166H14.3008C13.9771 4.5166 13.7148 4.77895 13.7148 5.10254C13.7148 5.42614 13.9771 5.68848 14.3008 5.68848Z" fill="#353846"/>
<path d="M14.3008 8.18262H28.5377C28.8613 8.18262 29.1236 7.92027 29.1236 7.59668C29.1236 7.27309 28.8613 7.01074 28.5377 7.01074H14.3008C13.9771 7.01074 13.7148 7.27309 13.7148 7.59668C13.7148 7.92027 13.9771 8.18262 14.3008 8.18262Z" fill="#353846"/>
<path d="M35.0845 12.7764H14.3008C13.9771 12.7764 13.7148 13.0387 13.7148 13.3623C13.7148 13.6859 13.9771 13.9482 14.3008 13.9482H35.0845C35.4082 13.9482 35.6705 13.6859 35.6705 13.3623C35.6705 13.0387 35.4081 12.7764 35.0845 12.7764Z" fill="#353846"/>
<path d="M35.0845 15.6621H14.3008C13.9771 15.6621 13.7148 15.9245 13.7148 16.248C13.7148 16.5716 13.9771 16.834 14.3008 16.834H35.0845C35.4082 16.834 35.6705 16.5716 35.6705 16.248C35.6705 15.9245 35.4081 15.6621 35.0845 15.6621Z" fill="#353846"/>
<path d="M15.3 28.1909C16.2834 28.1909 17.1 27.4616 17.1 26.5455C17.1 25.6293 16.2834 24.9 15.3 24.9L15.2891 24.9002H13.9004L13.9 24.9002C13.6883 24.9002 13.5 25.0583 13.5 25.2729V25.2729V27.8182V28.5364H13.3C13.0883 28.5364 12.9 28.6945 12.9 28.9091C12.9 29.1237 13.0883 29.2818 13.3 29.2818H13.5V30.7273C13.5 30.9419 13.6883 31.1 13.9 31.1C14.1117 31.1 14.3 30.9419 14.3 30.7273V29.2818H15.3C15.5117 29.2818 15.7 29.1237 15.7 28.9091C15.7 28.6945 15.5117 28.5364 15.3 28.5364H14.3V28.1909H15.3ZM15.3 25.6456L15.3096 25.6455C15.8656 25.6502 16.3 26.0608 16.3 26.5455C16.3 27.0329 15.8605 27.4455 15.3 27.4455H14.3V25.6456H15.3Z" fill="#353846" stroke="#353846" stroke-width="0.2"/>
</svg>
