<svg width="40" height="40" viewBox="0 0 40 40" fill="none" xmlns="http://www.w3.org/2000/svg">
<g clip-path="url(#clip0)">
<path d="M38.5638 33.1494V30.8865C38.5638 30.368 38.143 29.9463 37.6258 29.9463H19.4531C18.9139 29.9463 18.4753 30.385 18.4753 30.9242V33.0627H12.5423C12.2188 33.0627 11.9565 33.325 11.9565 33.6486C11.9565 33.9721 12.2188 34.2344 12.5423 34.2344H19.0613H37.978C38.4473 34.2344 38.8291 34.6154 38.8291 35.0838V36.9598C38.8291 37.4294 38.4473 37.8114 37.978 37.8114H2.02656C1.55836 37.8114 1.17758 37.4294 1.17758 36.9598V35.0838C1.17758 34.6154 1.55836 34.2344 2.02656 34.2344H9.83641C10.16 34.2344 10.4223 33.9721 10.4223 33.6486C10.4223 33.325 10.16 33.0627 9.83641 33.0627H2.02656C0.912344 33.0627 0.00585938 33.9693 0.00585938 35.0838V36.9598C0.00585938 38.0755 0.912344 38.9832 2.02656 38.9832H37.9779C39.0934 38.9832 40.0009 38.0755 40.0009 36.9598V35.0838C40.0009 34.1729 39.3944 33.4011 38.5638 33.1494ZM19.647 33.0627V31.1181H37.392V33.0627H19.647Z" fill="#353846"/>
<path d="M2.14405 31.0611C2.33007 31.099 2.51983 31.1175 2.70991 31.1175C3.32913 31.1175 3.95085 30.9206 4.44905 30.5546L17.3095 21.1305C17.5866 21.5063 17.9943 21.7527 18.4587 21.8239C18.5497 21.8379 18.6405 21.8448 18.7308 21.8448C19.1026 21.8448 19.4625 21.7277 19.7652 21.5047L21.0053 20.5965C21.6682 21.2588 22.3662 21.8995 23.1005 22.5171C22.8566 23.039 22.8967 23.675 23.2608 24.1727L23.5451 24.5584C23.8765 25.0118 24.3665 25.3089 24.9247 25.395C25.0343 25.412 25.1438 25.4203 25.2526 25.4203C25.6977 25.4203 26.1288 25.2802 26.4923 25.0131L33.6176 19.7905C34.5555 19.1038 34.7603 17.7818 34.0744 16.8435C34.0744 16.8434 34.0742 16.8432 34.074 16.843L33.7878 16.4524C33.5314 16.1036 33.1534 15.875 32.7234 15.8087C32.568 15.7846 32.413 15.7837 32.2619 15.8033C30.2788 11.0183 27.3547 7.02329 23.5608 3.91376C23.8005 3.39353 23.7591 2.76142 23.3971 2.26673L23.1131 1.87837C22.7806 1.42556 22.2907 1.12884 21.7335 1.04282C21.1756 0.956728 20.6189 1.09251 20.1666 1.42478L13.0383 6.64798C12.1008 7.33665 11.8976 8.65892 12.5835 9.59321L12.8688 9.98563C13.1876 10.419 13.6825 10.6488 14.1837 10.6488C14.2514 10.6488 14.3191 10.6434 14.3866 10.635C14.7408 11.5204 15.1366 12.3847 15.5738 13.2268L14.3565 14.1206C13.9783 14.3974 13.7305 14.8066 13.6585 15.2726C13.587 15.7364 13.699 16.1992 13.9735 16.577L9.73053 19.6868C9.4696 19.8781 9.41303 20.2447 9.60436 20.5057C9.79553 20.7666 10.1623 20.8231 10.4232 20.632L14.6648 17.5231L16.6162 20.1859L3.75585 29.6099C3.36632 29.896 2.85132 30.0093 2.37788 29.913C1.98647 29.8333 1.66843 29.6165 1.48202 29.3023C1.04655 28.5693 1.01764 27.5256 1.80507 26.9488L8.29296 22.1934C8.55389 22.0021 8.61046 21.6355 8.41913 21.3745C8.22788 21.1134 7.86108 21.057 7.6003 21.2482L1.11257 26.0035C-0.0796988 26.8768 -0.34798 28.5158 0.474442 29.9003C0.831473 30.5023 1.42444 30.9145 2.14405 31.0611ZM32.8433 17.1456L33.1287 17.535C33.4334 17.9521 33.3423 18.5397 32.9253 18.8451L25.7992 24.0682C25.599 24.2153 25.3518 24.2751 25.1034 24.2368C24.855 24.1984 24.6376 24.067 24.4898 23.8649L24.2052 23.4789C24.0565 23.2757 24.101 22.9892 24.3047 22.8401L32.2084 17.0474C32.2855 16.9907 32.3775 16.961 32.4731 16.961C32.4969 16.961 32.5208 16.9628 32.5448 16.9666C32.6663 16.9853 32.7725 17.0491 32.8433 17.1456ZM31.21 16.3264L23.9166 21.6717C20.0474 18.4339 17.1987 14.5503 15.4413 10.1169L22.7476 4.76212C26.4445 7.77227 29.2886 11.6591 31.21 16.3264ZM13.8147 9.29392L13.5297 8.90181C13.2243 8.48595 13.3151 7.89845 13.7314 7.59259L20.8598 2.36938C21.0204 2.25134 21.2112 2.18954 21.4085 2.18954C21.4569 2.18954 21.5058 2.19329 21.5548 2.20087C21.803 2.23923 22.0211 2.37095 22.168 2.57095L22.4515 2.95852C22.4515 2.9586 22.4515 2.9586 22.4516 2.95868C22.5907 3.14868 22.5621 3.41056 22.3931 3.56548C22.3868 3.57056 22.3806 3.57571 22.3745 3.5811C22.3679 3.58657 22.3615 3.59235 22.3544 3.59751L14.4517 9.38938C14.4414 9.39688 14.4308 9.4036 14.42 9.41017C14.418 9.41142 14.4162 9.41267 14.4143 9.41392C14.217 9.52954 13.9506 9.47884 13.8147 9.29392ZM14.8166 15.4511C14.8408 15.2946 14.9232 15.1578 15.0493 15.0655L16.1405 14.2643C17.2596 16.2201 18.6095 18.0505 20.184 19.7456L19.0716 20.5602C18.9469 20.6521 18.7923 20.6898 18.6364 20.6657C18.4799 20.6417 18.343 20.5592 18.2508 20.4332L14.9227 15.8904C14.8301 15.764 14.7924 15.608 14.8166 15.4511Z" fill="#353846"/>
</g>
<defs>
<clipPath id="clip0">
<rect width="40" height="40" fill="white"/>
</clipPath>
</defs>
</svg>
