<svg width="20" height="21" viewBox="0 0 20 21" fill="none" xmlns="http://www.w3.org/2000/svg">
<path fill-rule="evenodd" clip-rule="evenodd" d="M10.6472 1.29412H10.0002H9.35311V0H10.6472V1.29412ZM10.0002 1.29412C6.07641 1.29412 2.88253 4.55788 2.88253 8.57094V12.8312C2.88253 15.2041 1.24177 16.925 1.17864 16.9912L1.17688 16.9931L0.0859375 18.0969H19.9597L18.8157 16.9853C18.7976 16.9685 17.1178 15.3107 17.1178 12.8312V8.57094C17.1178 4.55788 13.9239 1.29412 10.0002 1.29412ZM4.17664 12.8312C4.17664 14.52 3.52441 15.9073 2.94982 16.8028H17.0376C16.4643 15.9151 15.8237 14.5394 15.8237 12.8312V8.57094C15.8237 5.27224 13.2109 2.58824 10.0002 2.58824C6.78947 2.58824 4.17664 5.27224 4.17664 8.57094V12.8312ZM11.9413 18.1176H10.6472C10.6472 18.4748 10.3561 18.7647 10.0002 18.7647C9.64429 18.7647 9.35311 18.4748 9.35311 18.1176H8.059C8.059 19.1879 8.92994 20.0588 10.0002 20.0588C11.0704 20.0588 11.9413 19.1879 11.9413 18.1176Z" fill="#697E8D"/>
</svg>
