<svg width="65" height="65" viewBox="0 0 65 65" fill="none" xmlns="http://www.w3.org/2000/svg">
<path d="M43.4121 41.6859C41.872 41.6859 40.6191 40.6015 40.6191 39.2686C40.6191 37.9356 41.872 36.8512 43.4121 36.8512C44.9522 36.8512 46.2051 37.9356 46.2051 39.2686C46.2051 39.9697 46.7736 40.5381 47.4746 40.5381C48.1756 40.5381 48.7441 39.9697 48.7441 39.2686C48.7441 36.9422 47.0107 34.9861 44.6816 34.4552V33.7949C44.6816 33.0939 44.1131 32.5254 43.4121 32.5254C42.7111 32.5254 42.1426 33.0939 42.1426 33.7949V34.4552C39.8135 34.9861 38.0801 36.9422 38.0801 39.2686C38.0801 42.0015 40.472 44.225 43.4121 44.225C44.9522 44.225 46.2051 45.3094 46.2051 46.6424C46.2051 47.9754 44.9522 49.0599 43.4121 49.0599C41.872 49.0599 40.6191 47.9754 40.6191 46.6424C40.6191 45.9414 40.0506 45.3729 39.3496 45.3729C38.6486 45.3729 38.0801 45.9414 38.0801 46.6424C38.0801 48.9688 39.8135 50.9249 42.1426 51.4558V52.0043C42.1426 52.7053 42.7111 53.2738 43.4121 53.2738C44.1131 53.2738 44.6816 52.7053 44.6816 52.0043V51.4558C47.0107 50.9249 48.7441 48.9688 48.7441 46.6424C48.7441 43.9094 46.3522 41.6859 43.4121 41.6859Z" fill="#ADB5BD"/>
<path d="M57.317 34.1346C55.6586 31.5505 53.3222 29.4827 50.5603 28.155C49.9282 27.8511 49.1697 28.1172 48.866 28.7491C48.5622 29.3811 48.8282 30.1395 49.4602 30.4433C54.2731 32.7569 57.3828 37.7003 57.3828 43.0372C57.3828 45.3208 56.8199 47.5855 55.7551 49.5868C55.4258 50.2057 55.6605 50.9745 56.2796 51.3039C56.4695 51.4049 56.6736 51.4529 56.8747 51.4529C57.3289 51.4529 57.7683 51.2084 57.9966 50.7794C59.2561 48.4125 59.9218 45.7352 59.9218 43.0372C59.9218 39.8684 59.0211 36.79 57.317 34.1346Z" fill="#ADB5BD"/>
<path d="M45.4076 26.5333L45.3221 26.5332C44.6211 26.5332 44.0526 27.1016 44.0526 27.8027C44.0526 28.5039 44.6211 29.0723 45.3221 29.0723L45.3957 29.0724C45.3977 29.0724 45.3996 29.0724 45.4017 29.0724C46.1001 29.0724 46.6679 28.508 46.6712 27.8088C46.6743 27.1077 46.1086 26.5366 45.4076 26.5333Z" fill="#ADB5BD"/>
<path d="M37.3759 55.6306C32.5631 53.3169 29.4534 48.3735 29.4534 43.0368C29.4534 40.7531 30.0163 38.4884 31.081 36.4871C31.4103 35.8683 31.1756 35.0994 30.5566 34.7701C29.9378 34.4408 29.1687 34.6755 28.8395 35.2946C27.58 37.6616 26.9143 40.3388 26.9143 43.0368C26.9143 46.2055 27.815 49.2839 29.5191 51.9393C31.1775 54.5235 33.514 56.5913 36.2758 57.9191C36.4532 58.0044 36.6405 58.0446 36.825 58.0446C37.2978 58.0446 37.7515 57.7794 37.9701 57.3249C38.2737 56.693 38.0078 55.9344 37.3759 55.6306Z" fill="#ADB5BD"/>
<path d="M41.5138 57.0017L41.4403 57.0015C40.736 57.0002 40.1682 57.5637 40.1651 58.265C40.1618 58.9662 40.7277 59.5372 41.4287 59.5405L41.5138 59.5408C42.2148 59.5408 42.7833 58.9723 42.7833 58.2713C42.7833 57.5702 42.2148 57.0017 41.5138 57.0017Z" fill="#ADB5BD"/>
<path d="M49.1827 22.2381C49.0282 21.8699 48.8389 21.523 48.6186 21.2011H51.9237C55.1438 21.2011 57.7636 18.5813 57.7636 15.3613C57.7636 12.1413 55.1438 9.52147 51.9237 9.52147H41.7573C42.4037 8.58176 42.7831 7.4449 42.7831 6.22069C42.7831 3.00066 40.1633 0.380859 36.9433 0.380859H5.83983C2.6198 0.380859 0 3.00066 0 6.22069C0 9.44073 2.6198 12.0605 5.83983 12.0605H16.0062C15.3599 13.0002 14.9804 14.1371 14.9804 15.3613C14.9804 16.5855 15.3598 17.7224 16.0062 18.6621H12.6953C9.47526 18.6621 6.85546 21.2819 6.85546 24.5019C6.85546 26.3512 7.72051 28.0015 9.06634 29.0722C7.72051 30.1429 6.85546 31.7932 6.85546 33.6425C6.85546 35.4918 7.72051 37.1421 9.06634 38.2128C7.72051 39.2835 6.85546 40.9338 6.85546 42.7831C6.85546 44.6324 7.72051 46.2827 9.06634 47.3534C7.72051 48.4241 6.85546 50.0744 6.85546 51.9237C6.85546 55.1438 9.47526 57.7636 12.6953 57.7636H27.6567C31.5981 61.9793 37.2051 64.6191 43.418 64.6191C55.3183 64.6191 65 54.9375 65 43.0372C65 33.1327 58.2931 24.7663 49.1827 22.2381ZM51.9237 12.0605C53.7439 12.0605 55.2245 13.5413 55.2245 15.3613C55.2245 17.1813 53.7439 18.6621 51.9237 18.6621H43.7987H20.8203C19.0002 18.6621 17.5195 17.1813 17.5195 15.3613C17.5195 13.5413 19.0002 12.0605 20.8203 12.0605H51.9237ZM5.83983 9.52147C4.01971 9.52147 2.53906 8.04069 2.53906 6.22069C2.53906 4.4007 4.01971 2.91992 5.83983 2.91992H36.9433C38.7634 2.91992 40.2441 4.4007 40.2441 6.22069C40.2441 8.04069 38.7634 9.52147 36.9433 9.52147H5.83983ZM12.6953 21.2011H43.7987C44.3101 21.2011 44.7998 21.32 45.239 21.5327C44.6385 21.4823 44.0315 21.4552 43.418 21.4552C37.4582 21.4552 32.0551 23.8836 28.1457 27.8027H12.6953C10.8753 27.8027 9.39451 26.3219 9.39451 24.5019C9.39451 22.6819 10.8753 21.2011 12.6953 21.2011ZM12.6953 30.3417H25.9765C24.5353 32.3162 23.421 34.5432 22.7134 36.9433H12.6953C10.8752 36.9433 9.39451 35.4626 9.39451 33.6425C9.39451 31.8225 10.8752 30.3417 12.6953 30.3417ZM12.6953 39.4823H22.1304C21.9378 40.6393 21.836 41.8264 21.836 43.0372C21.836 44.0713 21.9108 45.0882 22.0521 46.0839H12.6953C10.8752 46.0839 9.39451 44.6032 9.39451 42.7831C9.39451 40.963 10.8752 39.4823 12.6953 39.4823ZM12.6953 55.2245C10.8752 55.2245 9.39451 53.7439 9.39451 51.9237C9.39451 50.1036 10.8752 48.623 12.6953 48.623H22.5704C23.2111 51.0113 24.2517 53.2372 25.6164 55.2245H12.6953ZM43.418 62.0801C32.9177 62.0801 24.3751 53.5374 24.3751 43.0372C24.3751 32.5369 32.9177 23.9942 43.418 23.9942C53.9183 23.9942 62.4609 32.5369 62.4609 43.0372C62.4609 53.5374 53.9183 62.0801 43.418 62.0801Z" fill="#ADB5BD"/>
</svg>
