<svg width="12" height="12" viewBox="0 0 12 12" fill="none" xmlns="http://www.w3.org/2000/svg">
<g clip-path="url(#clip0)">
<path d="M6.15112 0.00250112C3.71416 -0.0796255 1.71289 1.87139 1.71289 4.28979C1.71289 7.03441 4.34678 9.02627 5.82308 11.8908C5.89803 12.0363 6.1074 12.0365 6.18261 11.891C7.51814 9.31351 9.80072 7.58514 10.2237 5.10199C10.6617 2.53242 8.75623 0.0903287 6.15112 0.00250112ZM6.00264 6.53679C4.76167 6.53679 3.75564 5.53073 3.75564 4.28979C3.75564 3.04885 4.76169 2.04279 6.00264 2.04279C7.2436 2.04279 8.24966 3.04885 8.24966 4.28979C8.24966 5.53073 7.2436 6.53679 6.00264 6.53679Z" fill="#FF8508"/>
</g>
<defs>
<clipPath id="clip0">
<rect width="12" height="12" fill="white"/>
</clipPath>
</defs>
</svg>
