<svg width="85" height="85" viewBox="0 0 85 85" fill="none" xmlns="http://www.w3.org/2000/svg">
<path fill-rule="evenodd" clip-rule="evenodd" d="M42.4981 3.81689C52.7441 3.81689 62.5705 7.88939 69.8156 15.1385C77.0607 22.3876 81.1309 32.2195 81.1309 42.4712C81.1309 50.1163 78.8651 57.5898 74.6201 63.9464C70.3751 70.3031 64.3415 75.2576 57.2822 78.1832C50.223 81.1089 42.4552 81.8744 34.9612 80.3829C27.4672 78.8914 20.5835 75.2099 15.1806 69.804C9.77765 64.3981 6.09823 57.5106 4.60757 50.0124C3.11691 42.5141 3.88197 34.742 6.806 27.6789C9.73002 20.6157 14.6817 14.5787 21.0348 10.3313C27.388 6.08393 34.8572 3.81689 42.4981 3.81689Z" fill="#FF8508" stroke="white" stroke-width="1.4498"/>
<path fill-rule="evenodd" clip-rule="evenodd" d="M25.7353 45.3972C25.7353 44.8145 25.4531 43.7486 24.6154 43.6849C22.8949 43.5664 22.6034 43.8852 22.6034 43.8852V47.4197C22.6034 47.4197 23.7232 47.5744 24.6883 47.4017C25.1617 47.3194 25.7353 46.9458 25.7353 45.3972ZM24.6338 47.8934C23.7232 48.021 21.9844 47.8841 21.9844 47.8841V41.0522H25.5075L25.6168 41.5533H22.6034V43.4479H22.658C22.658 43.4479 23.3046 43.1019 24.6154 43.2018C25.3803 43.2659 26.3545 43.8125 26.3545 45.4066C26.3545 47.0737 25.6896 47.7384 24.6338 47.8934Z" fill="white"/>
<path fill-rule="evenodd" clip-rule="evenodd" d="M28.1562 41.5533V43.9672H30.8692L30.751 44.4682H28.1562V47.4197H31.4976V47.8841H27.5371V41.0522H31.4519L31.3611 41.5533H28.1562Z" fill="white"/>
<path fill-rule="evenodd" clip-rule="evenodd" d="M37.3229 41.052V47.8839H36.7038V41.5348C36.7038 41.5348 35.52 41.4162 34.8101 41.5258C34.455 41.5802 34.1092 41.9538 33.9541 42.2635C33.9541 42.2635 33.3078 43.6299 33.3078 46.6638C33.3078 47.611 33.3078 47.8839 33.3078 47.8839H32.6797C32.6797 47.8839 32.6797 47.5014 32.6797 46.6638C32.6797 43.5389 33.3716 42.1544 33.3806 42.1544C33.6264 41.6168 34.2002 41.0974 34.8101 41.0244C35.5931 40.9338 37.3229 41.052 37.3229 41.052Z" fill="white"/>
<path fill-rule="evenodd" clip-rule="evenodd" d="M43.9046 47.8838V41.0519H44.5239V47.8838H43.9046ZM42.5938 45.2421C42.5938 43.9303 42.0476 43.1288 40.9462 43.1288C39.6985 43.1288 39.3981 43.4293 39.3981 43.4293V46.3352C39.3981 46.8273 39.8717 47.4831 40.928 47.4831C41.9929 47.4831 42.5938 46.7908 42.5938 45.2421ZM43.222 45.2511C43.222 47.0641 42.4482 47.9475 40.9369 47.9475C39.7078 47.9475 38.7793 47.3008 38.7793 46.3352V41.1068L39.3981 40.9971V43.0289H39.4529C39.4529 43.0289 39.9171 42.637 40.9462 42.637C42.1295 42.637 43.222 43.229 43.222 45.2511Z" fill="white"/>
<path fill-rule="evenodd" clip-rule="evenodd" d="M50.4687 41.0519V47.8838H49.8498V42.3817H49.7954L46.5994 47.8838H45.9805V41.1068L46.5994 40.9971V46.5541H46.6635L49.8498 41.0519H50.4687Z" fill="white"/>
<path fill-rule="evenodd" clip-rule="evenodd" d="M26.6817 49.7085C27.6736 49.7085 28.5076 50.5894 28.5356 51.6877H27.6086C27.6086 51.1434 27.1912 50.6983 26.6817 50.6983H23.9008C23.3911 50.6983 22.974 51.1434 22.974 51.6877V54.6574C22.974 55.2016 23.3911 55.6468 23.9008 55.6468H26.6817C27.1912 55.6468 27.6086 55.2016 27.6086 54.6574H28.5356C28.5356 55.7064 27.7201 56.6366 26.6817 56.6366H23.9008C22.9092 56.6366 22.0469 55.7754 22.0469 54.6574V51.6877C22.0469 50.6192 22.8627 49.7383 23.9008 49.7085H26.6817Z" fill="white"/>
<path fill-rule="evenodd" clip-rule="evenodd" d="M35.7643 49.7085V56.6366H34.8374V50.6983H31.1294C30.6197 50.6983 30.2025 51.1434 30.2025 51.6877V56.6366H29.2754V51.6877C29.2754 50.6192 30.0912 49.7383 31.1294 49.7085H35.7643Z" fill="white"/>
<path fill-rule="evenodd" clip-rule="evenodd" d="M42.1613 51.6877C42.1613 51.1434 41.744 50.6983 41.2343 50.6983H38.4532C37.9435 50.6983 37.5261 51.1434 37.5261 51.6877V54.6574C37.5261 55.2016 37.9435 55.6468 38.4532 55.6468H41.2343C41.744 55.6468 42.1613 55.2016 42.1613 54.6574V51.6877ZM43.0878 54.6574C43.0878 55.7455 42.2533 56.6366 41.2343 56.6366H38.4532C37.4244 56.6366 36.5996 55.756 36.5996 54.6574V51.6877C36.5996 50.599 37.4334 49.7085 38.4532 49.7085H41.2343C42.2167 49.7085 43.0878 50.6092 43.0878 51.6877V54.6574Z" fill="white"/>
<path fill-rule="evenodd" clip-rule="evenodd" d="M44.847 52.6778H49.4817V49.7085H50.4082V56.6366H49.4817V53.6676H44.847V56.6366H43.9199V49.7085H44.847V52.6778Z" fill="white"/>
<path fill-rule="evenodd" clip-rule="evenodd" d="M41.4448 59.6797H40.7422C40.6136 59.6797 40.5078 59.7848 40.5078 59.9139V60.6169C40.5078 60.7455 40.6136 60.8514 40.7422 60.8514H41.4448C41.5738 60.8514 41.6789 60.7455 41.6789 60.6169V59.9139C41.6789 59.7848 41.5738 59.6797 41.4448 59.6797Z" fill="white"/>
<path fill-rule="evenodd" clip-rule="evenodd" d="M36.0586 59.9139V60.1482C36.0586 60.277 36.1641 60.3827 36.293 60.3827H37.2298V59.6797H36.293C36.1641 59.6797 36.0586 59.7848 36.0586 59.9139Z" fill="white"/>
<path fill-rule="evenodd" clip-rule="evenodd" d="M33.2727 60.3833H32.3359V60.852H33.2727C33.4016 60.852 33.507 60.7461 33.507 60.6175C33.507 60.4884 33.4016 60.3833 33.2727 60.3833Z" fill="white"/>
<path fill-rule="evenodd" clip-rule="evenodd" d="M35.1225 59.6797H34.4196C34.2912 59.6797 34.1855 59.7848 34.1855 59.9139V60.3827H35.3566V59.9139C35.3566 59.7848 35.2515 59.6797 35.1225 59.6797Z" fill="white"/>
<path fill-rule="evenodd" clip-rule="evenodd" d="M20.3005 59.8438H19.9727V60.6873H20.3005C20.4294 60.6873 20.5348 60.5819 20.5348 60.4529V60.0782C20.5348 59.9492 20.4294 59.8438 20.3005 59.8438Z" fill="white"/>
<path fill-rule="evenodd" clip-rule="evenodd" d="M31.4231 59.6797H30.7205C30.5916 59.6797 30.4863 59.7848 30.4863 59.9139V60.6169C30.4863 60.7455 30.5916 60.8514 30.7205 60.8514H31.4231C31.552 60.8514 31.6575 60.7455 31.6575 60.6169V59.9139C31.6575 59.7848 31.552 59.6797 31.4231 59.6797Z" fill="white"/>
<path fill-rule="evenodd" clip-rule="evenodd" d="M19.1777 60.0782V60.4529C19.1777 60.5819 19.2831 60.6873 19.4121 60.6873H19.7398V59.8438H19.4121C19.2831 59.8438 19.1777 59.9492 19.1777 60.0782Z" fill="white"/>
<path fill-rule="evenodd" clip-rule="evenodd" d="M25.8979 59.6797H25.1953C25.0664 59.6797 24.9609 59.7848 24.9609 59.9139V60.3827H26.132V59.9139C26.132 59.7848 26.0269 59.6797 25.8979 59.6797Z" fill="white"/>
<path fill-rule="evenodd" clip-rule="evenodd" d="M33.2727 59.6797H32.3359V60.1482H33.2727C33.4016 60.1482 33.507 60.0428 33.507 59.9139C33.507 59.7848 33.4016 59.6797 33.2727 59.6797Z" fill="white"/>
<path fill-rule="evenodd" clip-rule="evenodd" d="M51.957 59.9139V60.1482C51.957 60.277 52.0624 60.3827 52.1914 60.3827H53.128V59.6797H52.1914C52.0624 59.6797 51.957 59.7848 51.957 59.9139Z" fill="white"/>
<path fill-rule="evenodd" clip-rule="evenodd" d="M47.2745 59.6797H46.5723C46.4433 59.6797 46.3379 59.7848 46.3379 59.9139V60.3827H47.5089V59.9139C47.5089 59.7848 47.4039 59.6797 47.2745 59.6797Z" fill="white"/>
<path fill-rule="evenodd" clip-rule="evenodd" d="M53.362 61.087H53.1276V60.618H52.3571L51.8887 61.087H51.7223V60.9203L52.0479 60.5945C51.8604 60.5337 51.7223 60.3578 51.7223 60.1493V59.9149C51.7223 59.6662 51.9286 59.4462 52.191 59.4462H53.362V61.087ZM51.4887 61.087H51.2546V59.7624L50.0832 61.087H49.8492V59.4462H50.0832V60.7466L51.2546 59.4462H51.4887V61.087ZM49.6155 61.087H49.3816V60.3838H48.2105V61.087H47.9762V59.4462H48.2105V60.1493H49.3816V59.4462H49.6155V61.087ZM47.7425 61.087H47.5082V60.618H46.3372V61.087H46.1028V59.9149C46.1028 59.6662 46.3092 59.4462 46.5716 59.4462H47.2738C47.5247 59.4462 47.7355 59.6551 47.7425 59.9149V61.087ZM45.8692 61.087H45.6349V59.6807H44.4641V61.087H44.2297V59.4462H45.8692V61.087ZM43.9962 61.087H43.7622V59.8657L43.0595 60.8804L42.3567 59.8657V61.087H42.1224V59.4462H42.3567L43.0595 60.4611L43.7622 59.4462H43.9962V61.087ZM41.9123 60.618C41.9123 60.8759 41.7014 61.087 41.4439 61.087H40.7412C40.4811 61.087 40.2728 60.8778 40.2728 60.618V59.9149C40.2728 59.6573 40.4834 59.4462 40.7412 59.4462H41.4439C41.6921 59.4462 41.9123 59.6595 41.9123 59.9149V60.618ZM39.9431 61.087L39.24 60.3838H38.8678V61.087H38.6335V59.4462H38.8678V60.1493H39.24L39.9431 59.4462H40.2733L39.4536 60.2664L40.2733 61.087H39.9431ZM37.4637 61.087H37.2295V60.618H36.4587L35.9903 61.087H35.8241V60.9203L36.1499 60.5945C35.9622 60.5337 35.8241 60.3578 35.8241 60.1493V59.9149C35.8241 59.6662 36.0302 59.4462 36.2927 59.4462H37.4637V61.087ZM35.5906 61.087H35.3562V60.618H34.1851V61.087H33.9509V59.9149C33.9509 59.6662 34.157 59.4462 34.4192 59.4462H35.122C35.3728 59.4462 35.5834 59.6551 35.5906 59.9149V61.087ZM33.7408 60.618C33.7408 60.8711 33.5346 61.0795 33.2722 61.087H32.1012V59.4462H33.2722C33.5182 59.4462 33.7408 59.6551 33.7408 59.9149C33.7408 60.0554 33.6869 60.1729 33.5814 60.2664C33.6869 60.36 33.7408 60.4774 33.7408 60.618ZM31.891 60.618C31.891 60.8759 31.6802 61.087 31.4226 61.087H30.72C30.46 61.087 30.2514 60.8778 30.2514 60.618V59.9149C30.2514 59.6573 30.4621 59.4462 30.72 59.4462H31.4226C31.6709 59.4462 31.891 59.6595 31.891 59.9149V60.618ZM28.9171 60.8525H29.6196C29.7486 60.8525 29.8539 60.7466 29.8539 60.618H30.0882C30.0882 60.8662 29.882 61.087 29.6196 61.087H28.9171C28.6665 61.087 28.4486 60.8827 28.4486 60.618V59.9149C28.4486 59.6617 28.6547 59.453 28.9171 59.4462H29.6196C29.8703 59.4462 30.0812 59.6551 30.0882 59.9149H29.8539C29.8539 59.7859 29.7486 59.6807 29.6196 59.6807H28.9171C28.7884 59.6807 28.6829 59.7859 28.6829 59.9149V60.618C28.6829 60.7466 28.7884 60.8525 28.9171 60.8525ZM28.2384 61.087H28.0042V60.3838H26.8331V61.087H26.5989V59.4462H26.8331V60.1493H28.0042V59.4462H28.2384V61.087ZM26.3653 61.087H26.1309V60.618H24.9599V61.087H24.7257V59.9149C24.7257 59.6662 24.9319 59.4462 25.1942 59.4462H25.8968C26.1475 59.4462 26.3581 59.6551 26.3653 59.9149V61.087ZM24.4922 61.087H24.2579V60.3838H23.087V61.087H22.8526V59.4462H23.087V60.1493H24.2579V59.4462H24.4922V61.087ZM22.619 61.087H22.3848V59.7624L21.2137 61.087H20.9794V59.4462H21.2137V60.7466L22.3848 59.4462H22.619V61.087ZM20.7693 60.4536C20.7693 60.7115 20.5587 60.9225 20.3009 60.9225H19.9731V61.157H19.7388V60.9225H19.4111C19.1509 60.9225 18.9426 60.7142 18.9426 60.4536V60.0789C18.9426 59.821 19.1533 59.6102 19.4111 59.6102H19.7388V59.3758H19.9731V59.6102H20.3009C20.5564 59.6102 20.7693 59.8235 20.7693 60.0789V60.4536ZM53.6004 58.8818H18.7337C18.4763 58.8818 18.2676 59.1373 18.2676 59.4519V61.0526C18.2676 61.3673 18.4763 61.6226 18.7337 61.6226H53.6004C53.8583 61.6226 54.0665 61.3673 54.0665 61.0526V59.4519C54.0665 59.1373 53.8583 58.8818 53.6004 58.8818Z" fill="white"/>
<path fill-rule="evenodd" clip-rule="evenodd" d="M48.0574 40.6759C48.0402 40.6501 48.0153 40.6377 47.9967 40.6192C47.9776 40.6006 47.9604 40.5792 47.9563 40.5503C47.9459 40.6042 47.9913 40.6519 48.0574 40.6759ZM47.8517 40.5607C47.8449 40.5911 47.8554 40.6151 47.8789 40.6332C47.9265 40.67 47.9835 40.6777 48.0407 40.6854C48.0031 40.6668 47.9645 40.6519 47.9305 40.6269C47.8934 40.6002 47.883 40.5688 47.8979 40.5281C47.9016 40.5168 47.9061 40.5059 47.9093 40.4945C47.9115 40.4872 47.9165 40.4804 47.9106 40.4678C47.8839 40.4963 47.8604 40.5234 47.8518 40.5607H47.8517ZM48.1186 39.9663C48.1186 39.9431 48.0965 39.9005 48.0692 39.8701C48.037 39.8339 47.999 39.8043 47.9604 39.7754C47.9142 39.7399 47.8685 39.7042 47.8222 39.6692C47.9106 39.779 48.0167 39.8696 48.1186 39.9663ZM48.2324 39.1483C48.3053 39.102 48.3728 39.0486 48.4477 39.0045C48.5092 38.9687 48.5718 38.9379 48.642 38.9243C48.6452 38.9243 48.6488 38.9243 48.6506 38.918C48.5904 38.9202 48.535 38.9379 48.4816 38.9614C48.3756 39.0077 48.2849 39.0789 48.1933 39.1474C48.1675 39.1668 48.1408 39.1854 48.115 39.2045C48.158 39.1926 48.1961 39.1718 48.2324 39.1483ZM49.0431 38.2922C49.0974 38.2582 49.151 38.2229 49.2058 38.1892C49.2135 38.1838 49.2248 38.1725 49.2326 38.1802C49.2415 38.1902 49.2311 38.2028 49.2243 38.2123C49.1917 38.2591 49.1478 38.2963 49.1047 38.3334C49.0567 38.3743 49.0078 38.4146 48.9574 38.4572C48.9683 38.46 48.9724 38.4541 48.9764 38.4514C49.0526 38.3942 49.1341 38.3438 49.2017 38.2767C49.218 38.2604 49.2326 38.2423 49.2433 38.2218C49.2489 38.2111 49.2525 38.1998 49.2534 38.1879C49.2542 38.1675 49.2475 38.1621 49.2279 38.1675C49.1967 38.1761 49.1691 38.1915 49.1419 38.2069C49.0417 38.2654 48.9466 38.3303 48.8455 38.3879C48.9153 38.3643 48.9805 38.3307 49.0431 38.2922ZM49.7989 38.7035C49.7885 38.727 49.7718 38.7347 49.7559 38.742C49.7079 38.7646 49.6571 38.781 49.6064 38.7951C49.5293 38.8168 49.4518 38.8373 49.3748 38.8581C49.3699 38.8599 49.3644 38.8613 49.3593 38.8631C49.3616 38.8681 49.3649 38.8671 49.3676 38.8667C49.4995 38.8394 49.6313 38.8145 49.7568 38.7628C49.7736 38.756 49.7894 38.7474 49.8036 38.7352C49.8113 38.7284 49.819 38.7198 49.8153 38.7085C49.8116 38.6967 49.7998 38.6963 49.7894 38.6952C49.7333 38.6925 49.6766 38.6957 49.6209 38.7011C49.5484 38.708 49.475 38.7171 49.4016 38.7202C49.397 38.7202 49.3925 38.7221 49.388 38.723C49.5244 38.7483 49.6598 38.724 49.7989 38.7035ZM49.4486 38.5797C49.5465 38.5657 49.6422 38.5384 49.7378 38.5148C49.7518 38.5112 49.7654 38.508 49.7795 38.5058C49.7876 38.5043 49.798 38.4967 49.8027 38.5076C49.8066 38.5167 49.7968 38.523 49.7903 38.5284C49.7537 38.561 49.7087 38.5797 49.6644 38.5992C49.5996 38.6272 49.533 38.654 49.4673 38.6808C49.4572 38.6853 49.4477 38.6903 49.4396 38.6984C49.4872 38.683 49.5352 38.6685 49.5829 38.6518C49.6463 38.6299 49.7111 38.6114 49.7686 38.5747C49.789 38.562 49.8075 38.547 49.8181 38.5248C49.8303 38.4999 49.8248 38.4904 49.7977 38.4913C49.7528 38.4921 49.7096 38.5026 49.6666 38.5121C49.5565 38.5361 49.4473 38.5628 49.3358 38.5797C49.3218 38.5815 49.3064 38.5797 49.2937 38.5887C49.3459 38.5933 49.3975 38.5869 49.4486 38.5797ZM48.042 40.4854C47.8961 40.4138 47.7525 40.3381 47.6183 40.2456C47.4864 40.1535 47.3772 40.0424 47.317 39.8906C47.2865 39.8152 47.2372 39.7536 47.1842 39.6951C47.1284 39.6339 47.0795 39.5677 47.0387 39.4961C47.0219 39.468 47.002 39.4425 46.9766 39.4208C46.9911 39.4489 47.007 39.4761 47.021 39.5042C47.0681 39.5989 47.1339 39.6802 47.2046 39.7573C47.2471 39.803 47.2829 39.8524 47.3034 39.9128C47.3568 40.0728 47.4647 40.1898 47.6015 40.2836C47.7376 40.3771 47.8862 40.4456 48.0402 40.5031C48.0665 40.513 48.0933 40.5222 48.12 40.5317C48.1203 40.5294 48.1214 40.5276 48.1223 40.5263C48.0954 40.5121 48.0687 40.499 48.042 40.4854ZM48.5723 40.2287C48.6012 40.2379 48.6289 40.251 48.642 40.2814C48.6565 40.3154 48.6438 40.3358 48.6071 40.3367C48.5745 40.3382 48.5427 40.329 48.5124 40.3195C48.5024 40.3163 48.4934 40.3103 48.478 40.3127C48.5169 40.3344 48.5522 40.3539 48.5877 40.3744C48.6298 40.3988 48.6697 40.4251 48.7041 40.4596C48.7154 40.4709 48.7254 40.4831 48.7295 40.4994C48.7363 40.5258 48.724 40.5412 48.6969 40.5408C48.6684 40.5403 48.6429 40.5285 48.6175 40.5168C48.5981 40.5071 48.5786 40.4967 48.5569 40.485C48.5587 40.4967 48.5673 40.4994 48.5727 40.5035C48.6343 40.5494 48.6933 40.5979 48.7422 40.6587C48.7634 40.6845 48.7776 40.713 48.7752 40.748C48.7734 40.7715 48.7654 40.7779 48.7422 40.7702C48.7077 40.7584 48.6779 40.738 48.6474 40.7175C48.6293 40.7049 48.6108 40.6931 48.5913 40.6831C48.6185 40.7116 48.647 40.7385 48.6723 40.7688C48.7177 40.8237 48.7521 40.8845 48.7698 40.9543C48.7785 40.9896 48.7776 41.025 48.7666 41.0594C48.7598 41.0795 48.7526 41.0826 48.7349 41.0698C48.6643 41.0182 48.6103 40.9516 48.5599 40.8813C48.5124 40.8137 48.4671 40.7443 48.41 40.6845C48.3593 40.6305 48.2994 40.5902 48.2283 40.5675C48.2247 40.5666 48.2206 40.5643 48.2164 40.5675C48.2182 40.5752 48.2256 40.5761 48.2306 40.5783C48.3121 40.6142 48.3738 40.6736 48.4264 40.7439C48.4748 40.8096 48.5165 40.8799 48.5682 40.9434C48.6171 41.0033 48.675 41.0531 48.7449 41.0894C48.7634 41.0994 48.7716 41.0935 48.7788 41.0766C48.8047 41.016 48.7993 40.9556 48.7793 40.8958C48.7739 40.8786 48.7739 40.865 48.7806 40.8481C48.8111 40.7733 48.8034 40.699 48.7684 40.6273C48.7607 40.611 48.7585 40.5956 48.7594 40.5774C48.7634 40.5094 48.7422 40.4492 48.6946 40.3997C48.6828 40.3884 48.6782 40.3776 48.6797 40.3607C48.6838 40.3095 48.6637 40.266 48.6311 40.2278C48.6194 40.2143 48.6112 40.2011 48.6071 40.1835C48.5877 40.0919 48.5468 40.0696 48.4576 40.0987C48.4199 40.1114 48.3837 40.1281 48.3452 40.1372C48.3285 40.1413 48.3116 40.1399 48.2876 40.1431C48.3143 40.1544 48.3348 40.1485 48.3547 40.1453C48.3928 40.139 48.4285 40.1227 48.4658 40.1127C48.4839 40.1082 48.5015 40.1037 48.5196 40.105C48.551 40.1068 48.5818 40.1385 48.5818 40.1699C48.5818 40.1875 48.5709 40.1975 48.5551 40.202C48.5436 40.2061 48.5319 40.2088 48.5206 40.212C48.5206 40.2133 48.5206 40.2147 48.5206 40.2161C48.5382 40.2201 48.5555 40.2233 48.5723 40.2287ZM48.9235 38.2782C48.9724 38.2132 49.0182 38.1471 49.0458 38.0696C49.0567 38.0387 49.0644 38.0075 49.0549 37.9748C49.0472 37.9467 49.035 37.9435 49.0137 37.9635C48.9801 37.9962 48.9506 38.0324 48.9203 38.0677C48.8337 38.1698 48.7295 38.2532 48.628 38.339C48.5301 38.4219 48.4294 38.5017 48.3434 38.5978C48.2433 38.7098 48.1476 38.8263 48.0542 38.9442C47.9509 39.0744 47.848 39.2054 47.7451 39.336C47.7402 39.3415 47.7361 39.3487 47.7356 39.3587C47.7462 39.3482 47.756 39.3383 47.7656 39.3273C47.8444 39.2398 47.9228 39.1519 48.0022 39.0644C48.13 38.9229 48.2591 38.7819 48.3873 38.6405C48.5169 38.4972 48.6551 38.3621 48.7916 38.2251C48.865 38.1512 48.9321 38.0722 48.9982 37.993C49.0069 37.9829 49.014 37.9712 49.0295 37.9635C49.035 37.998 49.0241 38.0288 49.014 38.0586C48.9855 38.1471 48.9398 38.2265 48.8918 38.3054C48.8885 38.3108 48.8817 38.3158 48.884 38.3257C48.9013 38.3121 48.9117 38.2945 48.9235 38.2782ZM49.5601 38.9065C49.5035 38.9655 49.4314 38.9896 49.3531 38.9946C49.2593 39.0005 49.1645 39.0045 49.0707 39.0095C49.068 39.0095 49.0648 39.0103 49.0617 39.0154C49.0789 39.0154 49.0952 39.0146 49.1124 39.0154C49.218 39.0186 49.324 39.0186 49.4292 39.034C49.4473 39.0371 49.4732 39.0358 49.4755 39.059C49.4777 39.0816 49.4563 39.0925 49.4378 39.1002C49.4034 39.1157 49.3667 39.1216 49.3295 39.1229C49.2202 39.127 49.111 39.1215 49.0024 39.1101C48.9905 39.1092 48.9787 39.1101 48.9665 39.1124C49.0167 39.1196 49.0667 39.127 49.1166 39.1342C49.1777 39.1437 49.238 39.1555 49.296 39.1768C49.3073 39.1809 49.3181 39.1854 49.3286 39.1917C49.3593 39.2095 49.3604 39.229 49.3308 39.2489C49.3018 39.2689 49.2679 39.2743 49.2335 39.2757C49.1446 39.2793 49.0594 39.2558 48.9746 39.2335C48.9506 39.2272 48.9271 39.2208 48.9022 39.219C48.9162 39.2235 48.9307 39.229 48.9448 39.233C49.014 39.254 49.0816 39.2784 49.146 39.3119C49.165 39.3214 49.1827 39.3333 49.1976 39.3492C49.2153 39.3682 49.2144 39.3808 49.1926 39.3962C49.1745 39.4095 49.1528 39.4154 49.1306 39.4176C49.0947 39.4208 49.0594 39.4186 49.0253 39.4063C48.9656 39.3849 48.9076 39.3591 48.8509 39.3306C48.8428 39.3264 48.8342 39.3228 48.8197 39.3165C48.8292 39.3324 48.8396 39.3342 48.8478 39.3387C48.9076 39.3731 48.9683 39.4058 49.0205 39.452C49.0503 39.4788 49.0467 39.5006 49.009 39.5151C48.9706 39.53 48.9321 39.5259 48.8939 39.5087C48.8491 39.4888 48.8061 39.4653 48.7634 39.4407C48.7571 39.4371 48.7517 39.4298 48.7394 39.433C48.7663 39.457 48.7912 39.4798 48.8152 39.5028C48.8364 39.5228 48.8573 39.5437 48.8731 39.5686C48.8876 39.5926 48.8813 39.6063 48.8532 39.6081C48.8179 39.6104 48.7856 39.5989 48.7544 39.5858C48.7218 39.5722 48.691 39.5564 48.6607 39.5392C48.6556 39.536 48.6515 39.53 48.6434 39.5327C48.6706 39.5568 48.6969 39.5795 48.7236 39.6036C48.7376 39.6161 48.7494 39.6312 48.7585 39.6479C48.7657 39.6611 48.7698 39.6746 48.7594 39.6879C48.7493 39.701 48.7353 39.7055 48.7194 39.7019C48.6932 39.696 48.6696 39.6856 48.647 39.6719C48.6256 39.6588 48.6043 39.6452 48.5794 39.6294C48.583 39.6416 48.5912 39.6466 48.5971 39.6529C48.6261 39.6832 48.6551 39.7137 48.6728 39.7523C48.6787 39.764 48.6841 39.7772 48.6746 39.788C48.666 39.7994 48.6524 39.7989 48.6396 39.7971C48.598 39.7917 48.5613 39.7722 48.5227 39.7532C48.5322 39.7631 48.5414 39.7726 48.5509 39.7822C48.5667 39.798 48.5803 39.8152 48.5916 39.8348C48.6075 39.8619 48.5971 39.8791 48.5654 39.8788C48.5391 39.8778 48.5168 39.8651 48.4937 39.8552C48.4906 39.8533 48.4869 39.8515 48.477 39.8465C48.4901 39.8633 48.5001 39.8737 48.5073 39.8864C48.5186 39.9046 48.526 39.9254 48.5114 39.944C48.4974 39.9622 48.4747 39.9586 48.4562 39.9535C48.4385 39.9485 48.4216 39.9381 48.4031 39.9295C48.4008 39.9435 48.409 39.9535 48.4118 39.9649C48.4186 39.9876 48.4236 40.0125 48.4026 40.0289C48.3809 40.0447 48.356 40.0384 48.3329 40.0257C48.3248 40.0215 48.3198 40.0125 48.3085 40.0125C48.3053 40.0239 48.3112 40.0329 48.3121 40.0429C48.3157 40.0809 48.2961 40.0969 48.2604 40.0846C48.2382 40.0773 48.2205 40.0628 48.1992 40.0533C48.2187 40.0796 48.2382 40.1059 48.2712 40.1168C48.2958 40.1254 48.316 40.1176 48.3311 40.0919C48.3401 40.076 48.3515 40.0692 48.3682 40.0687C48.3782 40.0679 48.3877 40.0664 48.3967 40.0642C48.4281 40.0551 48.4507 40.0375 48.4562 40.0034C48.4584 39.9916 48.4629 39.9853 48.4756 39.9848C48.5164 39.9845 48.5473 39.9708 48.5527 39.925C48.5545 39.9137 48.5649 39.9132 48.5726 39.9109C48.607 39.901 48.636 39.8874 48.6319 39.8434C48.6306 39.8348 48.6378 39.8339 48.6443 39.833C48.6569 39.832 48.6696 39.8289 48.6809 39.823C48.7058 39.8093 48.7167 39.7903 48.7117 39.7622C48.709 39.7463 48.7117 39.739 48.7289 39.7368C48.7461 39.7345 48.763 39.7286 48.7778 39.7196C48.7969 39.7083 48.8101 39.6929 48.8087 39.6698C48.8077 39.6534 48.8151 39.647 48.8305 39.6452C48.849 39.6425 48.868 39.6393 48.8852 39.6303C48.9062 39.6194 48.9193 39.6036 48.9111 39.5781C48.9066 39.5641 48.9134 39.5627 48.9252 39.5618C48.9628 39.5591 49.0003 39.5546 49.0362 39.5401C49.072 39.5255 49.081 39.5092 49.072 39.4721C49.0688 39.4585 49.0756 39.4575 49.0847 39.4557C49.1205 39.4489 49.1563 39.4416 49.1903 39.4271C49.207 39.4203 49.2234 39.4122 49.2361 39.3985C49.251 39.3827 49.2574 39.3641 49.2465 39.3442C49.2374 39.3264 49.2442 39.321 49.2596 39.3151C49.2895 39.3042 49.318 39.2915 49.3444 39.273C49.3852 39.2435 49.3892 39.2308 49.3679 39.186C49.3616 39.1732 49.3729 39.1732 49.3788 39.17C49.4137 39.1519 49.4494 39.1351 49.4794 39.1079C49.4876 39.1006 49.4957 39.0929 49.5025 39.0839C49.5184 39.0617 49.5166 39.0417 49.493 39.0272C49.469 39.0136 49.4776 39.0073 49.4948 38.9977C49.5252 38.9801 49.5528 38.9587 49.5773 38.9338C49.5855 38.9252 49.5927 38.916 49.5982 38.9053C49.6131 38.8753 49.6068 38.8576 49.5695 38.8391C49.5891 38.869 49.5782 38.8884 49.56 38.9065H49.5601ZM49.6431 38.3049C49.5841 38.3811 49.509 38.4396 49.4328 38.4963C49.4165 38.5085 49.3997 38.5203 49.3798 38.5352C49.3929 38.537 49.3993 38.5316 49.4052 38.5275C49.4845 38.4794 49.5624 38.4292 49.63 38.3648C49.6585 38.3375 49.6844 38.3072 49.6942 38.2668C49.698 38.2532 49.6998 38.2387 49.6888 38.2287C49.6766 38.2183 49.6648 38.2292 49.6549 38.236C49.5357 38.3054 49.4183 38.3779 49.2937 38.4364C49.2864 38.4396 49.2801 38.445 49.2692 38.4441C49.2815 38.4283 49.2955 38.4159 49.3032 38.3983C49.3073 38.3888 49.3113 38.3788 49.305 38.3693C49.2982 38.3602 49.2878 38.3634 49.2783 38.3657C49.2216 38.3761 49.1682 38.3983 49.1137 38.4188C49.0417 38.4459 48.9706 38.4735 48.899 38.5017C48.8962 38.5025 48.8936 38.5049 48.8876 38.509C48.9072 38.5112 48.9212 38.5058 48.9352 38.5026C49.0241 38.4812 49.108 38.445 49.1917 38.4096C49.2189 38.3978 49.2461 38.3879 49.2733 38.377C49.2774 38.3755 49.2828 38.3725 49.2864 38.3762C49.2914 38.3816 49.2874 38.3875 49.2846 38.3916C49.2774 38.402 49.2697 38.412 49.2611 38.4215C49.1999 38.4868 49.1193 38.5208 49.0404 38.5575C48.8351 38.6523 48.628 38.7421 48.429 38.849C48.303 38.9181 48.1879 38.9997 48.0832 39.0985C47.9696 39.206 47.8544 39.3134 47.7248 39.4022C47.7216 39.4046 47.7193 39.4072 47.7175 39.4117C47.7634 39.4031 47.8059 39.385 47.8467 39.3619C47.9319 39.3129 48.009 39.2508 48.0801 39.1837C48.2134 39.0582 48.3606 38.9552 48.5237 38.8722C48.6584 38.8047 48.7957 38.7425 48.9275 38.6704C49.0916 38.5807 49.2534 38.4872 49.4142 38.3916C49.4936 38.3448 49.571 38.2964 49.6494 38.2479C49.6567 38.2433 49.6644 38.2397 49.6757 38.2329C49.6722 38.2637 49.6585 38.2851 49.6431 38.305V38.3049Z" fill="white"/>
<path d="M48.0574 40.6759C48.0402 40.6501 48.0153 40.6377 47.9967 40.6192C47.9776 40.6006 47.9604 40.5792 47.9563 40.5503C47.9459 40.6042 47.9913 40.6519 48.0574 40.6759V40.6759ZM47.8517 40.5607C47.8449 40.5911 47.8554 40.6151 47.8789 40.6332C47.9265 40.67 47.9835 40.6777 48.0407 40.6854C48.0031 40.6668 47.9645 40.6519 47.9305 40.6269C47.8934 40.6002 47.883 40.5688 47.8979 40.5281C47.9016 40.5168 47.9061 40.5059 47.9093 40.4945C47.9115 40.4872 47.9165 40.4804 47.9106 40.4678C47.8839 40.4963 47.8604 40.5234 47.8518 40.5607H47.8517ZM48.1186 39.9663C48.1186 39.9431 48.0965 39.9005 48.0692 39.8701C48.037 39.8339 47.999 39.8043 47.9604 39.7754C47.9142 39.7399 47.8685 39.7042 47.8222 39.6692C47.9106 39.779 48.0167 39.8696 48.1186 39.9663V39.9663ZM48.2324 39.1483C48.3053 39.102 48.3728 39.0486 48.4477 39.0045C48.5092 38.9687 48.5718 38.9379 48.642 38.9243C48.6452 38.9243 48.6488 38.9243 48.6506 38.918C48.5904 38.9202 48.535 38.9379 48.4816 38.9614C48.3756 39.0077 48.2849 39.0789 48.1933 39.1474C48.1675 39.1668 48.1408 39.1854 48.115 39.2045C48.158 39.1926 48.1961 39.1718 48.2324 39.1483V39.1483ZM49.0431 38.2922C49.0974 38.2582 49.151 38.2229 49.2058 38.1892C49.2135 38.1838 49.2248 38.1725 49.2326 38.1802C49.2415 38.1902 49.2311 38.2028 49.2243 38.2123C49.1917 38.2591 49.1478 38.2963 49.1047 38.3334C49.0567 38.3743 49.0078 38.4146 48.9574 38.4572C48.9683 38.46 48.9724 38.4541 48.9764 38.4514C49.0526 38.3942 49.1341 38.3438 49.2017 38.2767C49.218 38.2604 49.2326 38.2423 49.2433 38.2218C49.2489 38.2111 49.2525 38.1998 49.2534 38.1879C49.2542 38.1675 49.2475 38.1621 49.2279 38.1675C49.1967 38.1761 49.1691 38.1915 49.1419 38.2069C49.0417 38.2654 48.9466 38.3303 48.8455 38.3879C48.9153 38.3643 48.9805 38.3307 49.0431 38.2922V38.2922ZM49.7989 38.7035C49.7885 38.727 49.7718 38.7347 49.7559 38.742C49.7079 38.7646 49.6571 38.781 49.6064 38.7951C49.5293 38.8168 49.4518 38.8373 49.3748 38.8581C49.3699 38.8599 49.3644 38.8613 49.3593 38.8631C49.3616 38.8681 49.3649 38.8671 49.3676 38.8667C49.4995 38.8394 49.6313 38.8145 49.7568 38.7628C49.7736 38.756 49.7894 38.7474 49.8036 38.7352C49.8113 38.7284 49.819 38.7198 49.8153 38.7085C49.8116 38.6967 49.7998 38.6963 49.7894 38.6952C49.7333 38.6925 49.6766 38.6957 49.6209 38.7011C49.5484 38.708 49.475 38.7171 49.4016 38.7202C49.397 38.7202 49.3925 38.7221 49.388 38.723C49.5244 38.7483 49.6598 38.724 49.7989 38.7035V38.7035ZM49.4486 38.5797C49.5465 38.5657 49.6422 38.5384 49.7378 38.5148C49.7518 38.5112 49.7654 38.508 49.7795 38.5058C49.7876 38.5043 49.798 38.4967 49.8027 38.5076C49.8066 38.5167 49.7968 38.523 49.7903 38.5284C49.7537 38.561 49.7087 38.5797 49.6644 38.5992C49.5996 38.6272 49.533 38.654 49.4673 38.6808C49.4572 38.6853 49.4477 38.6903 49.4396 38.6984C49.4872 38.683 49.5352 38.6685 49.5829 38.6518C49.6463 38.6299 49.7111 38.6114 49.7686 38.5747C49.789 38.562 49.8075 38.547 49.8181 38.5248C49.8303 38.4999 49.8248 38.4904 49.7977 38.4913C49.7528 38.4921 49.7096 38.5026 49.6666 38.5121C49.5565 38.5361 49.4473 38.5628 49.3358 38.5797C49.3218 38.5815 49.3064 38.5797 49.2937 38.5887C49.3459 38.5933 49.3975 38.5869 49.4486 38.5797V38.5797ZM48.042 40.4854C47.8961 40.4138 47.7525 40.3381 47.6183 40.2456C47.4864 40.1535 47.3772 40.0424 47.317 39.8906C47.2865 39.8152 47.2372 39.7536 47.1842 39.6951C47.1284 39.6339 47.0795 39.5677 47.0387 39.4961C47.0219 39.468 47.002 39.4425 46.9766 39.4208C46.9911 39.4489 47.007 39.4761 47.021 39.5042C47.0681 39.5989 47.1339 39.6802 47.2046 39.7573C47.2471 39.803 47.2829 39.8524 47.3034 39.9128C47.3568 40.0728 47.4647 40.1898 47.6015 40.2836C47.7376 40.3771 47.8862 40.4456 48.0402 40.5031C48.0665 40.513 48.0933 40.5222 48.12 40.5317C48.1203 40.5294 48.1214 40.5276 48.1223 40.5263C48.0954 40.5121 48.0687 40.499 48.042 40.4854V40.4854ZM48.5723 40.2287C48.6012 40.2379 48.6289 40.251 48.642 40.2814C48.6565 40.3154 48.6438 40.3358 48.6071 40.3367C48.5745 40.3382 48.5427 40.329 48.5124 40.3195C48.5024 40.3163 48.4934 40.3103 48.478 40.3127C48.5169 40.3344 48.5522 40.3539 48.5877 40.3744C48.6298 40.3988 48.6697 40.4251 48.7041 40.4596C48.7154 40.4709 48.7254 40.4831 48.7295 40.4994C48.7363 40.5258 48.724 40.5412 48.6969 40.5408C48.6684 40.5403 48.6429 40.5285 48.6175 40.5168C48.5981 40.5071 48.5786 40.4967 48.5569 40.485C48.5587 40.4967 48.5673 40.4994 48.5727 40.5035C48.6343 40.5494 48.6933 40.5979 48.7422 40.6587C48.7634 40.6845 48.7776 40.713 48.7752 40.748C48.7734 40.7715 48.7654 40.7779 48.7422 40.7702C48.7077 40.7584 48.6779 40.738 48.6474 40.7175C48.6293 40.7049 48.6108 40.6931 48.5913 40.6831C48.6185 40.7116 48.647 40.7385 48.6723 40.7688C48.7177 40.8237 48.7521 40.8845 48.7698 40.9543C48.7785 40.9896 48.7776 41.025 48.7666 41.0594C48.7598 41.0795 48.7526 41.0826 48.7349 41.0698C48.6643 41.0182 48.6103 40.9516 48.5599 40.8813C48.5124 40.8137 48.4671 40.7443 48.41 40.6845C48.3593 40.6305 48.2994 40.5902 48.2283 40.5675C48.2247 40.5666 48.2206 40.5643 48.2164 40.5675C48.2182 40.5752 48.2256 40.5761 48.2306 40.5783C48.3121 40.6142 48.3738 40.6736 48.4264 40.7439C48.4748 40.8096 48.5165 40.8799 48.5682 40.9434C48.6171 41.0033 48.675 41.0531 48.7449 41.0894C48.7634 41.0994 48.7716 41.0935 48.7788 41.0766C48.8047 41.016 48.7993 40.9556 48.7793 40.8958C48.7739 40.8786 48.7739 40.865 48.7806 40.8481C48.8111 40.7733 48.8034 40.699 48.7684 40.6273C48.7607 40.611 48.7585 40.5956 48.7594 40.5774C48.7634 40.5094 48.7422 40.4492 48.6946 40.3997C48.6828 40.3884 48.6782 40.3776 48.6797 40.3607C48.6838 40.3095 48.6637 40.266 48.6311 40.2278C48.6194 40.2143 48.6112 40.2011 48.6071 40.1835C48.5877 40.0919 48.5468 40.0696 48.4576 40.0987C48.4199 40.1114 48.3837 40.1281 48.3452 40.1372C48.3285 40.1413 48.3116 40.1399 48.2876 40.1431C48.3143 40.1544 48.3348 40.1485 48.3547 40.1453C48.3928 40.139 48.4285 40.1227 48.4658 40.1127C48.4839 40.1082 48.5015 40.1037 48.5196 40.105C48.551 40.1068 48.5818 40.1385 48.5818 40.1699C48.5818 40.1875 48.5709 40.1975 48.5551 40.202C48.5436 40.2061 48.5319 40.2088 48.5206 40.212C48.5206 40.2133 48.5206 40.2147 48.5206 40.2161C48.5382 40.2201 48.5555 40.2233 48.5723 40.2287ZM48.9235 38.2782C48.9724 38.2132 49.0182 38.1471 49.0458 38.0696C49.0567 38.0387 49.0644 38.0075 49.0549 37.9748C49.0472 37.9467 49.035 37.9435 49.0137 37.9635C48.9801 37.9962 48.9506 38.0324 48.9203 38.0677C48.8337 38.1698 48.7295 38.2532 48.628 38.339C48.5301 38.4219 48.4294 38.5017 48.3434 38.5978C48.2433 38.7098 48.1476 38.8263 48.0542 38.9442C47.9509 39.0744 47.848 39.2054 47.7451 39.336C47.7402 39.3415 47.7361 39.3487 47.7356 39.3587C47.7462 39.3482 47.756 39.3383 47.7656 39.3273C47.8444 39.2398 47.9228 39.1519 48.0022 39.0644C48.13 38.9229 48.2591 38.7819 48.3873 38.6405C48.5169 38.4972 48.6551 38.3621 48.7916 38.2251C48.865 38.1512 48.9321 38.0722 48.9982 37.993C49.0069 37.9829 49.014 37.9712 49.0295 37.9635C49.035 37.998 49.0241 38.0288 49.014 38.0586C48.9855 38.1471 48.9398 38.2265 48.8918 38.3054C48.8885 38.3108 48.8817 38.3158 48.884 38.3257C48.9013 38.3121 48.9117 38.2945 48.9235 38.2782V38.2782ZM49.5601 38.9065C49.5035 38.9655 49.4314 38.9896 49.3531 38.9946C49.2593 39.0005 49.1645 39.0045 49.0707 39.0095C49.068 39.0095 49.0648 39.0103 49.0617 39.0154C49.0789 39.0154 49.0952 39.0146 49.1124 39.0154C49.218 39.0186 49.324 39.0186 49.4292 39.034C49.4473 39.0371 49.4732 39.0358 49.4755 39.059C49.4777 39.0816 49.4563 39.0925 49.4378 39.1002C49.4034 39.1157 49.3667 39.1216 49.3295 39.1229C49.2202 39.127 49.111 39.1215 49.0024 39.1101C48.9905 39.1092 48.9787 39.1101 48.9665 39.1124C49.0167 39.1196 49.0667 39.127 49.1166 39.1342C49.1777 39.1437 49.238 39.1555 49.296 39.1768C49.3073 39.1809 49.3181 39.1854 49.3286 39.1917C49.3593 39.2095 49.3604 39.229 49.3308 39.2489C49.3018 39.2689 49.2679 39.2743 49.2335 39.2757C49.1446 39.2793 49.0594 39.2558 48.9746 39.2335C48.9506 39.2272 48.9271 39.2208 48.9022 39.219C48.9162 39.2235 48.9307 39.229 48.9448 39.233C49.014 39.254 49.0816 39.2784 49.146 39.3119C49.165 39.3214 49.1827 39.3333 49.1976 39.3492C49.2153 39.3682 49.2144 39.3808 49.1926 39.3962C49.1745 39.4095 49.1528 39.4154 49.1306 39.4176C49.0947 39.4208 49.0594 39.4186 49.0253 39.4063C48.9656 39.3849 48.9076 39.3591 48.8509 39.3306C48.8428 39.3264 48.8342 39.3228 48.8197 39.3165C48.8292 39.3324 48.8396 39.3342 48.8478 39.3387C48.9076 39.3731 48.9683 39.4058 49.0205 39.452C49.0503 39.4788 49.0467 39.5006 49.009 39.5151C48.9706 39.53 48.9321 39.5259 48.8939 39.5087C48.8491 39.4888 48.8061 39.4653 48.7634 39.4407C48.7571 39.4371 48.7517 39.4298 48.7394 39.433C48.7663 39.457 48.7912 39.4798 48.8152 39.5028C48.8364 39.5228 48.8573 39.5437 48.8731 39.5686C48.8876 39.5926 48.8813 39.6063 48.8532 39.6081C48.8179 39.6104 48.7856 39.5989 48.7544 39.5858C48.7218 39.5722 48.691 39.5564 48.6607 39.5392C48.6556 39.536 48.6515 39.53 48.6434 39.5327C48.6706 39.5568 48.6969 39.5795 48.7236 39.6036C48.7376 39.6161 48.7494 39.6312 48.7585 39.6479C48.7657 39.6611 48.7698 39.6746 48.7594 39.6879C48.7493 39.701 48.7353 39.7055 48.7194 39.7019C48.6932 39.696 48.6696 39.6856 48.647 39.6719C48.6256 39.6588 48.6043 39.6452 48.5794 39.6294C48.583 39.6416 48.5912 39.6466 48.5971 39.6529C48.6261 39.6832 48.6551 39.7137 48.6728 39.7523C48.6787 39.764 48.6841 39.7772 48.6746 39.788C48.666 39.7994 48.6524 39.7989 48.6396 39.7971C48.598 39.7917 48.5613 39.7722 48.5227 39.7532C48.5322 39.7631 48.5414 39.7726 48.5509 39.7822C48.5667 39.798 48.5803 39.8152 48.5916 39.8348C48.6075 39.8619 48.5971 39.8791 48.5654 39.8788C48.5391 39.8778 48.5168 39.8651 48.4937 39.8552C48.4906 39.8533 48.4869 39.8515 48.477 39.8465C48.4901 39.8633 48.5001 39.8737 48.5073 39.8864C48.5186 39.9046 48.526 39.9254 48.5114 39.944C48.4974 39.9622 48.4747 39.9586 48.4562 39.9535C48.4385 39.9485 48.4216 39.9381 48.4031 39.9295C48.4008 39.9435 48.409 39.9535 48.4118 39.9649C48.4186 39.9876 48.4236 40.0125 48.4026 40.0289C48.3809 40.0447 48.356 40.0384 48.3329 40.0257C48.3248 40.0215 48.3198 40.0125 48.3085 40.0125C48.3053 40.0239 48.3112 40.0329 48.3121 40.0429C48.3157 40.0809 48.2961 40.0969 48.2604 40.0846C48.2382 40.0773 48.2205 40.0628 48.1992 40.0533C48.2187 40.0796 48.2382 40.1059 48.2712 40.1168C48.2958 40.1254 48.316 40.1176 48.3311 40.0919C48.3401 40.076 48.3515 40.0692 48.3682 40.0687C48.3782 40.0679 48.3877 40.0664 48.3967 40.0642C48.4281 40.0551 48.4507 40.0375 48.4562 40.0034C48.4584 39.9916 48.4629 39.9853 48.4756 39.9848C48.5164 39.9845 48.5473 39.9708 48.5527 39.925C48.5545 39.9137 48.5649 39.9132 48.5726 39.9109C48.607 39.901 48.636 39.8874 48.6319 39.8434C48.6306 39.8348 48.6378 39.8339 48.6443 39.833C48.6569 39.832 48.6696 39.8289 48.6809 39.823C48.7058 39.8093 48.7167 39.7903 48.7117 39.7622C48.709 39.7463 48.7117 39.739 48.7289 39.7368C48.7461 39.7345 48.763 39.7286 48.7778 39.7196C48.7969 39.7083 48.8101 39.6929 48.8087 39.6698C48.8077 39.6534 48.8151 39.647 48.8305 39.6452C48.849 39.6425 48.868 39.6393 48.8852 39.6303C48.9062 39.6194 48.9193 39.6036 48.9111 39.5781C48.9066 39.5641 48.9134 39.5627 48.9252 39.5618C48.9628 39.5591 49.0003 39.5546 49.0362 39.5401C49.072 39.5255 49.081 39.5092 49.072 39.4721C49.0688 39.4585 49.0756 39.4575 49.0847 39.4557C49.1205 39.4489 49.1563 39.4416 49.1903 39.4271C49.207 39.4203 49.2234 39.4122 49.2361 39.3985C49.251 39.3827 49.2574 39.3641 49.2465 39.3442C49.2374 39.3264 49.2442 39.321 49.2596 39.3151C49.2895 39.3042 49.318 39.2915 49.3444 39.273C49.3852 39.2435 49.3892 39.2308 49.3679 39.186C49.3616 39.1732 49.3729 39.1732 49.3788 39.17C49.4137 39.1519 49.4494 39.1351 49.4794 39.1079C49.4876 39.1006 49.4957 39.0929 49.5025 39.0839C49.5184 39.0617 49.5166 39.0417 49.493 39.0272C49.469 39.0136 49.4776 39.0073 49.4948 38.9977C49.5252 38.9801 49.5528 38.9587 49.5773 38.9338C49.5855 38.9252 49.5927 38.916 49.5982 38.9053C49.6131 38.8753 49.6068 38.8576 49.5695 38.8391C49.5891 38.869 49.5782 38.8884 49.56 38.9065H49.5601ZM49.6431 38.3049C49.5841 38.3811 49.509 38.4396 49.4328 38.4963C49.4165 38.5085 49.3997 38.5203 49.3798 38.5352C49.3929 38.537 49.3993 38.5316 49.4052 38.5275C49.4845 38.4794 49.5624 38.4292 49.63 38.3648C49.6585 38.3375 49.6844 38.3072 49.6942 38.2668C49.698 38.2532 49.6998 38.2387 49.6888 38.2287C49.6766 38.2183 49.6648 38.2292 49.6549 38.236C49.5357 38.3054 49.4183 38.3779 49.2937 38.4364C49.2864 38.4396 49.2801 38.445 49.2692 38.4441C49.2815 38.4283 49.2955 38.4159 49.3032 38.3983C49.3073 38.3888 49.3113 38.3788 49.305 38.3693C49.2982 38.3602 49.2878 38.3634 49.2783 38.3657C49.2216 38.3761 49.1682 38.3983 49.1137 38.4188C49.0417 38.4459 48.9706 38.4735 48.899 38.5017C48.8962 38.5025 48.8936 38.5049 48.8876 38.509C48.9072 38.5112 48.9212 38.5058 48.9352 38.5026C49.0241 38.4812 49.108 38.445 49.1917 38.4096C49.2189 38.3978 49.2461 38.3879 49.2733 38.377C49.2774 38.3755 49.2828 38.3725 49.2864 38.3762C49.2914 38.3816 49.2874 38.3875 49.2846 38.3916C49.2774 38.402 49.2697 38.412 49.2611 38.4215C49.1999 38.4868 49.1193 38.5208 49.0404 38.5575C48.8351 38.6523 48.628 38.7421 48.429 38.849C48.303 38.9181 48.1879 38.9997 48.0832 39.0985C47.9696 39.206 47.8544 39.3134 47.7248 39.4022C47.7216 39.4046 47.7193 39.4072 47.7175 39.4117C47.7634 39.4031 47.8059 39.385 47.8467 39.3619C47.9319 39.3129 48.009 39.2508 48.0801 39.1837C48.2134 39.0582 48.3606 38.9552 48.5237 38.8722C48.6584 38.8047 48.7957 38.7425 48.9275 38.6704C49.0916 38.5807 49.2534 38.4872 49.4142 38.3916C49.4936 38.3448 49.571 38.2964 49.6494 38.2479C49.6567 38.2433 49.6644 38.2397 49.6757 38.2329C49.6722 38.2637 49.6585 38.2851 49.6431 38.305V38.3049Z" stroke="white" stroke-width="0.2199"/>
<path fill-rule="evenodd" clip-rule="evenodd" d="M49.675 38.2325C49.6714 38.2634 49.6578 38.2847 49.6424 38.3046C49.5834 38.3809 49.5083 38.4393 49.4321 38.496C49.4158 38.5082 49.399 38.5201 49.3791 38.535C49.3922 38.5368 49.3986 38.5314 49.4045 38.5273C49.4838 38.4792 49.5617 38.4289 49.6293 38.3645C49.6578 38.3373 49.6836 38.307 49.6935 38.2666C49.6973 38.253 49.699 38.2385 49.6881 38.2284C49.6759 38.218 49.6641 38.2289 49.6542 38.2357C49.535 38.3052 49.4176 38.3776 49.293 38.4361C49.2857 38.4393 49.2794 38.4447 49.2684 38.4438C49.2808 38.428 49.2948 38.4157 49.3025 38.3981C49.3066 38.3886 49.3106 38.3785 49.3043 38.369C49.2975 38.3599 49.2871 38.3631 49.2776 38.3654C49.2209 38.3758 49.1675 38.3981 49.113 38.4185C49.0409 38.4456 48.9699 38.4733 48.8982 38.5014C48.8955 38.5022 48.8928 38.5046 48.8869 38.5088C48.9065 38.5109 48.9205 38.5055 48.9345 38.5023C49.0233 38.481 49.1072 38.4447 49.191 38.4094C49.2182 38.3976 49.2453 38.3877 49.2726 38.3767C49.2767 38.3753 49.2821 38.3722 49.2857 38.3759C49.2907 38.3813 49.2867 38.3872 49.2839 38.3914C49.2767 38.4018 49.269 38.4118 49.2604 38.4213C49.1992 38.4866 49.1185 38.5205 49.0397 38.5573C48.8344 38.652 48.6273 38.7419 48.4283 38.8488C48.3023 38.9178 48.1872 38.9994 48.0825 39.0983C47.9688 39.2057 47.8537 39.3132 47.7241 39.402C47.7209 39.4043 47.7186 39.407 47.7168 39.4115C47.7627 39.4029 47.8052 39.3848 47.846 39.3616C47.9312 39.3127 48.0083 39.2506 48.0794 39.1835C48.2127 39.0579 48.3599 38.955 48.523 38.8719C48.6576 38.8044 48.7949 38.7422 48.9267 38.6701C49.0909 38.5804 49.2527 38.487 49.4135 38.3914C49.4929 38.3446 49.5703 38.2961 49.6487 38.2477C49.656 38.243 49.6637 38.2394 49.675 38.2326V38.2325Z" fill="white"/>
<path d="M49.675 38.2325C49.6714 38.2634 49.6578 38.2847 49.6424 38.3046C49.5834 38.3809 49.5083 38.4393 49.4321 38.496C49.4158 38.5082 49.399 38.5201 49.3791 38.535C49.3922 38.5368 49.3986 38.5314 49.4045 38.5273C49.4838 38.4792 49.5617 38.4289 49.6293 38.3645C49.6578 38.3373 49.6836 38.307 49.6935 38.2666C49.6973 38.253 49.699 38.2385 49.6881 38.2284C49.6759 38.218 49.6641 38.2289 49.6542 38.2357C49.535 38.3052 49.4176 38.3776 49.293 38.4361C49.2857 38.4393 49.2794 38.4447 49.2684 38.4438C49.2808 38.428 49.2948 38.4157 49.3025 38.3981C49.3066 38.3886 49.3106 38.3785 49.3043 38.369C49.2975 38.3599 49.2871 38.3631 49.2776 38.3654C49.2209 38.3758 49.1675 38.3981 49.113 38.4185C49.0409 38.4456 48.9699 38.4733 48.8982 38.5014C48.8955 38.5022 48.8928 38.5046 48.8869 38.5088C48.9065 38.5109 48.9205 38.5055 48.9345 38.5023C49.0233 38.481 49.1072 38.4447 49.191 38.4094C49.2182 38.3976 49.2453 38.3877 49.2726 38.3767C49.2767 38.3753 49.2821 38.3722 49.2857 38.3759C49.2907 38.3813 49.2867 38.3872 49.2839 38.3914C49.2767 38.4018 49.269 38.4118 49.2604 38.4213C49.1992 38.4866 49.1185 38.5205 49.0397 38.5573C48.8344 38.652 48.6273 38.7419 48.4283 38.8488C48.3023 38.9178 48.1872 38.9994 48.0825 39.0983C47.9688 39.2057 47.8537 39.3132 47.7241 39.402C47.7209 39.4043 47.7186 39.407 47.7168 39.4115C47.7627 39.4029 47.8052 39.3848 47.846 39.3616C47.9312 39.3127 48.0083 39.2506 48.0794 39.1835C48.2127 39.0579 48.3599 38.955 48.523 38.8719C48.6576 38.8044 48.7949 38.7422 48.9267 38.6701C49.0909 38.5804 49.2527 38.487 49.4135 38.3914C49.4929 38.3446 49.5703 38.2961 49.6487 38.2477C49.656 38.243 49.6637 38.2394 49.675 38.2326V38.2325Z" stroke="white" stroke-width="0.2199"/>
<path fill-rule="evenodd" clip-rule="evenodd" d="M49.5697 38.8389C49.5892 38.8688 49.5783 38.8882 49.5602 38.9064C49.5035 38.9654 49.4315 38.9894 49.3531 38.9944C49.2593 39.0003 49.1645 39.0043 49.0708 39.0093C49.0681 39.0093 49.0648 39.0101 49.0618 39.0152C49.079 39.0152 49.0953 39.0144 49.1125 39.0152C49.2181 39.0184 49.3241 39.0184 49.4293 39.0339C49.4474 39.037 49.4732 39.0357 49.4755 39.0588C49.4777 39.0814 49.4564 39.0923 49.4379 39.1C49.4035 39.1155 49.3667 39.1214 49.3296 39.1227C49.2203 39.1268 49.1111 39.1214 49.0024 39.1099C48.9906 39.109 48.9788 39.1099 48.9666 39.1123C49.0168 39.1195 49.0668 39.1268 49.1166 39.134C49.1778 39.1435 49.238 39.1553 49.2961 39.1767C49.3074 39.1808 49.3182 39.1853 49.3287 39.1916C49.3594 39.2093 49.3604 39.2288 49.3309 39.2488C49.3019 39.2687 49.2679 39.2741 49.2335 39.2755C49.1446 39.2791 49.0594 39.2556 48.9747 39.2333C48.9506 39.227 48.9271 39.2206 48.9022 39.2188C48.9162 39.2233 48.9307 39.2288 48.9449 39.2328C49.0141 39.2538 49.0817 39.2782 49.146 39.3117C49.1651 39.3213 49.1828 39.3331 49.1977 39.349C49.2154 39.368 49.2145 39.3806 49.1927 39.3961C49.1746 39.4093 49.1528 39.4152 49.1306 39.4174C49.0948 39.4206 49.0594 39.4184 49.0254 39.4061C48.9657 39.3847 48.9076 39.3589 48.851 39.3304C48.8429 39.3263 48.8343 39.3227 48.8197 39.3164C48.8293 39.3322 48.8397 39.334 48.8479 39.3385C48.9076 39.3729 48.9684 39.4056 49.0205 39.4518C49.0503 39.4786 49.0467 39.5004 49.0091 39.5149C48.9707 39.5299 48.9322 39.5257 48.894 39.5085C48.8492 39.4886 48.8061 39.4651 48.7635 39.4405C48.7572 39.4369 48.7518 39.4296 48.7395 39.4328C48.7663 39.4569 48.7912 39.4796 48.8153 39.5026C48.8364 39.5227 48.8574 39.5435 48.8732 39.5684C48.8877 39.5925 48.8814 39.6061 48.8533 39.6079C48.8179 39.6102 48.7857 39.5987 48.7545 39.5856C48.7219 39.572 48.691 39.5562 48.6607 39.539C48.6557 39.5358 48.6516 39.5299 48.6435 39.5326C48.6706 39.5566 48.6969 39.5793 48.7237 39.6034C48.7377 39.616 48.7495 39.631 48.7586 39.6477C48.7658 39.661 48.7699 39.6745 48.7594 39.6877C48.7494 39.7008 48.7354 39.7053 48.7195 39.7017C48.6933 39.6958 48.6696 39.6854 48.647 39.6717C48.6257 39.6587 48.6044 39.645 48.5794 39.6292C48.583 39.6414 48.5913 39.6464 48.5972 39.6527C48.6262 39.6831 48.6551 39.7135 48.6728 39.7521C48.6787 39.7638 48.6842 39.777 48.6746 39.7878C48.666 39.7993 48.6524 39.7987 48.6397 39.7969C48.5981 39.7915 48.5613 39.772 48.5228 39.753C48.5323 39.7629 48.5414 39.7724 48.5509 39.782C48.5667 39.7978 48.5804 39.8151 48.5917 39.8346C48.6076 39.8617 48.5972 39.8789 48.5655 39.8786C48.5391 39.8776 48.5169 39.8649 48.4938 39.855C48.4907 39.8531 48.487 39.8513 48.4771 39.8463C48.4902 39.8631 48.5002 39.8735 48.5074 39.8863C48.5187 39.9044 48.526 39.9252 48.5115 39.9439C48.4975 39.962 48.4747 39.9584 48.4563 39.9534C48.4385 39.9484 48.4217 39.9379 48.4032 39.9293C48.4009 39.9433 48.4091 39.9534 48.4118 39.9647C48.4186 39.9874 48.4236 40.0124 48.4027 40.0287C48.381 40.0445 48.3561 40.0382 48.3329 40.0255C48.3248 40.0214 48.3198 40.0124 48.3085 40.0124C48.3053 40.0237 48.3112 40.0327 48.3121 40.0427C48.3157 40.0807 48.2962 40.0967 48.2605 40.0845C48.2383 40.0771 48.2205 40.0626 48.1992 40.0531C48.2187 40.0795 48.2383 40.1057 48.2713 40.1166C48.2958 40.1252 48.3161 40.1174 48.3311 40.0917C48.3401 40.0758 48.3516 40.069 48.3683 40.0685C48.3783 40.0677 48.3878 40.0662 48.3968 40.064C48.4281 40.0549 48.4507 40.0373 48.4563 40.0032C48.4584 39.9914 48.4629 39.9851 48.4756 39.9846C48.5165 39.9843 48.5473 39.9706 48.5527 39.9248C48.5545 39.9135 48.5649 39.913 48.5726 39.9107C48.6071 39.9008 48.6361 39.8872 48.632 39.8432C48.6307 39.8346 48.6379 39.8337 48.6443 39.8328C48.6569 39.8318 48.6696 39.8287 48.6809 39.8228C48.7059 39.8092 48.7168 39.7901 48.7118 39.762C48.7091 39.7462 48.7118 39.7388 48.729 39.7367C48.7462 39.7343 48.763 39.7284 48.7779 39.7194C48.7969 39.7081 48.8102 39.6927 48.8088 39.6696C48.8078 39.6533 48.8152 39.6468 48.8306 39.645C48.8491 39.6423 48.8681 39.6391 48.8853 39.6301C48.9063 39.6192 48.9193 39.6034 48.9111 39.5779C48.9066 39.5639 48.9134 39.5625 48.9253 39.5616C48.9629 39.5589 49.0004 39.5544 49.0363 39.5399C49.0721 39.5254 49.0811 39.509 49.0721 39.4719C49.0689 39.4583 49.0757 39.4574 49.0848 39.4556C49.1205 39.4487 49.1564 39.4414 49.1904 39.4269C49.2071 39.4201 49.2234 39.412 49.2361 39.3984C49.251 39.3826 49.2575 39.3639 49.2465 39.344C49.2374 39.3263 49.2442 39.3209 49.2596 39.315C49.2896 39.304 49.3181 39.2913 49.3444 39.2728C49.3853 39.2434 49.3893 39.2306 49.3679 39.1858C49.3616 39.1731 49.3729 39.1731 49.3789 39.1698C49.4138 39.1517 49.4495 39.1349 49.4794 39.1078C49.4877 39.1004 49.4957 39.0927 49.5026 39.0837C49.5185 39.0615 49.5167 39.0416 49.4931 39.027C49.469 39.0134 49.4776 39.0071 49.4948 38.9975C49.5253 38.9799 49.5529 38.9585 49.5773 38.9336C49.5855 38.925 49.5927 38.9159 49.5983 38.9051C49.6132 38.8751 49.6069 38.8574 49.5696 38.8389H49.5697Z" fill="white"/>
<path d="M49.5697 38.8389C49.5892 38.8688 49.5783 38.8882 49.5602 38.9064C49.5035 38.9654 49.4315 38.9894 49.3531 38.9944C49.2593 39.0003 49.1645 39.0043 49.0708 39.0093C49.0681 39.0093 49.0648 39.0101 49.0618 39.0152C49.079 39.0152 49.0953 39.0144 49.1125 39.0152C49.2181 39.0184 49.3241 39.0184 49.4293 39.0339C49.4474 39.037 49.4732 39.0357 49.4755 39.0588C49.4777 39.0814 49.4564 39.0923 49.4379 39.1C49.4035 39.1155 49.3667 39.1214 49.3296 39.1227C49.2203 39.1268 49.1111 39.1214 49.0024 39.1099C48.9906 39.109 48.9788 39.1099 48.9666 39.1123C49.0168 39.1195 49.0668 39.1268 49.1166 39.134C49.1778 39.1435 49.238 39.1553 49.2961 39.1767C49.3074 39.1808 49.3182 39.1853 49.3287 39.1916C49.3594 39.2093 49.3604 39.2288 49.3309 39.2488C49.3019 39.2687 49.2679 39.2741 49.2335 39.2755C49.1446 39.2791 49.0594 39.2556 48.9747 39.2333C48.9506 39.227 48.9271 39.2206 48.9022 39.2188C48.9162 39.2233 48.9307 39.2288 48.9449 39.2328C49.0141 39.2538 49.0817 39.2782 49.146 39.3117C49.1651 39.3213 49.1828 39.3331 49.1977 39.349C49.2154 39.368 49.2145 39.3806 49.1927 39.3961C49.1746 39.4093 49.1528 39.4152 49.1306 39.4174C49.0948 39.4206 49.0594 39.4184 49.0254 39.4061C48.9657 39.3847 48.9076 39.3589 48.851 39.3304C48.8429 39.3263 48.8343 39.3227 48.8197 39.3164C48.8293 39.3322 48.8397 39.334 48.8479 39.3385C48.9076 39.3729 48.9684 39.4056 49.0205 39.4518C49.0503 39.4786 49.0467 39.5004 49.0091 39.5149C48.9707 39.5299 48.9322 39.5257 48.894 39.5085C48.8492 39.4886 48.8061 39.4651 48.7635 39.4405C48.7572 39.4369 48.7518 39.4296 48.7395 39.4328C48.7663 39.4569 48.7912 39.4796 48.8153 39.5026C48.8364 39.5227 48.8574 39.5435 48.8732 39.5684C48.8877 39.5925 48.8814 39.6061 48.8533 39.6079C48.8179 39.6102 48.7857 39.5987 48.7545 39.5856C48.7219 39.572 48.691 39.5562 48.6607 39.539C48.6557 39.5358 48.6516 39.5299 48.6435 39.5326C48.6706 39.5566 48.6969 39.5793 48.7237 39.6034C48.7377 39.616 48.7495 39.631 48.7586 39.6477C48.7658 39.661 48.7699 39.6745 48.7594 39.6877C48.7494 39.7008 48.7354 39.7053 48.7195 39.7017C48.6933 39.6958 48.6696 39.6854 48.647 39.6717C48.6257 39.6587 48.6044 39.645 48.5794 39.6292C48.583 39.6414 48.5913 39.6464 48.5972 39.6527C48.6262 39.6831 48.6551 39.7135 48.6728 39.7521C48.6787 39.7638 48.6842 39.777 48.6746 39.7878C48.666 39.7993 48.6524 39.7987 48.6397 39.7969C48.5981 39.7915 48.5613 39.772 48.5228 39.753C48.5323 39.7629 48.5414 39.7724 48.5509 39.782C48.5667 39.7978 48.5804 39.8151 48.5917 39.8346C48.6076 39.8617 48.5972 39.8789 48.5655 39.8786C48.5391 39.8776 48.5169 39.8649 48.4938 39.855C48.4907 39.8531 48.487 39.8513 48.4771 39.8463C48.4902 39.8631 48.5002 39.8735 48.5074 39.8863C48.5187 39.9044 48.526 39.9252 48.5115 39.9439C48.4975 39.962 48.4747 39.9584 48.4563 39.9534C48.4385 39.9484 48.4217 39.9379 48.4032 39.9293C48.4009 39.9433 48.4091 39.9534 48.4118 39.9647C48.4186 39.9874 48.4236 40.0124 48.4027 40.0287C48.381 40.0445 48.3561 40.0382 48.3329 40.0255C48.3248 40.0214 48.3198 40.0124 48.3085 40.0124C48.3053 40.0237 48.3112 40.0327 48.3121 40.0427C48.3157 40.0807 48.2962 40.0967 48.2605 40.0845C48.2383 40.0771 48.2205 40.0626 48.1992 40.0531C48.2187 40.0795 48.2383 40.1057 48.2713 40.1166C48.2958 40.1252 48.3161 40.1174 48.3311 40.0917C48.3401 40.0758 48.3516 40.069 48.3683 40.0685C48.3783 40.0677 48.3878 40.0662 48.3968 40.064C48.4281 40.0549 48.4507 40.0373 48.4563 40.0032C48.4584 39.9914 48.4629 39.9851 48.4756 39.9846C48.5165 39.9843 48.5473 39.9706 48.5527 39.9248C48.5545 39.9135 48.5649 39.913 48.5726 39.9107C48.6071 39.9008 48.6361 39.8872 48.632 39.8432C48.6307 39.8346 48.6379 39.8337 48.6443 39.8328C48.6569 39.8318 48.6696 39.8287 48.6809 39.8228C48.7059 39.8092 48.7168 39.7901 48.7118 39.762C48.7091 39.7462 48.7118 39.7388 48.729 39.7367C48.7462 39.7343 48.763 39.7284 48.7779 39.7194C48.7969 39.7081 48.8102 39.6927 48.8088 39.6696C48.8078 39.6533 48.8152 39.6468 48.8306 39.645C48.8491 39.6423 48.8681 39.6391 48.8853 39.6301C48.9063 39.6192 48.9193 39.6034 48.9111 39.5779C48.9066 39.5639 48.9134 39.5625 48.9253 39.5616C48.9629 39.5589 49.0004 39.5544 49.0363 39.5399C49.0721 39.5254 49.0811 39.509 49.0721 39.4719C49.0689 39.4583 49.0757 39.4574 49.0848 39.4556C49.1205 39.4487 49.1564 39.4414 49.1904 39.4269C49.2071 39.4201 49.2234 39.412 49.2361 39.3984C49.251 39.3826 49.2575 39.3639 49.2465 39.344C49.2374 39.3263 49.2442 39.3209 49.2596 39.315C49.2896 39.304 49.3181 39.2913 49.3444 39.2728C49.3853 39.2434 49.3893 39.2306 49.3679 39.1858C49.3616 39.1731 49.3729 39.1731 49.3789 39.1698C49.4138 39.1517 49.4495 39.1349 49.4794 39.1078C49.4877 39.1004 49.4957 39.0927 49.5026 39.0837C49.5185 39.0615 49.5167 39.0416 49.4931 39.027C49.469 39.0134 49.4776 39.0071 49.4948 38.9975C49.5253 38.9799 49.5529 38.9585 49.5773 38.9336C49.5855 38.925 49.5927 38.9159 49.5983 38.9051C49.6132 38.8751 49.6069 38.8574 49.5696 38.8389H49.5697Z" stroke="white" stroke-width="0.2199"/>
<path fill-rule="evenodd" clip-rule="evenodd" d="M48.8847 38.3257C48.902 38.3121 48.9124 38.2945 48.9242 38.2782C48.9731 38.2132 49.0189 38.1471 49.0465 38.0696C49.0574 38.0387 49.0651 38.0075 49.0556 37.9748C49.0479 37.9467 49.0357 37.9435 49.0144 37.9635C48.9808 37.9962 48.9513 38.0324 48.921 38.0677C48.8344 38.1698 48.7302 38.2532 48.6287 38.339C48.5308 38.4219 48.4301 38.5017 48.3441 38.5978C48.244 38.7098 48.1483 38.8263 48.0549 38.9442C47.9516 39.0744 47.8487 39.2054 47.7458 39.336C47.7409 39.3415 47.7368 39.3487 47.7363 39.3587C47.7469 39.3482 47.7567 39.3383 47.7663 39.3273C47.8451 39.2398 47.9235 39.1519 48.0029 39.0644C48.1307 38.9229 48.2598 38.7819 48.388 38.6405C48.5176 38.4972 48.6558 38.3621 48.7923 38.2251C48.8657 38.1512 48.9328 38.0722 48.9989 37.993C49.0076 37.9829 49.0148 37.9712 49.0302 37.9635C49.0357 37.998 49.0248 38.0288 49.0147 38.0586C48.9862 38.1471 48.9405 38.2265 48.8925 38.3054C48.8892 38.3108 48.8824 38.3158 48.8847 38.3257Z" fill="white"/>
<path d="M48.8847 38.3257C48.902 38.3121 48.9124 38.2945 48.9242 38.2782C48.9731 38.2132 49.0189 38.1471 49.0465 38.0696C49.0574 38.0387 49.0651 38.0075 49.0556 37.9748C49.0479 37.9467 49.0357 37.9435 49.0144 37.9635C48.9808 37.9962 48.9513 38.0324 48.921 38.0677C48.8344 38.1698 48.7302 38.2532 48.6287 38.339C48.5308 38.4219 48.4301 38.5017 48.3441 38.5978C48.244 38.7098 48.1483 38.8263 48.0549 38.9442C47.9516 39.0744 47.8487 39.2054 47.7458 39.336C47.7409 39.3415 47.7368 39.3487 47.7363 39.3587C47.7469 39.3482 47.7567 39.3383 47.7663 39.3273C47.8451 39.2398 47.9235 39.1519 48.0029 39.0644C48.1307 38.9229 48.2598 38.7819 48.388 38.6405C48.5176 38.4972 48.6558 38.3621 48.7923 38.2251C48.8657 38.1512 48.9328 38.0722 48.9989 37.993C49.0076 37.9829 49.0148 37.9712 49.0302 37.9635C49.0357 37.998 49.0248 38.0288 49.0147 38.0586C48.9862 38.1471 48.9405 38.2265 48.8925 38.3054C48.8892 38.3108 48.8824 38.3158 48.8847 38.3257V38.3257Z" stroke="white" stroke-width="0.2199"/>
<path fill-rule="evenodd" clip-rule="evenodd" d="M48.521 40.2159C48.5386 40.2199 48.5558 40.2231 48.5726 40.2285C48.6015 40.2376 48.6293 40.2507 48.6424 40.2812C48.6569 40.3151 48.6442 40.3355 48.6074 40.3364C48.5748 40.3379 48.5431 40.3287 48.5128 40.3192C48.5028 40.316 48.4937 40.3101 48.4783 40.3124C48.5173 40.3341 48.5526 40.3537 48.5881 40.3741C48.6302 40.3985 48.67 40.4248 48.7044 40.4593C48.7157 40.4706 48.7258 40.4828 48.7299 40.4992C48.7367 40.5255 48.7243 40.5409 48.6972 40.5405C48.6687 40.54 48.6433 40.5282 48.6178 40.5165C48.5985 40.5069 48.5789 40.4964 48.5572 40.4847C48.559 40.4964 48.5676 40.4992 48.573 40.5033C48.6347 40.5491 48.6936 40.5976 48.7426 40.6584C48.7638 40.6842 48.7779 40.7128 48.7756 40.7477C48.7738 40.7712 48.7657 40.7777 48.7426 40.77C48.708 40.7581 48.6782 40.7377 48.6478 40.7173C48.6297 40.7047 48.6112 40.6928 48.5916 40.6828C48.6189 40.7114 48.6474 40.7382 48.6727 40.7686C48.718 40.8234 48.7525 40.8842 48.7702 40.954C48.7788 40.9894 48.7779 41.0247 48.767 41.0592C48.7602 41.0792 48.753 41.0823 48.7353 41.0696C48.6646 41.0179 48.6107 40.9513 48.5603 40.881C48.5128 40.8134 48.4674 40.744 48.4104 40.6842C48.3596 40.6302 48.2998 40.5899 48.2286 40.5673C48.225 40.5663 48.2209 40.5641 48.2168 40.5673C48.2186 40.575 48.2259 40.5759 48.2309 40.5781C48.3125 40.6139 48.3742 40.6733 48.4267 40.7436C48.4751 40.8093 48.5169 40.8796 48.5685 40.9431C48.6175 41.003 48.6754 41.0529 48.7453 41.0891C48.7638 41.0991 48.772 41.0932 48.7792 41.0764C48.805 41.0157 48.7996 40.9553 48.7797 40.8955C48.7743 40.8783 48.7743 40.8647 48.781 40.8479C48.8114 40.773 48.8037 40.6987 48.7688 40.627C48.7611 40.6107 48.7589 40.5953 48.7598 40.5772C48.7638 40.5092 48.7426 40.4489 48.6949 40.3994C48.6831 40.3881 48.6786 40.3773 48.68 40.3605C48.6841 40.3092 48.6641 40.2657 48.6315 40.2276C48.6198 40.2141 48.6116 40.2008 48.6074 40.1832C48.5881 40.0916 48.5472 40.0693 48.4579 40.0984C48.4203 40.1111 48.3841 40.1278 48.3455 40.137C48.3288 40.1411 48.312 40.1396 48.288 40.1429C48.3147 40.1542 48.3351 40.1483 48.355 40.145C48.3932 40.1387 48.4289 40.1224 48.4661 40.1124C48.4842 40.1079 48.5019 40.1034 48.52 40.1047C48.5513 40.1065 48.5821 40.1382 48.5821 40.1696C48.5821 40.1872 48.5712 40.1972 48.5554 40.2017C48.544 40.2058 48.5323 40.2085 48.521 40.2117C48.521 40.2131 48.521 40.2145 48.521 40.2159Z" fill="white"/>
<path d="M48.521 40.2159C48.5386 40.2199 48.5558 40.2231 48.5726 40.2285C48.6015 40.2376 48.6293 40.2507 48.6424 40.2812C48.6569 40.3151 48.6442 40.3355 48.6074 40.3364C48.5748 40.3379 48.5431 40.3287 48.5128 40.3192C48.5028 40.316 48.4937 40.3101 48.4783 40.3124C48.5173 40.3341 48.5526 40.3537 48.5881 40.3741C48.6302 40.3985 48.67 40.4248 48.7044 40.4593C48.7157 40.4706 48.7258 40.4828 48.7299 40.4992C48.7367 40.5255 48.7243 40.5409 48.6972 40.5405C48.6687 40.54 48.6433 40.5282 48.6178 40.5165C48.5985 40.5069 48.5789 40.4964 48.5572 40.4847C48.559 40.4964 48.5676 40.4992 48.573 40.5033C48.6347 40.5491 48.6936 40.5976 48.7426 40.6584C48.7638 40.6842 48.7779 40.7128 48.7756 40.7477C48.7738 40.7712 48.7657 40.7777 48.7426 40.77C48.708 40.7581 48.6782 40.7377 48.6478 40.7173C48.6297 40.7047 48.6112 40.6928 48.5916 40.6828C48.6189 40.7114 48.6474 40.7382 48.6727 40.7686C48.718 40.8234 48.7525 40.8842 48.7702 40.954C48.7788 40.9894 48.7779 41.0247 48.767 41.0592C48.7602 41.0792 48.753 41.0823 48.7353 41.0696C48.6646 41.0179 48.6107 40.9513 48.5603 40.881C48.5128 40.8134 48.4674 40.744 48.4104 40.6842C48.3596 40.6302 48.2998 40.5899 48.2286 40.5673C48.225 40.5663 48.2209 40.5641 48.2168 40.5673C48.2186 40.575 48.2259 40.5759 48.2309 40.5781C48.3125 40.6139 48.3742 40.6733 48.4267 40.7436C48.4751 40.8093 48.5169 40.8796 48.5685 40.9431C48.6175 41.003 48.6754 41.0529 48.7453 41.0891C48.7638 41.0991 48.772 41.0932 48.7792 41.0764C48.805 41.0157 48.7996 40.9553 48.7797 40.8955C48.7743 40.8783 48.7743 40.8647 48.781 40.8479C48.8114 40.773 48.8037 40.6987 48.7688 40.627C48.7611 40.6107 48.7589 40.5953 48.7598 40.5772C48.7638 40.5092 48.7426 40.4489 48.6949 40.3994C48.6831 40.3881 48.6786 40.3773 48.68 40.3605C48.6841 40.3092 48.6641 40.2657 48.6315 40.2276C48.6198 40.2141 48.6116 40.2008 48.6074 40.1832C48.5881 40.0916 48.5472 40.0693 48.4579 40.0984C48.4203 40.1111 48.3841 40.1278 48.3455 40.137C48.3288 40.1411 48.312 40.1396 48.288 40.1429C48.3147 40.1542 48.3351 40.1483 48.355 40.145C48.3932 40.1387 48.4289 40.1224 48.4661 40.1124C48.4842 40.1079 48.5019 40.1034 48.52 40.1047C48.5513 40.1065 48.5821 40.1382 48.5821 40.1696C48.5821 40.1872 48.5712 40.1972 48.5554 40.2017C48.544 40.2058 48.5323 40.2085 48.521 40.2117C48.521 40.2131 48.521 40.2145 48.521 40.2159Z" stroke="white" stroke-width="0.2199"/>
<path fill-rule="evenodd" clip-rule="evenodd" d="M48.1223 40.5259C48.0954 40.5118 48.0687 40.4986 48.042 40.485C47.8961 40.4134 47.7525 40.3377 47.6183 40.2452C47.4864 40.1532 47.3772 40.042 47.317 39.8902C47.2865 39.8149 47.2372 39.7532 47.1842 39.6947C47.1284 39.6335 47.0795 39.5673 47.0387 39.4957C47.0219 39.4676 47.002 39.4421 46.9766 39.4204C46.9911 39.4485 47.007 39.4757 47.021 39.5038C47.0681 39.5985 47.1339 39.6798 47.2046 39.7569C47.2471 39.8027 47.2829 39.852 47.3034 39.9124C47.3568 40.0724 47.4647 40.1894 47.6015 40.2832C47.7376 40.3767 47.8862 40.4452 48.0402 40.5028C48.0665 40.5127 48.0933 40.5218 48.12 40.5313C48.1203 40.529 48.1214 40.5272 48.1223 40.5259Z" fill="white"/>
<path d="M48.1223 40.5259C48.0954 40.5118 48.0687 40.4986 48.042 40.485C47.8961 40.4134 47.7525 40.3377 47.6183 40.2452C47.4864 40.1532 47.3772 40.042 47.317 39.8902C47.2865 39.8149 47.2372 39.7532 47.1842 39.6947C47.1284 39.6335 47.0795 39.5673 47.0387 39.4957C47.0219 39.4676 47.002 39.4421 46.9766 39.4204C46.9911 39.4485 47.007 39.4757 47.021 39.5038C47.0681 39.5985 47.1339 39.6798 47.2046 39.7569C47.2471 39.8027 47.2829 39.852 47.3034 39.9124C47.3568 40.0724 47.4647 40.1894 47.6015 40.2832C47.7376 40.3767 47.8862 40.4452 48.0402 40.5028C48.0665 40.5127 48.0933 40.5218 48.12 40.5313C48.1203 40.529 48.1214 40.5272 48.1223 40.5259V40.5259Z" stroke="white" stroke-width="0.2199"/>
<path fill-rule="evenodd" clip-rule="evenodd" d="M46.9039 39.3955C46.9162 39.3958 46.9288 39.395 46.9447 39.395C46.9135 39.3728 46.8913 39.3701 46.8146 39.3914C46.8223 39.3783 46.8305 39.3661 46.84 39.3552C46.8459 39.3479 46.8522 39.3412 46.8599 39.3362C46.8655 39.3315 46.8712 39.3275 46.878 39.3243C46.8926 39.3166 46.9062 39.3089 46.9008 39.2881C46.8985 39.279 46.9058 39.2721 46.9107 39.265C46.9746 39.1824 47.058 39.1606 47.1559 39.1851C47.2402 39.2065 47.3145 39.2486 47.3893 39.2903C47.4713 39.3347 47.5528 39.381 47.6426 39.4096C47.6462 39.411 47.6498 39.4113 47.6539 39.4122C47.5869 39.3751 47.5216 39.3347 47.4558 39.2953C47.382 39.2509 47.3081 39.2056 47.2274 39.1747C47.174 39.1543 47.1197 39.1389 47.0607 39.1457C46.9883 39.1543 46.9388 39.1955 46.9039 39.2558C46.8907 39.2786 46.8703 39.2935 46.8558 39.3143L46.8237 39.3552C46.8169 39.3679 46.8092 39.3796 46.8029 39.3923C46.8002 39.3968 46.7961 39.4023 46.8014 39.4074C46.8055 39.411 46.8106 39.4082 46.815 39.4074C46.8296 39.4036 46.8445 39.4006 46.8599 39.3982C46.8599 39.3982 46.8789 39.395 46.8853 39.3946C46.8898 39.3942 46.8989 39.395 46.9038 39.3955L46.9039 39.3955Z" fill="white"/>
<path d="M46.9039 39.3955C46.9162 39.3958 46.9288 39.395 46.9447 39.395C46.9135 39.3728 46.8913 39.3701 46.8146 39.3914C46.8223 39.3783 46.8305 39.3661 46.84 39.3552C46.8459 39.3479 46.8522 39.3412 46.8599 39.3362C46.8655 39.3315 46.8712 39.3275 46.878 39.3243C46.8926 39.3166 46.9062 39.3089 46.9008 39.2881C46.8985 39.279 46.9058 39.2721 46.9107 39.265C46.9746 39.1824 47.058 39.1606 47.1559 39.1851C47.2402 39.2065 47.3145 39.2486 47.3893 39.2903C47.4713 39.3347 47.5528 39.381 47.6426 39.4096C47.6462 39.411 47.6498 39.4113 47.6539 39.4122C47.5869 39.3751 47.5216 39.3347 47.4558 39.2953C47.382 39.2509 47.3081 39.2056 47.2274 39.1747C47.174 39.1543 47.1197 39.1389 47.0607 39.1457C46.9883 39.1543 46.9388 39.1955 46.9039 39.2558C46.8907 39.2786 46.8703 39.2935 46.8558 39.3143L46.8237 39.3552C46.8169 39.3679 46.8092 39.3796 46.8029 39.3923C46.8002 39.3968 46.7961 39.4023 46.8014 39.4074C46.8055 39.411 46.8106 39.4082 46.815 39.4074C46.8296 39.4036 46.8445 39.4006 46.8599 39.3982C46.8599 39.3982 46.8789 39.395 46.8853 39.3946C46.8898 39.3942 46.8989 39.395 46.9038 39.3955L46.9039 39.3955Z" stroke="white" stroke-width="0.2199"/>
<path fill-rule="evenodd" clip-rule="evenodd" d="M49.293 38.5893C49.3452 38.5939 49.3969 38.5875 49.4481 38.5803C49.5461 38.5663 49.6419 38.539 49.7376 38.5153C49.7516 38.5117 49.7653 38.5085 49.7794 38.5063C49.7875 38.5048 49.7979 38.4972 49.8025 38.5081C49.8065 38.5172 49.7966 38.5235 49.7902 38.529C49.7535 38.5616 49.7085 38.5803 49.6642 38.5999C49.5992 38.6279 49.5326 38.6547 49.4667 38.6816C49.4567 38.6861 49.4472 38.6911 49.4391 38.6992C49.4867 38.6838 49.5348 38.6692 49.5825 38.6525C49.646 38.6306 49.7108 38.6121 49.7685 38.5753C49.7889 38.5625 49.8074 38.5476 49.818 38.5253C49.8302 38.5004 49.8247 38.4909 49.7975 38.4918C49.7526 38.4926 49.7094 38.5031 49.6663 38.5126C49.5561 38.5367 49.4468 38.5634 49.3351 38.5803C49.3211 38.5821 49.3057 38.5803 49.293 38.5893Z" fill="white"/>
<path d="M49.293 38.5893C49.3452 38.5939 49.3969 38.5875 49.4481 38.5803C49.5461 38.5663 49.6419 38.539 49.7376 38.5153C49.7516 38.5117 49.7653 38.5085 49.7794 38.5063C49.7875 38.5048 49.7979 38.4972 49.8025 38.5081C49.8065 38.5172 49.7966 38.5235 49.7902 38.529C49.7535 38.5616 49.7085 38.5803 49.6642 38.5999C49.5992 38.6279 49.5326 38.6547 49.4667 38.6816C49.4567 38.6861 49.4472 38.6911 49.4391 38.6992C49.4867 38.6838 49.5348 38.6692 49.5825 38.6525C49.646 38.6306 49.7108 38.6121 49.7685 38.5753C49.7889 38.5625 49.8074 38.5476 49.818 38.5253C49.8302 38.5004 49.8247 38.4909 49.7975 38.4918C49.7526 38.4926 49.7094 38.5031 49.6663 38.5126C49.5561 38.5367 49.4468 38.5634 49.3351 38.5803C49.3211 38.5821 49.3057 38.5803 49.293 38.5893V38.5893Z" stroke="white" stroke-width="0.2199"/>
<path fill-rule="evenodd" clip-rule="evenodd" d="M49.388 38.7226C49.5246 38.748 49.6602 38.7236 49.7995 38.7031C49.7891 38.7266 49.7724 38.7343 49.7564 38.7417C49.7083 38.7643 49.6575 38.7807 49.6067 38.7948C49.5295 38.8166 49.452 38.837 49.3748 38.8579C49.3699 38.8597 49.3644 38.8611 49.3594 38.8629C49.3617 38.8679 49.3649 38.8669 49.3676 38.8665C49.4997 38.8392 49.6317 38.8142 49.7573 38.7625C49.7742 38.7557 49.79 38.7471 49.8041 38.7349C49.8118 38.728 49.8196 38.7194 49.8158 38.7081C49.8122 38.6962 49.8004 38.6959 49.79 38.6948C49.7338 38.6921 49.677 38.6953 49.6212 38.7007C49.5487 38.7076 49.4751 38.7167 49.4017 38.7198C49.3971 38.7198 49.3926 38.7217 49.388 38.7226Z" fill="white"/>
<path d="M49.388 38.7226C49.5246 38.748 49.6602 38.7236 49.7995 38.7031C49.7891 38.7266 49.7724 38.7343 49.7564 38.7417C49.7083 38.7643 49.6575 38.7807 49.6067 38.7948C49.5295 38.8166 49.452 38.837 49.3748 38.8579C49.3699 38.8597 49.3644 38.8611 49.3594 38.8629C49.3617 38.8679 49.3649 38.8669 49.3676 38.8665C49.4997 38.8392 49.6317 38.8142 49.7573 38.7625C49.7742 38.7557 49.79 38.7471 49.8041 38.7349C49.8118 38.728 49.8196 38.7194 49.8158 38.7081C49.8122 38.6962 49.8004 38.6959 49.79 38.6948C49.7338 38.6921 49.677 38.6953 49.6212 38.7007C49.5487 38.7076 49.4751 38.7167 49.4017 38.7198C49.3971 38.7198 49.3926 38.7217 49.388 38.7226V38.7226Z" stroke="white" stroke-width="0.2199"/>
<path fill-rule="evenodd" clip-rule="evenodd" d="M48.8457 38.3882C48.9155 38.3645 48.9809 38.3309 49.0435 38.2923C49.0979 38.2583 49.1516 38.2229 49.2065 38.1892C49.2142 38.1838 49.2255 38.1725 49.2332 38.1802C49.2422 38.1903 49.2318 38.2029 49.225 38.2124C49.1923 38.2592 49.1483 38.2964 49.1053 38.3336C49.0571 38.3745 49.0081 38.4149 48.9577 38.4576C48.9687 38.4604 48.9728 38.4545 48.9768 38.4518C49.053 38.3945 49.1347 38.344 49.2024 38.2769C49.2187 38.2605 49.2332 38.2424 49.244 38.2219C49.2496 38.2111 49.2532 38.1998 49.2541 38.188C49.2549 38.1675 49.2481 38.1621 49.2286 38.1675C49.1973 38.1761 49.1697 38.1915 49.1424 38.207C49.0421 38.2655 48.9469 38.3305 48.8457 38.3882Z" fill="white"/>
<path d="M48.8457 38.3882C48.9155 38.3645 48.9809 38.3309 49.0435 38.2923C49.0979 38.2583 49.1516 38.2229 49.2065 38.1892C49.2142 38.1838 49.2255 38.1725 49.2332 38.1802C49.2422 38.1903 49.2318 38.2029 49.225 38.2124C49.1923 38.2592 49.1483 38.2964 49.1053 38.3336C49.0571 38.3745 49.0081 38.4149 48.9577 38.4576C48.9687 38.4604 48.9728 38.4545 48.9768 38.4518C49.053 38.3945 49.1347 38.344 49.2024 38.2769C49.2187 38.2605 49.2332 38.2424 49.244 38.2219C49.2496 38.2111 49.2532 38.1998 49.2541 38.188C49.2549 38.1675 49.2481 38.1621 49.2286 38.1675C49.1973 38.1761 49.1697 38.1915 49.1424 38.207C49.0421 38.2655 48.9469 38.3305 48.8457 38.3882V38.3882Z" stroke="white" stroke-width="0.2199"/>
<path fill-rule="evenodd" clip-rule="evenodd" d="M48.1152 39.2048C48.1583 39.193 48.1965 39.1721 48.2328 39.1486C48.3058 39.1022 48.3734 39.0487 48.4483 39.0046C48.51 38.9688 48.5726 38.9379 48.6429 38.9243C48.6462 38.9243 48.6498 38.9243 48.6516 38.918C48.5912 38.9202 48.5358 38.9379 48.4823 38.9615C48.3762 39.0078 48.2854 39.0791 48.1937 39.1477C48.1678 39.1671 48.1411 39.1858 48.1152 39.2048Z" fill="white"/>
<path d="M48.1152 39.2048C48.1583 39.193 48.1965 39.1721 48.2328 39.1486C48.3058 39.1022 48.3734 39.0487 48.4483 39.0046C48.51 38.9688 48.5726 38.9379 48.6429 38.9243C48.6462 38.9243 48.6498 38.9243 48.6516 38.918C48.5912 38.9202 48.5358 38.9379 48.4823 38.9615C48.3762 39.0078 48.2854 39.0791 48.1937 39.1477C48.1678 39.1671 48.1411 39.1858 48.1152 39.2048V39.2048Z" stroke="white" stroke-width="0.2199"/>
<path fill-rule="evenodd" clip-rule="evenodd" d="M47.8223 39.6694C47.9107 39.7793 48.017 39.8701 48.119 39.9668C48.119 39.9437 48.0968 39.9009 48.0696 39.8706C48.0373 39.8343 47.9992 39.8047 47.9606 39.7757C47.9143 39.7402 47.8686 39.7044 47.8223 39.6694Z" fill="white"/>
<path d="M47.8223 39.6694C47.9107 39.7793 48.017 39.8701 48.119 39.9668C48.119 39.9437 48.0968 39.9009 48.0696 39.8706C48.0373 39.8343 47.9992 39.8047 47.9606 39.7757C47.9143 39.7402 47.8686 39.7044 47.8223 39.6694V39.6694Z" stroke="white" stroke-width="0.2199"/>
<path fill-rule="evenodd" clip-rule="evenodd" d="M47.9106 40.4683C47.8838 40.4968 47.8603 40.524 47.8517 40.5613C47.8449 40.5917 47.8553 40.6157 47.8788 40.6339C47.9265 40.6707 47.9836 40.6784 48.0409 40.6861C48.0032 40.6675 47.9646 40.6525 47.9305 40.6276C47.8933 40.6008 47.8829 40.5694 47.8978 40.5286C47.9016 40.5173 47.9061 40.5064 47.9093 40.495C47.9115 40.4877 47.9165 40.4809 47.9106 40.4683H47.9106Z" fill="white"/>
<path d="M47.9106 40.4683C47.8838 40.4968 47.8603 40.524 47.8517 40.5613C47.8449 40.5917 47.8553 40.6157 47.8788 40.6339C47.9265 40.6707 47.9836 40.6784 48.0409 40.6861C48.0032 40.6675 47.9646 40.6525 47.9305 40.6276C47.8933 40.6008 47.8829 40.5694 47.8978 40.5286C47.9016 40.5173 47.9061 40.5064 47.9093 40.495C47.9115 40.4877 47.9165 40.4809 47.9106 40.4683H47.9106Z" stroke="white" stroke-width="0.2199"/>
<path fill-rule="evenodd" clip-rule="evenodd" d="M47.9566 40.5508C47.9461 40.6047 47.9916 40.6525 48.0578 40.6765C48.0406 40.6507 48.0156 40.6383 47.997 40.6198C47.9779 40.6011 47.9607 40.5797 47.9566 40.5508Z" fill="white"/>
<path d="M47.9566 40.5508C47.9461 40.6047 47.9916 40.6525 48.0578 40.6765C48.0406 40.6507 48.0156 40.6383 47.997 40.6198C47.9779 40.6011 47.9607 40.5797 47.9566 40.5508V40.5508Z" stroke="white" stroke-width="0.2199"/>
<path fill-rule="evenodd" clip-rule="evenodd" d="M72.6384 48.542C71.3079 52.6256 68.1434 54.2458 64.2041 54.801C62.8437 54.9925 61.5036 54.8147 60.1842 54.4475C57.3555 53.6586 55.8268 51.7018 55.31 48.9066C54.8562 46.4506 55.3651 44.0632 56.013 41.7015C56.0436 41.5904 56.1017 41.4827 56.1647 41.385C56.3368 41.1177 56.5875 41.0219 56.876 41.1521C57.1677 41.2839 57.0831 41.5286 57.003 41.7612C56.529 43.1435 56.2608 44.5627 56.1882 46.0241C56.1266 47.2689 56.2105 48.4994 56.4863 49.7122C56.734 50.8026 57.4333 51.5934 58.2795 52.2674C62.3825 55.536 68.4766 54.516 71.3411 50.1108C72.2021 48.7861 72.2964 47.4582 71.6469 46.0356C71.1928 45.0403 70.6227 44.0889 70.4513 42.9798C70.3399 42.2558 70.3943 41.5688 70.8165 40.9466C70.888 40.8415 70.9416 40.6562 71.1029 40.7013C71.2848 40.7512 71.2687 40.9544 71.2751 41.1024C71.2818 41.2568 71.2613 41.4208 71.2136 41.5677C70.9055 42.5198 71.0619 43.429 71.4521 44.3167C71.8757 45.2811 72.3254 46.2344 72.6384 47.2432C72.7271 47.4721 72.7271 47.7867 72.7271 47.8852C72.7271 48.0033 72.7271 48.3205 72.6384 48.542Z" fill="white" stroke="white" stroke-width="1.4475"/>
<path fill-rule="evenodd" clip-rule="evenodd" d="M12.3438 46.0021C12.6752 45.3418 13.189 44.8632 13.7762 44.5209C15.9489 43.2545 17.0311 41.2768 17.6686 38.9335C18.4529 36.0506 19.4441 33.2393 21.0851 30.7107C22.844 27.9993 25.1042 25.8889 28.262 24.9088C30.9693 24.0682 33.6168 24.4733 36.233 25.3431C38.2113 26.0003 40.075 26.9189 41.92 27.8763C42.8381 28.3527 43.3683 28.1536 43.7561 27.1691C44.0431 26.4403 44.2763 25.6961 44.7845 25.0695C46.3076 23.1917 48.9609 22.7626 50.981 24.0972C51.4393 24.4003 51.8716 24.7432 52.3302 25.046C52.9055 25.4259 53.4856 25.4791 54.166 25.2193C58.0502 23.7374 62.1447 26.5293 62.1525 30.6402C62.1528 30.8191 62.2638 31.0856 62.0318 31.1621C61.7564 31.2534 61.6025 30.9992 61.5048 30.7927C61.3722 30.5116 61.272 30.2115 61.1923 29.9099C60.3059 26.551 56.7018 24.8913 53.5997 26.4432C53.2122 26.637 52.9666 26.5953 52.6737 26.3205C52.1287 25.8105 51.5776 25.3044 51.003 24.8286C48.7556 22.9658 45.5155 23.9529 44.6675 26.7475C44.5029 27.291 44.3485 27.839 44.1526 28.3706C44.0069 28.7638 43.7566 29.1005 43.3567 29.2799C43.0252 29.4285 42.7025 29.4704 42.5292 29.0483C42.4707 28.9067 42.3645 28.838 42.2431 28.7702C39.664 27.3421 37.0434 26.0008 34.1113 25.4564C30.8201 24.845 27.6842 25.1646 24.9461 27.2995C23.0639 28.7676 21.7993 30.7349 20.6955 32.8136C19.6783 34.7297 19.0003 36.7664 18.4671 38.8664C17.6416 42.1198 15.6908 44.4897 12.6701 45.9663C12.6009 45.9999 12.5264 46.0229 12.453 46.0468C12.4394 46.0509 12.4194 46.0341 12.3438 46.0021Z" fill="white" stroke="white" stroke-width="1.4475"/>
<path fill-rule="evenodd" clip-rule="evenodd" d="M67.5185 44.5799C67.8297 44.0516 68.2287 44.1105 68.6267 44.2615C69.55 44.613 70.1468 45.7139 70.0294 46.8148C69.8327 48.662 68.105 50.4287 65.9932 50.9416C64.1399 51.392 62.2159 50.6337 61.1543 49.0475C60.2892 47.755 60.3391 46.3831 60.7967 44.9825C61.5013 42.8225 62.3597 40.7125 62.8962 38.4981C63.1179 37.5825 63.3421 36.6706 63.3325 35.7158C63.3265 35.0936 63.214 34.5076 62.9223 33.9585C62.8205 33.7669 62.6614 33.5633 62.9658 33.4221C63.2531 33.2886 63.4353 33.4831 63.5147 33.7105C63.7033 34.2503 63.7658 34.8174 63.7878 35.3893C63.8698 37.5336 63.2509 39.5363 62.5553 41.5236C62.1283 42.7442 61.6167 43.9345 61.2672 45.1816C60.6994 47.2096 61.2035 48.7921 62.7367 49.8069C64.2361 50.7985 66.2767 50.6524 67.7797 49.4322C68.4296 48.9047 68.9284 48.2657 69.2429 47.4736C69.706 46.3063 69.3044 44.7458 67.5185 44.5799Z" fill="white" stroke="white" stroke-width="1.4475"/>
</svg>
