<svg width="10" height="14" viewBox="0 0 10 14" fill="none" xmlns="http://www.w3.org/2000/svg">
<path d="M6.34752 6.99704L1.11016 12.2346C0.965944 12.3785 0.886612 12.5709 0.886612 12.776C0.886612 12.9812 0.965944 13.1734 1.11016 13.3175L1.56908 13.7762C1.71307 13.9206 1.90554 14 2.11064 14C2.31575 14 2.50799 13.9206 2.65209 13.7762L8.88801 7.54042C9.03267 7.39587 9.11189 7.20271 9.11132 6.99738C9.11189 6.79114 9.03279 6.59821 8.88801 6.45354L2.65789 0.22377C2.5138 0.0794455 2.32155 -2.26744e-06 2.11633 -2.2495e-06C1.91123 -2.23157e-06 1.71898 0.0794455 1.57477 0.22377L1.11596 0.682469C0.817407 0.981023 0.817407 1.46704 1.11596 1.76548L6.34752 6.99704Z" fill="white"/>
</svg>
