<svg width="64" height="63" viewBox="0 0 64 63" fill="none" xmlns="http://www.w3.org/2000/svg">
<path d="M47.6677 5.43195L51.392 9.15625L44.7031 15.8452L40.6406 11.7827L30.3544 22.0689C28.897 21.1437 27.2151 20.5434 25.4062 20.3789V18.2969H28.4531C32.3734 18.2969 35.5625 15.1078 35.5625 11.1875V10.1719H30.4844C28.4958 10.1719 26.6981 10.9945 25.4062 12.3148V10.1719V9.15625C25.4062 4.11672 21.3052 0.015625 16.2656 0.015625H9.15625V1.03125C9.15625 6.07078 13.2573 10.1719 18.2969 10.1719H23.375V16.3773C22.0831 15.057 20.2855 14.2344 18.2969 14.2344H13.2188V15.25C13.2188 18.501 15.4145 21.2432 18.3995 22.0862C15.2896 24.0717 13.2188 27.5452 13.2188 31.5C13.2188 32.8142 13.4584 34.0695 13.8769 35.2416C9.25273 36.898 6.10938 41.2866 6.10938 46.2895V46.7344V47.5002V55.875C6.10938 56.9952 5.19836 57.9062 4.07812 57.9062C2.95789 57.9062 2.04688 56.9952 2.04688 55.875C2.04688 54.7548 2.95789 53.8438 4.07812 53.8438V51.8125C1.83766 51.8125 0.015625 53.6345 0.015625 55.875C0.015625 58.1155 1.83766 59.9375 4.07812 59.9375C6.31859 59.9375 8.14062 58.1155 8.14062 55.875V54.0936C9.57672 56.2091 11.6902 57.8504 14.2344 58.671V59.9375C14.2344 61.6173 15.6014 62.9844 17.2812 62.9844H19.3125C20.9923 62.9844 22.3594 61.6173 22.3594 59.9375V58.9219H32.5156V59.9375C32.5156 61.6173 33.8827 62.9844 35.5625 62.9844H37.5938C39.2736 62.9844 40.6406 61.6173 40.6406 59.9375V58.864C44.2552 58.4537 47.3539 55.8801 48.3695 52.3254L48.5158 51.8125H49.7812C51.4611 51.8125 52.8281 50.4455 52.8281 48.7656V44.7031C52.8281 43.0233 51.4611 41.6562 49.7812 41.6562H48.5889C47.7337 38.0833 44.8788 35.3157 41.315 34.6413C40.1623 32.3673 37.9949 30.8652 35.5137 30.5514C35.4487 29.7846 35.3076 29.0402 35.0953 28.3241L40.6406 22.7798L44.7031 26.8423L56.8906 14.6548L60.6149 18.3791L63.2048 2.84312L47.6677 5.43195ZM30.4844 12.2031H33.4287C32.9574 14.5177 30.9048 16.2656 28.4531 16.2656H25.5088C25.9801 13.951 28.0316 12.2031 30.4844 12.2031ZM18.2969 8.14062C14.7209 8.14062 11.7542 5.48781 11.2596 2.04688H16.2656C19.8416 2.04688 22.8083 4.69969 23.3029 8.14062H18.2969ZM15.3526 16.2656H18.2969C20.7496 16.2656 22.8012 18.0135 23.2724 20.3281H20.3281C17.8754 20.3281 15.8238 18.5802 15.3526 16.2656ZM24.3906 22.3594C29.4302 22.3594 33.5312 26.4605 33.5312 31.5C33.5312 36.5395 29.4302 40.6406 24.3906 40.6406C19.3511 40.6406 15.25 36.5395 15.25 31.5C15.25 26.4605 19.3511 22.3594 24.3906 22.3594ZM39.5184 35.5869L39.9754 36.502L40.5137 36.57C43.7149 36.9742 46.2773 39.5427 46.7455 42.8151L46.8695 43.6875H49.7812C50.3409 43.6875 50.7969 44.1435 50.7969 44.7031V48.7656C50.7969 49.3252 50.3409 49.7812 49.7812 49.7812H46.9842L46.4165 51.7678C45.5542 54.7842 42.7623 56.8906 39.625 56.8906H38.6094V59.9375C38.6094 60.4971 38.1534 60.9531 37.5938 60.9531H35.5625C35.0029 60.9531 34.5469 60.4971 34.5469 59.9375V56.8906H20.3281V59.9375C20.3281 60.4971 19.8721 60.9531 19.3125 60.9531H17.2812C16.7216 60.9531 16.2656 60.4971 16.2656 59.9375V57.113L15.4968 56.9211C11.1652 55.8384 8.14062 51.9638 8.14062 47.5002V46.7344V46.2895C8.14062 42.0899 10.8158 38.4134 14.733 37.091C15.5506 38.4966 16.6607 39.7093 17.9871 40.6406H13.2188V42.6719H35.5625V40.6406H30.7941C33.388 38.8176 35.1786 35.9261 35.5066 32.607C37.2271 32.9046 38.716 33.9852 39.5184 35.5869ZM59.2601 14.1521L56.8906 11.7827L44.7031 23.9702L40.6406 19.9077L34.2635 26.2848C33.6724 25.1696 32.8934 24.1723 31.9753 23.3202L40.6406 14.6548L44.7031 18.7173L54.2642 9.15625L51.8948 6.7868L60.7327 5.31414L59.2601 14.1521Z" fill="#B7BEC5"/>
</svg>
