<svg width="25" height="28" viewBox="0 0 25 28" fill="none" xmlns="http://www.w3.org/2000/svg">
<path d="M3.10696 27.4746C2.65312 27.4738 2.20733 27.3562 1.81342 27.1336C0.926417 26.637 0.375 25.673 0.375 24.6265V3.44789C0.375 2.39846 0.926417 1.43739 1.81342 0.940786C2.21671 0.711792 2.67485 0.594031 3.13996 0.599812C3.60508 0.605593 4.06008 0.734704 4.45741 0.97365L22.7776 11.8083C23.1594 12.0448 23.4742 12.3733 23.6924 12.7629C23.9105 13.1525 24.025 13.5905 24.025 14.0357C24.025 14.481 23.9105 14.9189 23.6924 15.3085C23.4742 15.6981 23.1594 16.0266 22.7776 16.2631L4.45445 27.1007C4.04784 27.3436 3.5821 27.4728 3.10696 27.4746Z" fill="white"/>
</svg>
