<svg width="8" height="12" viewBox="0 0 8 12" fill="none" xmlns="http://www.w3.org/2000/svg">
<path d="M2.84359 6.00254L7.33276 1.51317C7.45637 1.38985 7.52437 1.22498 7.52437 1.04917C7.52437 0.873269 7.45637 0.708489 7.33276 0.584977L6.93939 0.191806C6.81598 0.0680987 6.651 1.07992e-06 6.4752 1.04918e-06C6.29939 1.01844e-06 6.13461 0.0680985 6.0111 0.191806L0.666026 5.53678C0.542026 5.66068 0.474123 5.82624 0.474611 6.00224C0.474123 6.17902 0.541928 6.34439 0.666026 6.46839L6.00612 11.8082C6.12964 11.9319 6.29442 12 6.47032 12C6.64612 12 6.8109 11.9319 6.93451 11.8082L7.32778 11.415C7.58368 11.1591 7.58368 10.7425 7.32778 10.4867L2.84359 6.00254Z" fill="#898B94"/>
</svg>
