<svg width="22" height="20" viewBox="0 0 22 20" fill="none" xmlns="http://www.w3.org/2000/svg">
<path d="M18.8522 12.0427L20.0259 9.59736C20.2223 9.18719 19.8442 8.74968 19.2893 8.74968H16.4165C16.9567 8.01138 17.2906 7.1637 17.2906 6.24961V6.23789C19.2156 5.93319 20.4335 5.49177 20.4335 4.99957C20.4335 4.48003 19.0929 4.01908 16.9911 3.71047C16.5393 2.42919 15.6652 1.14009 14.9973 0.476007C14.5308 0.0111497 13.7254 -0.133386 13.0576 0.132247L11.7022 0.671325C11.2603 0.847111 10.7397 0.847111 10.2978 0.671325L8.94241 0.132247C8.27455 -0.133386 7.4692 0.0111497 7.00268 0.476007C6.33973 1.14009 5.46071 2.42919 5.00893 3.71047C2.91205 4.01908 1.57143 4.48003 1.57143 4.99957C1.57143 5.49177 2.78929 5.93319 4.71428 6.23789V6.24961C4.71428 7.1637 5.04821 8.01138 5.58839 8.74968H2.76473C2.2 8.74968 1.82187 9.20673 2.04286 9.6208L3.30982 11.9724C1.34062 12.8826 0 14.5584 0 16.4999V18.25C0 19.2148 0.987053 20 2.2 20H19.8C21.0129 20 22 19.2148 22 18.25V16.4999C22 14.6092 20.733 12.9685 18.8522 12.0427ZM8.64286 18.75L6.6 11.2498L9.03571 12.4998L10.2143 14.0623L8.64286 18.75ZM13.3571 18.75L11.7857 14.0623L12.9643 12.4998L15.4 11.2498L13.3571 18.75ZM15.4049 7.08948C15.2134 7.55433 15.0612 8.05044 14.5946 8.3942C14.0987 8.75749 12.2375 9.26923 11.4518 7.41761C11.3143 7.08948 10.6955 7.08948 10.5531 7.41761C9.7183 9.3786 7.80312 8.68327 7.41027 8.3942C6.94375 8.05044 6.78661 7.55433 6.6 7.08948C6.56071 6.99182 6.29062 6.86681 6.29062 6.86291V6.44102C7.68036 6.58165 9.28616 6.66759 11.0049 6.66759C12.7237 6.66759 14.3295 6.58556 15.7192 6.44102V6.86291C15.7143 6.86681 15.4442 6.98791 15.4049 7.08948Z" fill="#ADB5BD"/>
</svg>
