<svg width="40" height="40" viewBox="0 0 40 40" fill="none" xmlns="http://www.w3.org/2000/svg">
<g clip-path="url(#clip0)">
<path d="M35.0147 16.617C34.9131 16.1483 34.5693 15.7733 34.1162 15.6248L33.8037 15.5233C33.7178 15.492 33.6475 15.4295 33.6084 15.3436C33.5693 15.2576 33.5693 15.1639 33.6006 15.0779L34.6006 11.5389C34.71 11.2029 34.6787 10.8358 34.5225 10.5233C34.3584 10.2108 34.085 9.96857 33.7412 9.85919L30.5693 8.83575C30.2334 8.72638 29.8662 8.75763 29.5459 8.92169C29.2334 9.08575 28.9912 9.367 28.8896 9.71075L27.0771 15.7654C26.9365 16.1873 26.9678 16.6483 27.1631 17.0545C27.3584 17.4529 27.71 17.7576 28.1396 17.8983C28.2256 17.9217 28.2959 17.9842 28.3428 18.0623C28.3818 18.1404 28.3896 18.2342 28.3584 18.3201L26.8818 22.8904C26.7568 23.2733 26.9053 23.6873 27.2412 23.8983C27.5771 24.1092 28.0146 24.0623 28.3037 23.7889L30.3584 21.8592C30.4053 21.7733 30.4912 21.7029 30.6084 21.6873C30.6396 21.6483 30.6709 21.6092 30.7178 21.5858C30.7412 21.5467 30.7646 21.5076 30.7959 21.4764C30.8428 21.3748 30.9365 21.2967 31.0693 21.2811C31.0771 21.2733 31.0771 21.2733 31.085 21.2654C31.1318 21.2029 31.1865 21.1561 31.2646 21.1248C31.2725 21.117 31.2725 21.1092 31.2803 21.1014C31.3037 21.0623 31.335 21.0311 31.374 21.0076C31.4053 20.9295 31.46 20.867 31.5459 20.8279C31.5693 20.7889 31.6006 20.7498 31.6396 20.7264C31.6318 20.7029 31.6318 20.6873 31.624 20.6639L34.5928 17.8826C34.96 17.5701 35.1162 17.0858 35.0147 16.617ZM28.7021 21.5311L29.624 18.6795C29.8818 17.8045 29.3818 16.8904 28.5068 16.6248C28.4443 16.6014 28.3975 16.5545 28.3662 16.4998C28.249 16.2889 28.1865 16.6795 30.1553 10.117L33.3272 11.1561L32.3115 14.6717C32.1787 15.0936 32.21 15.5545 32.4131 15.9451C32.6162 16.3358 32.9678 16.6326 33.3896 16.7733L33.7021 16.8748L28.7021 21.5311Z" fill="#353846"/>
<path d="M31.8202 21.6801C31.7967 21.6957 31.7655 21.7113 31.7342 21.7269C31.703 21.7738 31.6639 21.8207 31.617 21.8519C31.5702 21.8988 31.4998 21.9379 31.4139 21.9457C31.4061 21.9535 31.3983 21.9613 31.3905 21.9691C31.3592 22.0316 31.3123 22.0785 31.2498 22.1176C31.203 22.2191 31.117 22.2972 30.9842 22.3129C30.9764 22.3207 30.9764 22.3285 30.9686 22.3285C30.9373 22.4222 30.8748 22.5004 30.7811 22.5394C30.7577 22.5785 30.7342 22.6097 30.6952 22.641C30.6639 22.6722 30.6327 22.7035 30.5936 22.7269C31.1405 28.9457 27.6795 34.8832 21.9061 37.4301C15.828 40.1097 8.69516 38.3676 4.53891 33.1801C0.398286 28.0004 0.242036 20.6644 4.18735 15.3129C7.97641 10.1722 14.6327 8.09412 20.6405 10.1019C20.6405 10.0707 20.6483 10.0316 20.6561 10.0004C20.6561 9.97693 20.6561 9.94568 20.6639 9.92224C20.6405 9.85193 20.6327 9.76599 20.6405 9.68787C20.6327 9.62537 20.6327 9.56287 20.6483 9.50037C20.6405 9.45349 20.6405 9.39881 20.6561 9.35193C20.6405 9.26599 20.6483 9.18006 20.6795 9.10193C20.6795 9.07068 20.6795 9.03943 20.6795 9.01599C20.6561 8.92224 20.6639 8.81287 20.703 8.72693C14.0389 6.67224 6.76547 9.17224 2.79672 14.9691C-1.32828 20.9847 -0.859527 29.0316 3.93735 34.5316C8.73422 40.0316 16.6327 41.5941 23.1561 38.3285C29.367 35.2191 32.828 28.4769 31.8202 21.6801Z" fill="#353846"/>
<path d="M36.5547 5.03906H36.5781C36.0937 2.14844 33.5937 0.0390625 30.6641 0.0390625C27.7344 0.0390625 25.2344 2.15625 24.75 5.03906C23.0391 5.6875 21.7969 7.17969 21.4531 8.96875C21.4453 8.96875 21.4375 8.96094 21.4219 8.96094C21.4219 8.96094 21.4219 8.96094 21.4219 8.96875C21.4453 9.05469 21.4375 9.15625 21.4063 9.24219C21.4063 9.28125 21.4063 9.32031 21.3984 9.35938C21.4141 9.42188 21.4141 9.49219 21.3984 9.5625C21.4063 9.60938 21.4063 9.65625 21.3984 9.69531C21.4063 9.75 21.4063 9.80469 21.3984 9.85938C21.4297 9.94531 21.4297 10.0469 21.4063 10.1406C21.4063 10.1484 21.4063 10.1562 21.4063 10.1641C21.4063 10.2109 21.4063 10.25 21.3984 10.2969C21.3984 10.3359 21.3984 10.3828 21.3906 10.4219C21.5625 12.6172 23.0547 14.4844 25.1641 15.1172C25.5156 15.2188 25.8906 15.0156 25.9922 14.6641C26.0937 14.3125 25.8906 13.9375 25.5391 13.8359C23.5312 13.2422 22.3203 11.1875 22.7656 9.14062C23.2187 7.09375 25.1719 5.74219 27.25 6.03906C27.6172 6.09375 27.9609 5.84375 28.0156 5.46875C28.0703 5.09375 27.8203 4.75781 27.4453 4.70312C27.0312 4.64844 26.6094 4.64844 26.1953 4.70312C26.6406 3.09375 27.9062 1.84375 29.5156 1.42969C31.125 1.01562 32.8437 1.48438 34.0156 2.67188C35.1875 3.85938 35.6328 5.57812 35.1953 7.1875C35.125 7.53906 35.3437 7.88281 35.6875 7.96875C36.039 8.05469 36.3906 7.85156 36.4844 7.50781C36.5703 7.1875 36.6328 6.86719 36.6719 6.53125C38.0781 7.3125 38.8828 8.86719 38.7031 10.4688C38.5234 12.0703 37.3984 13.4062 35.8515 13.8594C35.6797 13.8984 35.5234 14 35.4297 14.1484C35.3359 14.2969 35.3047 14.4844 35.3437 14.6562C35.4531 15.0078 35.8203 15.2031 36.1719 15.1016C38.3515 14.4453 39.8672 12.4766 39.9531 10.2031C40.0312 7.94531 38.6719 5.86719 36.5547 5.03906Z" fill="#353846"/>
<path d="M11 23.3359C12.6563 23.3359 14 21.9922 14 20.3359C14 18.6797 12.6563 17.3359 11 17.3359C9.34375 17.3359 8 18.6797 8 20.3359C8 21.9922 9.34375 23.3281 11 23.3359ZM11 18.6641C11.9219 18.6641 12.6641 19.4141 12.6641 20.3281C12.6641 21.25 11.9141 21.9922 11 21.9922C10.0781 21.9922 9.33594 21.2422 9.33594 20.3281C9.33594 19.4141 10.0781 18.6641 11 18.6641Z" fill="#353846"/>
<path d="M21 17.3359C19.3437 17.3359 18 18.6797 18 20.3359C18 21.9922 19.3437 23.3359 21 23.3359C22.6562 23.3359 24 21.9922 24 20.3359C24 18.6797 22.6562 17.3359 21 17.3359ZM21 22C20.0781 22 19.3359 21.25 19.3359 20.3359C19.3359 19.4141 20.0859 18.6719 21 18.6719C21.9219 18.6719 22.6641 19.4219 22.6641 20.3359C22.6641 21.25 21.9219 22 21 22Z" fill="#353846"/>
<path d="M10.5851 32.5383C14.0304 30.9992 17.9679 30.9992 21.4132 32.5383C21.8663 32.7727 22.421 32.7258 22.8351 32.4211C23.2491 32.1164 23.4367 31.593 23.3351 31.0852C22.5538 27.6789 19.4992 25.2727 15.9992 25.3352C12.4992 25.2727 9.43666 27.6789 8.66322 31.0852C8.56166 31.5852 8.75697 32.1086 9.16322 32.4211C9.56947 32.7336 10.132 32.7727 10.5851 32.5383ZM11.6632 28.3821C15.0929 25.093 20.9992 26.7727 21.9913 31.3196C18.1788 29.5774 13.8038 29.5774 9.99135 31.3196C10.2413 30.2024 10.8195 29.1711 11.6632 28.3821Z" fill="#353846"/>
</g>
<defs>
<clipPath id="clip0">
<rect width="40" height="40" fill="white"/>
</clipPath>
</defs>
</svg>
