<svg width="9" height="9" viewBox="0 0 9 9" fill="none" xmlns="http://www.w3.org/2000/svg">
    <g clip-path="url(#clip0)">
        <path
            d="M4.14882 1.99969L0.143779 6.00481C0.0510728 6.09744 1.10002e-08 6.2211 9.42785e-09 6.35295C7.85553e-09 6.4848 0.0510728 6.60846 0.143779 6.70109L0.438655 6.99604C0.6308 7.18797 0.94309 7.18797 1.13494 6.99604L4.49813 3.63285L7.86506 6.99978C7.95776 7.09241 8.08135 7.14355 8.21313 7.14355C8.34505 7.14355 8.46864 7.09241 8.56142 6.99978L8.85622 6.70483C8.94893 6.61212 9 6.48854 9 6.35668C9 6.22483 8.94893 6.10117 8.85622 6.00854L4.84752 1.99969C4.75452 1.90684 4.63035 1.85584 4.49835 1.85613C4.36584 1.85584 4.24175 1.90684 4.14882 1.99969Z"
            fill="#353846" />
    </g>
    <defs>
        <clipPath id="clip0">
            <rect width="9" height="9" fill="white" transform="translate(0 9) rotate(-90)" />
        </clipPath>
    </defs>
</svg>