<svg width="13" height="13" viewBox="0 0 13 13" fill="none" xmlns="http://www.w3.org/2000/svg">
<path d="M6.40657 6.26214C7.26688 6.26214 8.01183 5.95358 8.62051 5.3448C9.22919 4.73613 9.53775 3.99137 9.53775 3.13097C9.53775 2.27086 9.22919 1.52601 8.62041 0.917134C8.01163 0.308554 7.26678 0 6.40657 0C5.54617 0 4.80141 0.308554 4.19273 0.917233C3.58405 1.52591 3.27539 2.27077 3.27539 3.13097C3.27539 3.99137 3.58405 4.73623 4.19283 5.3449C4.80161 5.95348 5.54646 6.26214 6.40657 6.26214Z" fill="#FF8508"/>
<path d="M11.8861 9.99613C11.8685 9.74282 11.833 9.4665 11.7808 9.17471C11.728 8.88073 11.66 8.60283 11.5787 8.34882C11.4947 8.08629 11.3805 7.82703 11.2392 7.57858C11.0926 7.32071 10.9204 7.09616 10.7272 6.91138C10.5252 6.71808 10.2778 6.56266 9.99181 6.44929C9.70676 6.33652 9.39086 6.2794 9.05295 6.2794C8.92024 6.2794 8.7919 6.33385 8.54404 6.49522C8.3915 6.59469 8.21307 6.70975 8.01392 6.837C7.84362 6.9455 7.61292 7.04716 7.32797 7.1392C7.04996 7.22916 6.76769 7.27478 6.48909 7.27478C6.21049 7.27478 5.92831 7.22916 5.65001 7.1392C5.36536 7.04726 5.13466 6.9456 4.96456 6.83709C4.76729 6.71103 4.58876 6.59598 4.43394 6.49512C4.18638 6.33375 4.05794 6.2793 3.92523 6.2793C3.58722 6.2793 3.27142 6.33652 2.98647 6.44939C2.70063 6.56256 2.45317 6.71798 2.25094 6.91148C2.05783 7.09636 1.88555 7.3208 1.73916 7.57858C1.59802 7.82703 1.48376 8.08619 1.39966 8.34892C1.31843 8.60293 1.25049 8.88073 1.19772 9.17471C1.14545 9.46611 1.10995 9.74252 1.09239 9.99643C1.07513 10.2452 1.06641 10.5033 1.06641 10.7641C1.06641 11.4427 1.28213 11.9921 1.70752 12.3972C2.12766 12.797 2.68357 12.9999 3.3596 12.9999H9.61918C10.2952 12.9999 10.8509 12.7971 11.2712 12.3972C11.6966 11.9924 11.9124 11.4429 11.9124 10.764C11.9123 10.5021 11.9034 10.2437 11.8861 9.99613Z" fill="#FF8508"/>
</svg>
