<svg width="40" height="38" viewBox="0 0 40 38" fill="none" xmlns="http://www.w3.org/2000/svg">
<path d="M39.2004 28.1454L25.1867 3.87258C22.8977 -0.137213 17.1095 -0.137213 14.8288 3.87258L0.806838 28.1454C-1.48212 32.1552 1.36673 37.1365 5.98581 37.1365H33.972C38.5911 37.1365 41.4893 32.1058 39.2004 28.1454ZM19.9995 31.7517C18.7809 31.7517 17.7682 30.739 17.7682 29.5204C17.7682 28.3018 18.7809 27.2891 19.9995 27.2891C21.2181 27.2891 22.2308 28.3018 22.1814 29.5781C22.239 30.739 21.1687 31.7517 19.9995 31.7517ZM22.0332 17.3264C21.9344 19.0554 21.8274 20.7763 21.7286 22.5053C21.6792 23.0652 21.6792 23.5757 21.6792 24.1274C21.6298 25.0413 20.9134 25.7494 19.9995 25.7494C19.0856 25.7494 18.3775 25.0907 18.3198 24.1768C18.1716 21.4844 18.0152 18.8414 17.867 16.149C17.8176 15.4409 17.7682 14.7245 17.7105 14.0164C17.7105 12.8473 18.3692 11.8839 19.4396 11.5793C20.51 11.324 21.5721 11.8345 22.0332 12.8473C22.1896 13.2013 22.239 13.5554 22.239 13.967C22.1896 15.095 22.0826 16.2148 22.0332 17.3264Z" fill="#E6E9F1"/>
</svg>
